<?xml version="1.0" encoding="UTF-8"?>
<svg xmlns="http://www.w3.org/2000/svg" xmlns:xlink="http://www.w3.org/1999/xlink" width="40px" height="39px" viewBox="0 0 39 39" version="1.1">
<g id="surface1">
<path style=" stroke:none;fill-rule:nonzero;fill:rgb(99.215686%,71.372551%,1.176471%);fill-opacity:1;" d="M 21.808594 0.722656 C 22.617188 1.335938 23.125 2.214844 23.339844 3.214844 C 23.515625 4.4375 23.3125 5.542969 22.59375 6.542969 C 22.277344 6.964844 21.871094 7.253906 21.449219 7.5625 L 21.824219 7.648438 C 25.152344 8.449219 28.097656 10.171875 29.953125 13.175781 C 30.753906 14.558594 31.28125 15.9375 31.589844 17.511719 L 31.765625 17.304688 L 32 17.039062 L 32.226562 16.773438 C 32.996094 15.949219 33.910156 15.53125 35.019531 15.484375 C 36.144531 15.511719 37.109375 15.9375 37.925781 16.714844 C 38.773438 17.710938 39.070312 18.792969 39 20.097656 C 38.890625 21.15625 38.34375 22.117188 37.539062 22.78125 C 36.527344 23.558594 35.460938 23.710938 34.222656 23.578125 C 33.039062 23.332031 32.265625 22.566406 31.589844 21.589844 L 31.546875 21.753906 C 31.234375 23.007812 30.859375 24.148438 30.226562 25.269531 L 30.054688 25.574219 C 28.484375 28.203125 25.898438 30.25 22.957031 31.003906 C 22.421875 31.128906 21.890625 31.238281 21.351562 31.339844 L 21.519531 31.460938 C 22.535156 32.222656 23.191406 33.136719 23.398438 34.421875 C 23.492188 35.605469 23.230469 36.660156 22.523438 37.605469 C 21.78125 38.417969 20.925781 38.929688 19.832031 39.035156 C 18.566406 39.046875 17.546875 38.738281 16.601562 37.847656 C 15.816406 36.980469 15.550781 35.984375 15.503906 34.820312 C 15.558594 33.648438 16.019531 32.632812 16.867188 31.835938 C 17.117188 31.652344 17.378906 31.488281 17.648438 31.339844 L 17.339844 31.273438 C 14.078125 30.546875 11.15625 28.816406 9.28125 25.925781 C 8.417969 24.523438 7.886719 22.996094 7.507812 21.390625 L 7.382812 21.585938 C 6.699219 22.628906 5.914062 23.316406 4.691406 23.617188 C 3.480469 23.816406 2.375 23.480469 1.382812 22.773438 C 0.664062 22.132812 0.15625 21.253906 0 20.296875 C -0.078125 19.070312 0.0703125 18.113281 0.78125 17.113281 L 1 16.800781 C 1.824219 15.921875 2.789062 15.578125 3.964844 15.515625 C 5.039062 15.53125 5.96875 15.960938 6.742188 16.71875 C 7.042969 17.0625 7.28125 17.410156 7.507812 17.808594 L 7.542969 17.636719 C 8.007812 15.503906 8.007812 15.503906 8.484375 14.527344 L 8.648438 14.171875 C 9.601562 12.207031 11.074219 10.632812 12.871094 9.453125 L 13.195312 9.238281 C 14.40625 8.488281 15.746094 7.992188 17.132812 7.710938 C 17.351562 7.683594 17.351562 7.683594 17.453125 7.5625 L 17.300781 7.457031 C 16.375 6.777344 15.75 5.980469 15.535156 4.816406 C 15.371094 3.558594 15.621094 2.410156 16.378906 1.394531 C 17.820312 -0.242188 20.023438 -0.4375 21.808594 0.722656 "/>
<path style=" stroke:none;fill-rule:nonzero;fill:rgb(92.156863%,11.372549%,14.901961%);fill-opacity:1;" d="M 27.984375 10.84375 C 29.992188 12.394531 31.113281 15.058594 31.589844 17.511719 L 31.765625 17.304688 L 32 17.039062 L 32.226562 16.773438 C 32.996094 15.949219 33.910156 15.53125 35.019531 15.484375 C 36.144531 15.511719 37.109375 15.9375 37.925781 16.714844 C 38.773438 17.710938 39.070312 18.792969 39 20.097656 C 38.890625 21.15625 38.34375 22.117188 37.539062 22.78125 C 36.527344 23.558594 35.460938 23.710938 34.222656 23.578125 C 33.039062 23.332031 32.265625 22.566406 31.589844 21.589844 L 31.546875 21.753906 C 31.234375 23.007812 30.859375 24.148438 30.226562 25.269531 L 30.054688 25.574219 C 29.488281 26.523438 28.824219 27.351562 27.984375 28.054688 L 27.90625 27.710938 C 27.523438 26.046875 26.910156 24.230469 25.667969 23.015625 C 25.546875 22.882812 25.546875 22.882812 25.546875 22.683594 C 25.488281 22.65625 25.429688 22.632812 25.367188 22.605469 C 25.148438 22.480469 25.019531 22.355469 24.851562 22.167969 C 24.238281 21.523438 23.511719 21.070312 22.71875 20.695312 L 22.71875 20.496094 L 22.511719 20.441406 C 21.664062 20.210938 21.664062 20.210938 21.261719 20.046875 C 20.753906 19.84375 20.222656 19.726562 19.695312 19.597656 C 19.964844 19.449219 20.214844 19.359375 20.515625 19.292969 C 21.441406 19.082031 22.230469 18.882812 23.011719 18.304688 L 23.246094 18.164062 C 23.707031 17.878906 24.136719 17.542969 24.570312 17.210938 L 24.753906 17.074219 C 26.503906 15.683594 27.390625 13.441406 27.8125 11.292969 C 27.886719 10.945312 27.886719 10.945312 27.984375 10.84375 "/>
<path style=" stroke:none;fill-rule:nonzero;fill:rgb(42.745098%,83.529413%,0.392157%);fill-opacity:1;" d="M 10.824219 11.144531 C 11.070312 11.394531 11.070312 11.546875 11.132812 11.894531 C 11.496094 13.582031 12.304688 14.980469 13.359375 16.316406 L 13.578125 16.613281 C 13.742188 16.839844 13.742188 16.839844 14.039062 16.914062 L 14.210938 17.136719 C 14.636719 17.671875 15.210938 17.976562 15.804688 18.292969 C 15.988281 18.40625 15.988281 18.40625 16.183594 18.605469 C 16.816406 18.886719 17.476562 19.042969 18.144531 19.203125 C 18.503906 19.292969 18.855469 19.394531 19.207031 19.5 L 19.207031 19.699219 L 18.84375 19.722656 C 17.851562 19.839844 16.984375 20.265625 16.113281 20.730469 C 15.617188 20.992188 15.617188 20.992188 15.40625 20.992188 L 15.40625 21.191406 L 15.09375 21.378906 C 13.640625 22.277344 12.457031 23.78125 11.796875 25.371094 L 11.695312 25.597656 C 11.390625 26.328125 11.207031 27.089844 11.015625 27.855469 C 9 26.238281 8.128906 23.839844 7.507812 21.390625 L 7.382812 21.585938 C 6.699219 22.628906 5.914062 23.316406 4.691406 23.617188 C 3.480469 23.816406 2.375 23.480469 1.382812 22.773438 C 0.664062 22.132812 0.15625 21.253906 0 20.296875 C -0.078125 19.070312 0.0703125 18.113281 0.78125 17.113281 L 1 16.800781 C 1.824219 15.921875 2.789062 15.578125 3.964844 15.515625 C 5.039062 15.53125 5.96875 15.960938 6.742188 16.71875 C 7.042969 17.0625 7.28125 17.410156 7.507812 17.808594 L 7.542969 17.636719 C 8.007812 15.503906 8.007812 15.503906 8.484375 14.527344 L 8.648438 14.171875 C 9.203125 13.03125 9.925781 12.03125 10.824219 11.144531 "/>
<path style=" stroke:none;fill-rule:nonzero;fill:rgb(80.000001%,51.372552%,0.392157%);fill-opacity:1;" d="M 19.402344 19.796875 L 19.5 19.796875 L 19.566406 20.074219 C 19.972656 21.679688 20.46875 23.050781 21.4375 24.386719 L 21.582031 24.589844 C 23.101562 26.636719 25.339844 27.8125 27.789062 28.253906 C 26.101562 30.050781 23.683594 30.890625 21.351562 31.339844 L 21.519531 31.460938 C 22.535156 32.222656 23.191406 33.136719 23.398438 34.421875 C 23.492188 35.605469 23.230469 36.660156 22.523438 37.605469 C 21.78125 38.417969 20.925781 38.929688 19.832031 39.035156 C 18.566406 39.046875 17.546875 38.738281 16.601562 37.847656 C 15.816406 36.980469 15.550781 35.984375 15.503906 34.820312 C 15.558594 33.648438 16.019531 32.632812 16.867188 31.835938 C 17.117188 31.652344 17.378906 31.488281 17.648438 31.339844 L 17.339844 31.273438 C 15.195312 30.796875 13.167969 29.953125 11.503906 28.453125 L 11.40625 28.253906 L 11.742188 28.171875 C 12.644531 27.933594 13.445312 27.652344 14.261719 27.195312 C 14.527344 27.0625 14.527344 27.0625 14.820312 27.0625 L 14.820312 26.863281 C 14.976562 26.75 15.140625 26.644531 15.308594 26.546875 C 16.15625 26.03125 16.15625 26.03125 16.769531 25.269531 L 16.964844 25.269531 L 17.039062 25.105469 C 17.183594 24.824219 17.367188 24.601562 17.5625 24.355469 C 18.550781 23.054688 19.136719 21.410156 19.402344 19.796875 "/>
<path style=" stroke:none;fill-rule:nonzero;fill:rgb(99.215686%,99.607843%,97.647059%);fill-opacity:1;" d="M 11.207031 10.9375 C 11.800781 10.980469 12.34375 11.101562 12.914062 11.28125 L 13.117188 11.34375 C 13.476562 11.460938 13.746094 11.597656 14.039062 11.839844 C 14.246094 11.9375 14.246094 11.9375 14.453125 12.007812 L 14.820312 12.136719 L 14.820312 12.335938 L 14.996094 12.363281 C 15.210938 12.4375 15.210938 12.4375 15.339844 12.617188 C 15.523438 12.863281 15.71875 12.972656 15.988281 13.109375 C 17.835938 14.257812 18.824219 16.683594 19.359375 18.710938 C 19.765625 20.527344 18.824219 22.484375 17.925781 24 C 17.636719 24.445312 17.328125 24.882812 16.964844 25.269531 L 16.769531 25.269531 L 16.703125 25.441406 C 16.535156 25.738281 16.320312 25.90625 16.058594 26.121094 L 15.777344 26.351562 C 15.113281 26.863281 15.113281 26.863281 14.820312 26.863281 L 14.820312 27.0625 C 13.761719 27.648438 12.539062 28.253906 11.308594 28.253906 C 11.136719 28.136719 11.136719 28.136719 11.015625 27.957031 C 11.023438 27.582031 11.125 27.222656 11.210938 26.863281 L 11.265625 26.625 C 11.796875 24.519531 13.28125 22.515625 15.015625 21.289062 C 15.242188 21.214844 15.242188 21.214844 15.40625 21.191406 L 15.40625 20.992188 C 15.652344 20.867188 15.898438 20.738281 16.140625 20.613281 L 16.351562 20.503906 C 17.292969 20.023438 18.132812 19.65625 19.207031 19.699219 L 19.207031 19.5 L 18.914062 19.460938 C 17.71875 19.285156 16.535156 18.972656 15.5625 18.222656 C 15.390625 18.089844 15.390625 18.089844 15.117188 17.96875 C 14.707031 17.75 14.359375 17.457031 14.039062 17.113281 L 14.039062 16.914062 L 13.871094 16.894531 C 13.378906 16.714844 13.078125 16.128906 12.773438 15.71875 L 12.585938 15.476562 C 11.675781 14.230469 10.996094 12.605469 10.921875 11.042969 C 11.015625 10.945312 11.015625 10.945312 11.207031 10.9375 "/>
<path style=" stroke:none;fill-rule:nonzero;fill:rgb(99.607843%,98.431373%,97.647059%);fill-opacity:1;" d="M 19.5 19.699219 C 20.492188 19.640625 21.335938 19.875 22.230469 20.296875 C 22.390625 20.363281 22.554688 20.429688 22.71875 20.496094 L 22.71875 20.695312 L 22.917969 20.714844 C 23.292969 20.816406 23.5625 21.019531 23.871094 21.246094 L 24.050781 21.382812 C 24.53125 21.742188 24.945312 22.140625 25.351562 22.585938 L 25.601562 22.828125 C 26.839844 24.15625 27.886719 26.085938 28 27.949219 C 27.984375 28.15625 27.984375 28.15625 27.886719 28.253906 C 26.121094 28.226562 24.324219 27.316406 23.011719 26.164062 L 22.769531 25.960938 C 21.082031 24.472656 19.996094 22.507812 19.5 20.296875 C 19.496094 20.097656 19.492188 19.898438 19.5 19.699219 "/>
<path style=" stroke:none;fill-rule:nonzero;fill:rgb(99.607843%,98.823529%,97.647059%);fill-opacity:1;" d="M 27.59375 10.644531 L 27.984375 10.746094 C 27.53125 13.414062 26.515625 15.851562 24.332031 17.523438 C 24.152344 17.652344 23.972656 17.78125 23.789062 17.90625 C 23.710938 17.976562 23.628906 18.042969 23.546875 18.113281 C 23.296875 18.3125 23.046875 18.464844 22.765625 18.617188 L 22.496094 18.765625 C 21.984375 19.03125 21.476562 19.179688 20.917969 19.3125 C 20.847656 19.332031 20.777344 19.351562 20.703125 19.367188 C 20.292969 19.46875 19.921875 19.519531 19.5 19.5 C 19.59375 17.371094 20.628906 15.527344 21.9375 13.929688 L 22.152344 13.640625 C 22.472656 13.25 22.867188 12.972656 23.273438 12.679688 L 23.511719 12.503906 C 24.324219 11.925781 25.113281 11.542969 26.042969 11.210938 L 26.265625 11.128906 C 26.761719 10.964844 27.171875 10.917969 27.691406 10.945312 Z M 27.59375 10.644531 "/>
<path style=" stroke:none;fill-rule:nonzero;fill:rgb(99.215686%,94.509804%,72.941178%);fill-opacity:1;" d="M 11.207031 10.9375 C 11.800781 10.980469 12.34375 11.101562 12.914062 11.28125 L 13.117188 11.34375 C 13.476562 11.460938 13.746094 11.597656 14.039062 11.839844 C 14.246094 11.9375 14.246094 11.9375 14.453125 12.007812 L 14.820312 12.136719 L 14.820312 12.335938 L 14.527344 12.335938 L 14.527344 12.136719 L 14.34375 12.097656 L 14.101562 12.042969 L 13.859375 11.992188 C 13.648438 11.9375 13.648438 11.9375 13.453125 11.839844 L 13.453125 11.640625 C 13.261719 11.675781 13.261719 11.675781 13.066406 11.738281 L 12.96875 11.9375 L 12.773438 11.9375 L 12.773438 11.539062 C 12.242188 11.316406 11.785156 11.195312 11.210938 11.144531 L 11.113281 11.9375 L 11.015625 11.9375 C 11 11.792969 10.980469 11.644531 10.960938 11.496094 L 10.933594 11.25 L 10.921875 11.042969 C 11.015625 10.945312 11.015625 10.945312 11.207031 10.9375 "/>
<path style=" stroke:none;fill-rule:nonzero;fill:rgb(89.019608%,67.843139%,7.058824%);fill-opacity:1;" d="M 16.378906 8.058594 C 16.210938 8.308594 16.210938 8.308594 15.988281 8.554688 L 15.601562 8.554688 L 15.601562 8.355469 L 15.3125 8.539062 C 14.328125 9.109375 14.328125 9.109375 13.820312 9.011719 L 13.648438 8.953125 C 15.9375 7.910156 15.9375 7.910156 16.378906 8.058594 "/>
<path style=" stroke:none;fill-rule:nonzero;fill:rgb(95.686275%,72.549021%,15.686275%);fill-opacity:1;" d="M 18.816406 17.011719 L 19.011719 17.011719 L 19.074219 17.21875 L 19.152344 17.492188 L 19.230469 17.761719 C 19.285156 17.945312 19.34375 18.125 19.402344 18.304688 L 19.597656 18.304688 L 19.597656 17.808594 L 19.792969 17.808594 L 19.5 19.5 L 19.890625 19.699219 L 19.402344 19.796875 L 19.375 19.5625 C 19.277344 18.835938 19.121094 18.164062 18.894531 17.46875 C 18.816406 17.210938 18.816406 17.210938 18.816406 17.011719 "/>
<path style=" stroke:none;fill-rule:nonzero;fill:rgb(76.47059%,53.725493%,14.117648%);fill-opacity:1;" d="M 13.84375 27.558594 L 13.84375 27.757812 L 13.679688 27.792969 L 13.460938 27.84375 L 13.246094 27.894531 C 13.042969 27.941406 13.042969 27.941406 12.96875 28.15625 C 12.742188 28.195312 12.511719 28.230469 12.285156 28.253906 L 12.089844 28.851562 C 11.515625 28.480469 11.515625 28.480469 11.40625 28.253906 L 11.773438 28.152344 L 12.253906 28.019531 L 12.496094 27.953125 C 12.921875 27.832031 13.410156 27.558594 13.84375 27.558594 "/>
<path style=" stroke:none;fill-rule:nonzero;fill:rgb(94.901961%,71.372551%,14.901961%);fill-opacity:1;" d="M 11.503906 10.445312 L 11.601562 10.746094 L 12.089844 10.746094 L 12.089844 10.945312 L 12.773438 11.042969 L 12.773438 11.242188 L 13.359375 11.242188 L 13.359375 11.441406 L 13.648438 11.539062 C 13.183594 11.46875 12.730469 11.363281 12.273438 11.25 L 12.066406 11.199219 C 11.726562 11.113281 11.417969 11.023438 11.113281 10.84375 Z M 11.503906 10.445312 "/>
<path style=" stroke:none;fill-rule:nonzero;fill:rgb(52.549022%,83.92157%,19.215687%);fill-opacity:1;" d="M 11.699219 25.070312 L 11.894531 25.171875 C 11.863281 25.238281 11.832031 25.308594 11.800781 25.378906 C 11.453125 26.191406 11.222656 27 11.015625 27.855469 L 10.53125 27.359375 L 10.921875 27.359375 L 11 27.015625 L 11.101562 26.570312 L 11.152344 26.34375 C 11.199219 26.148438 11.253906 25.957031 11.308594 25.769531 L 11.503906 25.667969 C 11.574219 25.472656 11.640625 25.273438 11.699219 25.070312 "/>
<path style=" stroke:none;fill-rule:nonzero;fill:rgb(77.64706%,55.29412%,13.333334%);fill-opacity:1;" d="M 19.402344 19.796875 L 19.5 19.796875 L 19.890625 21.488281 L 19.695312 21.488281 L 19.597656 21.09375 L 19.109375 21.289062 Z M 19.402344 19.796875 "/>
<path style=" stroke:none;fill-rule:nonzero;fill:rgb(51.372552%,81.568629%,22.745098%);fill-opacity:1;" d="M 17.355469 19.101562 C 17.777344 19.167969 18.191406 19.257812 18.609375 19.355469 L 18.949219 19.4375 L 19.207031 19.5 L 19.207031 19.699219 L 18.136719 19.796875 L 18.136719 19.5 L 17.800781 19.414062 L 17.453125 19.300781 Z M 17.355469 19.101562 "/>
<path style=" stroke:none;fill-rule:nonzero;fill:rgb(96.470588%,84.313726%,73.725492%);fill-opacity:1;" d="M 27.789062 27.160156 L 27.886719 27.160156 C 27.902344 27.324219 27.921875 27.488281 27.941406 27.652344 L 27.96875 27.929688 L 27.984375 28.15625 L 27.886719 28.253906 C 27.3125 28.242188 26.773438 28.136719 26.226562 27.957031 C 26.558594 27.847656 26.832031 27.863281 27.179688 27.902344 L 27.46875 27.929688 L 27.691406 27.957031 Z M 27.789062 27.160156 "/>
<path style=" stroke:none;fill-rule:nonzero;fill:rgb(98.431373%,92.156863%,80.784315%);fill-opacity:1;" d="M 12.96875 27.460938 L 13.84375 27.460938 C 13.582031 27.730469 13.273438 27.804688 12.925781 27.917969 L 12.722656 27.988281 C 12.4375 28.085938 12.199219 28.15625 11.894531 28.15625 L 11.894531 27.957031 L 12.105469 27.898438 L 12.375 27.820312 L 12.648438 27.742188 C 12.886719 27.679688 12.886719 27.679688 12.96875 27.460938 "/>
<path style=" stroke:none;fill-rule:nonzero;fill:rgb(81.568629%,15.294118%,18.82353%);fill-opacity:1;" d="M 27.789062 26.863281 L 27.984375 26.863281 L 27.984375 27.359375 L 28.566406 27.460938 L 28.078125 28.054688 C 27.847656 27.675781 27.832031 27.300781 27.789062 26.863281 "/>
<path style=" stroke:none;fill-rule:nonzero;fill:rgb(74.901962%,55.29412%,9.411765%);fill-opacity:1;" d="M 21.253906 24.277344 C 21.636719 24.644531 21.933594 25.027344 22.230469 25.46875 L 22.035156 25.570312 L 21.839844 25.269531 L 21.644531 25.234375 C 21.449219 25.171875 21.449219 25.171875 21.328125 24.941406 C 21.253906 24.671875 21.253906 24.671875 21.253906 24.277344 "/>
<path style=" stroke:none;fill-rule:nonzero;fill:rgb(83.137256%,96.078432%,67.058825%);fill-opacity:1;" d="M 19.109375 19.699219 C 18.777344 19.925781 18.597656 20.007812 18.207031 20.046875 C 17.855469 20.082031 17.507812 20.132812 17.160156 20.195312 C 17.652344 19.695312 18.449219 19.660156 19.109375 19.699219 "/>
<path style=" stroke:none;fill-rule:nonzero;fill:rgb(96.862745%,77.254903%,27.843139%);fill-opacity:1;" d="M 14.820312 12.238281 L 15.503906 12.335938 L 15.570312 12.574219 C 15.675781 12.855469 15.675781 12.855469 15.953125 12.964844 L 16.183594 13.03125 L 16.085938 13.230469 C 15.960938 13.15625 15.832031 13.078125 15.703125 13.003906 L 15.488281 12.871094 C 15.308594 12.734375 15.308594 12.734375 15.210938 12.4375 C 15.015625 12.316406 15.015625 12.316406 14.820312 12.238281 "/>
<path style=" stroke:none;fill-rule:nonzero;fill:rgb(99.215686%,94.117647%,79.215688%);fill-opacity:1;" d="M 19.792969 17.710938 C 19.894531 18.035156 19.886719 18.292969 19.847656 18.628906 L 19.816406 18.898438 L 19.792969 19.101562 L 19.597656 19.101562 L 19.597656 19.402344 L 20.085938 19.402344 L 20.085938 19.5 L 19.5 19.5 C 19.546875 18.882812 19.628906 18.304688 19.792969 17.710938 "/>
<path style=" stroke:none;fill-rule:nonzero;fill:rgb(99.607843%,94.901961%,72.549021%);fill-opacity:1;" d="M 27.691406 10.945312 C 27.375 11.121094 27.0625 11.21875 26.714844 11.3125 L 26.410156 11.394531 C 26.140625 11.441406 25.992188 11.433594 25.738281 11.34375 C 26.40625 11.085938 26.972656 10.886719 27.691406 10.945312 "/>
<path style=" stroke:none;fill-rule:nonzero;fill:rgb(92.156863%,98.039216%,82.352942%);fill-opacity:1;" d="M 13.84375 22.285156 L 14.039062 22.683594 L 13.84375 22.683594 L 13.84375 22.882812 L 13.648438 22.882812 L 13.648438 23.082031 L 13.164062 23.179688 C 13.355469 22.828125 13.554688 22.558594 13.84375 22.285156 "/>
<path style=" stroke:none;fill-rule:nonzero;fill:rgb(77.254903%,9.411765%,12.156863%);fill-opacity:1;" d="M 34.515625 15.519531 C 34.683594 15.519531 34.851562 15.515625 35.019531 15.515625 L 35.304688 15.511719 C 35.574219 15.519531 35.8125 15.558594 36.074219 15.621094 L 36.074219 15.820312 L 35.199219 15.917969 L 35.199219 15.71875 L 34.515625 15.621094 Z M 34.515625 15.519531 "/>
<path style=" stroke:none;fill-rule:nonzero;fill:rgb(77.254903%,51.764709%,8.627451%);fill-opacity:1;" d="M 23.011719 26.265625 C 23.464844 26.421875 23.796875 26.671875 24.179688 26.960938 C 23.941406 27.085938 23.761719 27.070312 23.496094 27.0625 L 23.398438 26.5625 L 23.011719 26.464844 Z M 23.011719 26.265625 "/>
<path style=" stroke:none;fill-rule:nonzero;fill:rgb(92.54902%,72.549021%,36.078432%);fill-opacity:1;" d="M 19.207031 18.207031 L 19.597656 18.503906 C 19.613281 18.75 19.613281 18.75 19.574219 19.019531 L 19.535156 19.292969 C 19.523438 19.359375 19.511719 19.429688 19.5 19.5 L 19.890625 19.699219 L 19.402344 19.796875 Z M 19.207031 18.207031 "/>
<path style=" stroke:none;fill-rule:nonzero;fill:rgb(99.607843%,96.078432%,78.039217%);fill-opacity:1;" d="M 25.738281 11.441406 L 25.640625 11.9375 L 25.449219 11.839844 C 25.296875 11.847656 25.144531 11.863281 24.996094 11.882812 L 24.753906 11.914062 L 24.570312 11.9375 C 24.910156 11.644531 25.285156 11.441406 25.738281 11.441406 "/>
<path style=" stroke:none;fill-rule:nonzero;fill:rgb(96.078432%,94.117647%,70.980394%);fill-opacity:1;" d="M 19.207031 18.503906 C 19.414062 18.925781 19.421875 19.117188 19.414062 19.574219 L 19.410156 19.925781 L 19.402344 20.195312 L 19.304688 20.195312 L 19.207031 19.5 L 18.816406 19.402344 L 19.207031 19.402344 Z M 19.207031 18.503906 "/>
<path style=" stroke:none;fill-rule:nonzero;fill:rgb(85.09804%,22.352941%,27.450982%);fill-opacity:1;" d="M 20.863281 19.597656 L 20.863281 19.796875 C 20.707031 19.789062 20.546875 19.773438 20.390625 19.761719 C 20.300781 19.753906 20.214844 19.746094 20.121094 19.742188 C 19.890625 19.699219 19.890625 19.699219 19.695312 19.5 C 20.101562 19.355469 20.484375 19.40625 20.863281 19.597656 "/>
<path style=" stroke:none;fill-rule:nonzero;fill:rgb(31.37255%,66.274512%,0.784314%);fill-opacity:1;" d="M 4.277344 15.5625 L 4.617188 15.59375 L 4.875 15.621094 L 4.875 15.71875 C 4.234375 15.796875 3.660156 15.828125 3.023438 15.71875 L 3.023438 15.621094 C 3.457031 15.527344 3.835938 15.523438 4.277344 15.5625 "/>
<path style=" stroke:none;fill-rule:nonzero;fill:rgb(99.215686%,94.117647%,82.745099%);fill-opacity:1;" d="M 17.648438 23.976562 L 17.84375 24.078125 L 17.160156 24.972656 C 17.0625 24.671875 17.0625 24.671875 17.152344 24.457031 C 17.1875 24.394531 17.222656 24.335938 17.257812 24.277344 L 17.453125 24.375 L 17.453125 24.175781 L 17.648438 24.175781 Z M 17.648438 23.976562 "/>
<path style=" stroke:none;fill-rule:nonzero;fill:rgb(79.215688%,10.588235%,14.117648%);fill-opacity:1;" d="M 33.539062 15.820312 L 33.734375 15.917969 L 33.441406 16.019531 L 33.441406 16.21875 L 33.148438 16.21875 L 33.148438 16.515625 L 32.664062 16.414062 C 32.910156 16.121094 33.191406 15.96875 33.539062 15.820312 "/>
<path style=" stroke:none;fill-rule:nonzero;fill:rgb(93.333334%,75.686276%,28.235295%);fill-opacity:1;" d="M 27.398438 10.445312 L 27.691406 10.546875 L 27.691406 10.945312 L 26.519531 11.042969 L 26.519531 10.84375 L 27.496094 10.84375 Z M 27.398438 10.445312 "/>
<path style=" stroke:none;fill-rule:nonzero;fill:rgb(94.901961%,68.235296%,6.27451%);fill-opacity:1;" d="M 16.378906 8.058594 C 16.210938 8.308594 16.210938 8.308594 15.988281 8.554688 L 15.601562 8.554688 L 15.601562 8.355469 L 15.796875 8.355469 L 15.796875 8.058594 C 16.085938 7.960938 16.085938 7.960938 16.378906 8.058594 "/>
<path style=" stroke:none;fill-rule:nonzero;fill:rgb(74.509805%,51.764709%,1.960784%);fill-opacity:1;" d="M 16.769531 25.371094 L 16.964844 25.371094 C 16.910156 25.695312 16.820312 25.851562 16.574219 26.066406 L 16.28125 25.96875 C 16.441406 25.765625 16.601562 25.566406 16.769531 25.371094 "/>
<path style=" stroke:none;fill-rule:nonzero;fill:rgb(89.411765%,98.431373%,76.47059%);fill-opacity:1;" d="M 11.992188 24.773438 L 12.089844 24.773438 L 11.992188 25.46875 L 11.796875 25.46875 L 11.796875 25.96875 L 11.503906 26.066406 C 11.550781 25.925781 11.59375 25.785156 11.640625 25.644531 L 11.714844 25.40625 C 11.792969 25.183594 11.886719 24.980469 11.992188 24.773438 "/>
<path style=" stroke:none;fill-rule:nonzero;fill:rgb(61.56863%,88.235295%,34.901962%);fill-opacity:1;" d="M 17.355469 19.101562 C 17.847656 19.179688 18.332031 19.285156 18.816406 19.402344 C 18.523438 19.492188 18.28125 19.507812 17.976562 19.476562 L 17.746094 19.453125 C 17.550781 19.402344 17.550781 19.402344 17.355469 19.101562 "/>
<path style=" stroke:none;fill-rule:nonzero;fill:rgb(39.215687%,80.392158%,2.352941%);fill-opacity:1;" d="M 1.265625 16.515625 L 1.558594 16.613281 L 1.558594 16.914062 L 0.976562 17.113281 C 1.03125 16.828125 1.058594 16.726562 1.265625 16.515625 "/>
<path style=" stroke:none;fill-rule:nonzero;fill:rgb(51.372552%,81.960785%,16.862746%);fill-opacity:1;" d="M 11.015625 11.9375 C 11.421875 12.738281 11.421875 12.738281 11.371094 13.0625 L 11.308594 13.230469 C 10.910156 12.703125 10.910156 12.703125 10.960938 12.273438 Z M 11.015625 11.9375 "/>
<path style=" stroke:none;fill-rule:nonzero;fill:rgb(73.333335%,51.764709%,5.882353%);fill-opacity:1;" d="M 16.476562 6.664062 C 16.941406 6.851562 16.941406 6.851562 17.160156 6.964844 L 17.160156 7.164062 L 17.453125 7.261719 L 17.257812 7.460938 C 17.128906 7.347656 16.996094 7.234375 16.867188 7.121094 L 16.648438 6.925781 L 16.476562 6.765625 Z M 16.476562 6.664062 "/>
<path style=" stroke:none;fill-rule:nonzero;fill:rgb(99.607843%,95.686275%,85.490197%);fill-opacity:1;" d="M 18.71875 21.289062 L 18.816406 21.488281 L 19.011719 21.488281 L 18.71875 22.484375 L 18.621094 22.484375 Z M 18.71875 21.289062 "/>
<path style=" stroke:none;fill-rule:nonzero;fill:rgb(38.431373%,77.254903%,3.529412%);fill-opacity:1;" d="M 0.78125 17.113281 C 0.78125 17.402344 0.765625 17.628906 0.683594 17.90625 C 0.480469 18.039062 0.480469 18.039062 0.292969 18.105469 C 0.40625 17.71875 0.523438 17.421875 0.78125 17.113281 "/>
<path style=" stroke:none;fill-rule:nonzero;fill:rgb(84.313726%,23.921569%,25.882354%);fill-opacity:1;" d="M 23.300781 20.894531 C 23.765625 20.9375 23.976562 21.023438 24.277344 21.390625 L 24.179688 21.589844 C 24.035156 21.492188 23.886719 21.394531 23.742188 21.296875 L 23.496094 21.132812 L 23.300781 20.992188 Z M 23.300781 20.894531 "/>
<path style=" stroke:none;fill-rule:nonzero;fill:rgb(95.686275%,72.549021%,14.117648%);fill-opacity:1;" d="M 23.789062 12.039062 L 24.179688 12.136719 L 23.496094 12.636719 L 23.398438 12.238281 L 23.59375 12.136719 L 23.789062 12.238281 Z M 23.789062 12.039062 "/>
<path style=" stroke:none;fill-rule:nonzero;fill:rgb(87.843138%,65.490198%,5.098039%);fill-opacity:1;" d="M 23.691406 8.257812 C 24.121094 8.324219 24.46875 8.476562 24.863281 8.65625 L 24.863281 8.753906 L 24.277344 8.753906 L 24.277344 8.554688 L 24.09375 8.519531 C 23.886719 8.457031 23.886719 8.457031 23.691406 8.257812 "/>
<path style=" stroke:none;fill-rule:nonzero;fill:rgb(78.039217%,58.039218%,16.078432%);fill-opacity:1;" d="M 15.210938 26.761719 L 15.210938 27.0625 C 14.964844 27.230469 14.964844 27.230469 14.722656 27.359375 L 14.429688 27.160156 L 14.820312 27.0625 L 14.820312 26.863281 C 15.015625 26.761719 15.015625 26.761719 15.210938 26.761719 "/>
<path style=" stroke:none;fill-rule:nonzero;fill:rgb(98.039216%,92.54902%,77.254903%);fill-opacity:1;" d="M 16.28125 25.46875 L 16.671875 25.570312 L 15.890625 26.164062 C 16.015625 25.660156 16.015625 25.660156 16.28125 25.46875 "/>
<path style=" stroke:none;fill-rule:nonzero;fill:rgb(72.549021%,54.901963%,15.294118%);fill-opacity:1;" d="M 19.402344 19.796875 L 19.5 19.796875 L 19.597656 20.695312 L 19.304688 20.792969 Z M 19.402344 19.796875 "/>
<path style=" stroke:none;fill-rule:nonzero;fill:rgb(90.588236%,97.254902%,82.745099%);fill-opacity:1;" d="M 11.015625 10.945312 C 11.21875 10.988281 11.21875 10.988281 11.40625 11.042969 L 11.210938 11.144531 C 11.167969 11.332031 11.167969 11.332031 11.152344 11.546875 L 11.113281 11.9375 L 11.015625 11.9375 C 11 11.792969 10.980469 11.644531 10.960938 11.496094 L 10.933594 11.25 L 10.921875 11.042969 Z M 11.015625 10.945312 "/>
<path style=" stroke:none;fill-rule:nonzero;fill:rgb(79.215688%,51.764709%,8.627451%);fill-opacity:1;" d="M 25.933594 27.855469 L 26.519531 27.957031 L 26.519531 28.253906 L 26.03125 28.355469 Z M 25.933594 27.855469 "/>
<path style=" stroke:none;fill-rule:nonzero;fill:rgb(97.647059%,88.627452%,69.803923%);fill-opacity:1;" d="M 25.15625 27.460938 L 26.128906 27.558594 L 26.128906 27.855469 L 25.15625 27.558594 Z M 25.15625 27.460938 "/>
<path style=" stroke:none;fill-rule:nonzero;fill:rgb(86.666667%,11.764706%,10.196079%);fill-opacity:1;" d="M 38.609375 18.105469 L 38.804688 18.207031 C 38.867188 18.410156 38.867188 18.410156 38.902344 18.605469 L 38.414062 18.703125 C 38.5 18.21875 38.5 18.21875 38.609375 18.105469 "/>
<path style=" stroke:none;fill-rule:nonzero;fill:rgb(86.666667%,10.588235%,12.941177%);fill-opacity:1;" d="M 37.734375 16.613281 L 38.023438 16.914062 C 37.898438 17.050781 37.769531 17.183594 37.636719 17.3125 L 37.441406 17.3125 L 37.441406 17.011719 L 37.636719 17.011719 Z M 37.734375 16.613281 "/>
<path style=" stroke:none;fill-rule:nonzero;fill:rgb(83.92157%,19.607843%,25.098041%);fill-opacity:1;" d="M 27.398438 25.769531 L 27.59375 25.769531 C 27.855469 26.167969 27.800781 26.390625 27.789062 26.863281 C 27.597656 26.511719 27.5 26.152344 27.398438 25.769531 "/>
<path style=" stroke:none;fill-rule:nonzero;fill:rgb(83.92157%,20.392157%,23.137255%);fill-opacity:1;" d="M 26.617188 14.722656 C 26.734375 15.085938 26.671875 15.1875 26.519531 15.519531 L 26.226562 15.519531 C 26.335938 15.226562 26.445312 14.988281 26.617188 14.722656 "/>
<path style=" stroke:none;fill-rule:nonzero;fill:rgb(65.098041%,42.745098%,4.705882%);fill-opacity:1;" d="M 22.71875 32.929688 L 22.914062 32.929688 L 23.203125 33.628906 C 22.914062 33.527344 22.820312 33.453125 22.621094 33.230469 Z M 22.71875 32.929688 "/>
<path style=" stroke:none;fill-rule:nonzero;fill:rgb(72.156864%,48.235294%,1.568628%);fill-opacity:1;" d="M 12.089844 28.753906 L 12.480469 28.753906 L 12.578125 29.050781 L 12.871094 29.25 L 12.675781 29.347656 C 12.476562 29.222656 12.28125 29.089844 12.089844 28.953125 Z M 12.089844 28.753906 "/>
<path style=" stroke:none;fill-rule:nonzero;fill:rgb(99.215686%,93.725491%,74.901962%);fill-opacity:1;" d="M 16.28125 13.429688 C 16.628906 13.617188 16.824219 13.746094 16.964844 14.128906 C 16.734375 14.058594 16.734375 14.058594 16.476562 13.929688 C 16.347656 13.667969 16.347656 13.667969 16.28125 13.429688 "/>
<path style=" stroke:none;fill-rule:nonzero;fill:rgb(76.078433%,54.11765%,1.960784%);fill-opacity:1;" d="M 21.253906 7.261719 L 21.644531 7.460938 L 21.449219 7.5625 L 21.839844 7.761719 L 21.15625 7.761719 Z M 21.253906 7.261719 "/>
</g>
</svg>
