<?xml version="1.0" encoding="UTF-8"?>
<svg xmlns="http://www.w3.org/2000/svg" xmlns:xlink="http://www.w3.org/1999/xlink" width="51px" height="50px" viewBox="0 0 51 50" version="1.1">
<g id="surface1">
<path style=" stroke:none;fill-rule:nonzero;fill:rgb(99.215686%,71.372551%,1.176471%);fill-opacity:1;" d="M 28.519531 0.929688 C 29.578125 1.714844 30.238281 2.839844 30.519531 4.121094 C 30.75 5.6875 30.484375 7.105469 29.546875 8.386719 C 29.132812 8.925781 28.601562 9.296875 28.050781 9.695312 L 28.539062 9.804688 C 32.890625 10.832031 36.742188 13.039062 39.171875 16.894531 C 40.21875 18.664062 40.90625 20.429688 41.308594 22.449219 L 41.539062 22.1875 L 41.84375 21.84375 L 42.144531 21.503906 C 43.152344 20.445312 44.347656 19.914062 45.796875 19.851562 C 47.265625 19.886719 48.523438 20.429688 49.597656 21.429688 C 50.703125 22.707031 51.09375 24.09375 51 25.765625 C 50.855469 27.125 50.144531 28.355469 49.085938 29.210938 C 47.765625 30.199219 46.371094 30.398438 44.753906 30.230469 C 43.207031 29.914062 42.195312 28.933594 41.308594 27.679688 L 41.257812 27.890625 C 40.84375 29.496094 40.351562 30.960938 39.523438 32.398438 L 39.300781 32.785156 C 37.25 36.15625 33.871094 38.785156 30.019531 39.75 C 29.324219 39.910156 28.625 40.046875 27.921875 40.179688 L 28.140625 40.332031 C 29.46875 41.308594 30.328125 42.484375 30.601562 44.132812 C 30.722656 45.644531 30.378906 47 29.453125 48.214844 C 28.484375 49.253906 27.367188 49.910156 25.9375 50.042969 C 24.28125 50.058594 22.945312 49.664062 21.710938 48.523438 C 20.683594 47.410156 20.335938 46.136719 20.273438 44.644531 C 20.34375 43.140625 20.949219 41.835938 22.058594 40.816406 C 22.382812 40.582031 22.722656 40.367188 23.078125 40.179688 L 22.675781 40.09375 C 18.410156 39.164062 14.585938 36.945312 12.140625 33.238281 C 11.007812 31.4375 10.3125 29.480469 9.816406 27.421875 L 9.652344 27.675781 C 8.757812 29.011719 7.734375 29.894531 6.136719 30.277344 C 4.554688 30.535156 3.105469 30.105469 1.808594 29.195312 C 0.867188 28.375 0.203125 27.25 0 26.019531 C -0.101562 24.449219 0.09375 23.222656 1.019531 21.9375 L 1.308594 21.539062 C 2.386719 20.410156 3.648438 19.972656 5.183594 19.890625 C 6.589844 19.914062 7.804688 20.460938 8.816406 21.4375 C 9.210938 21.875 9.519531 22.320312 9.816406 22.832031 L 9.867188 22.609375 C 10.46875 19.878906 10.46875 19.878906 11.09375 18.621094 L 11.308594 18.167969 C 12.554688 15.652344 14.484375 13.632812 16.828125 12.117188 L 17.253906 11.84375 C 18.839844 10.882812 20.589844 10.246094 22.40625 9.886719 C 22.6875 9.851562 22.6875 9.851562 22.824219 9.695312 L 22.625 9.558594 C 21.414062 8.6875 20.597656 7.667969 20.3125 6.175781 C 20.101562 4.558594 20.429688 3.09375 21.421875 1.785156 C 23.304688 -0.308594 26.183594 -0.5625 28.519531 0.929688 "/>
<path style=" stroke:none;fill-rule:nonzero;fill:rgb(92.156863%,11.372549%,14.901961%);fill-opacity:1;" d="M 36.59375 13.902344 C 39.222656 15.890625 40.683594 19.308594 41.308594 22.449219 L 41.539062 22.1875 L 41.84375 21.84375 L 42.144531 21.503906 C 43.152344 20.445312 44.347656 19.914062 45.796875 19.851562 C 47.265625 19.886719 48.523438 20.429688 49.597656 21.429688 C 50.703125 22.707031 51.09375 24.09375 51 25.765625 C 50.855469 27.125 50.144531 28.355469 49.085938 29.210938 C 47.765625 30.199219 46.371094 30.398438 44.753906 30.230469 C 43.207031 29.914062 42.195312 28.933594 41.308594 27.679688 L 41.257812 27.890625 C 40.84375 29.496094 40.351562 30.960938 39.523438 32.398438 L 39.300781 32.785156 C 38.558594 34.003906 37.691406 35.0625 36.59375 35.96875 L 36.492188 35.523438 C 35.992188 33.394531 35.1875 31.066406 33.566406 29.507812 C 33.40625 29.335938 33.40625 29.335938 33.40625 29.082031 C 33.328125 29.046875 33.253906 29.015625 33.175781 28.980469 C 32.882812 28.820312 32.71875 28.664062 32.496094 28.421875 C 31.695312 27.59375 30.746094 27.011719 29.707031 26.53125 L 29.707031 26.277344 L 29.4375 26.207031 C 28.328125 25.910156 28.328125 25.910156 27.804688 25.703125 C 27.140625 25.441406 26.445312 25.289062 25.753906 25.128906 C 26.109375 24.933594 26.433594 24.820312 26.828125 24.734375 C 28.039062 24.464844 29.070312 24.207031 30.089844 23.46875 L 30.398438 23.285156 C 31.003906 22.917969 31.5625 22.492188 32.128906 22.066406 L 32.371094 21.890625 C 34.65625 20.105469 35.820312 17.230469 36.367188 14.476562 C 36.464844 14.03125 36.464844 14.03125 36.59375 13.902344 "/>
<path style=" stroke:none;fill-rule:nonzero;fill:rgb(42.745098%,83.529413%,0.392157%);fill-opacity:1;" d="M 14.152344 14.285156 C 14.472656 14.609375 14.476562 14.804688 14.558594 15.25 C 15.035156 17.414062 16.089844 19.203125 17.46875 20.917969 L 17.753906 21.300781 C 17.96875 21.589844 17.96875 21.589844 18.359375 21.683594 L 18.582031 21.96875 C 19.144531 22.65625 19.890625 23.046875 20.664062 23.453125 C 20.910156 23.597656 20.910156 23.597656 21.164062 23.851562 C 21.988281 24.214844 22.855469 24.410156 23.726562 24.621094 C 24.195312 24.734375 24.65625 24.863281 25.117188 25 L 25.117188 25.253906 L 24.640625 25.285156 C 23.34375 25.4375 22.210938 25.980469 21.070312 26.578125 C 20.421875 26.914062 20.421875 26.914062 20.144531 26.914062 L 20.144531 27.167969 L 19.738281 27.40625 C 17.839844 28.5625 16.289062 30.488281 15.425781 32.527344 L 15.292969 32.820312 C 14.894531 33.753906 14.652344 34.730469 14.40625 35.714844 C 11.769531 33.636719 10.628906 30.5625 9.816406 27.421875 L 9.652344 27.675781 C 8.757812 29.011719 7.734375 29.894531 6.136719 30.277344 C 4.554688 30.535156 3.105469 30.105469 1.808594 29.195312 C 0.867188 28.375 0.203125 27.25 0 26.019531 C -0.101562 24.449219 0.09375 23.222656 1.019531 21.9375 L 1.308594 21.539062 C 2.386719 20.410156 3.648438 19.972656 5.183594 19.890625 C 6.589844 19.914062 7.804688 20.460938 8.816406 21.4375 C 9.210938 21.875 9.519531 22.320312 9.816406 22.832031 L 9.867188 22.609375 C 10.46875 19.878906 10.46875 19.878906 11.09375 18.621094 L 11.308594 18.167969 C 12.035156 16.703125 12.980469 15.421875 14.152344 14.285156 "/>
<path style=" stroke:none;fill-rule:nonzero;fill:rgb(80.000001%,51.372552%,0.392157%);fill-opacity:1;" d="M 25.371094 25.382812 L 25.5 25.382812 L 25.589844 25.738281 C 26.117188 27.792969 26.769531 29.554688 28.035156 31.265625 L 28.226562 31.523438 C 30.210938 34.152344 33.132812 35.65625 36.335938 36.222656 C 34.132812 38.527344 30.972656 39.601562 27.921875 40.179688 L 28.140625 40.332031 C 29.46875 41.308594 30.328125 42.484375 30.601562 44.132812 C 30.722656 45.644531 30.378906 47 29.453125 48.214844 C 28.484375 49.253906 27.367188 49.910156 25.9375 50.042969 C 24.28125 50.058594 22.945312 49.664062 21.710938 48.523438 C 20.683594 47.410156 20.335938 46.136719 20.273438 44.644531 C 20.34375 43.140625 20.949219 41.835938 22.058594 40.816406 C 22.382812 40.582031 22.722656 40.367188 23.078125 40.179688 L 22.675781 40.09375 C 19.867188 39.480469 17.222656 38.398438 15.046875 36.480469 L 14.917969 36.222656 L 15.355469 36.117188 C 16.535156 35.8125 17.582031 35.453125 18.648438 34.867188 C 18.996094 34.695312 18.996094 34.695312 19.378906 34.695312 L 19.378906 34.4375 C 19.585938 34.292969 19.800781 34.160156 20.015625 34.03125 C 21.128906 33.375 21.128906 33.375 21.929688 32.398438 L 22.183594 32.398438 L 22.28125 32.183594 C 22.472656 31.828125 22.710938 31.539062 22.964844 31.226562 C 24.257812 29.558594 25.027344 27.449219 25.371094 25.382812 "/>
<path style=" stroke:none;fill-rule:nonzero;fill:rgb(99.215686%,99.607843%,97.647059%);fill-opacity:1;" d="M 14.65625 14.023438 C 15.433594 14.078125 16.144531 14.230469 16.886719 14.460938 L 17.152344 14.542969 C 17.621094 14.695312 17.976562 14.871094 18.359375 15.179688 C 18.628906 15.300781 18.628906 15.300781 18.902344 15.394531 L 19.378906 15.5625 L 19.378906 15.816406 L 19.609375 15.847656 C 19.890625 15.945312 19.890625 15.945312 20.058594 16.175781 C 20.300781 16.488281 20.554688 16.632812 20.910156 16.808594 C 23.324219 18.277344 24.617188 21.386719 25.316406 23.988281 C 25.851562 26.316406 24.613281 28.828125 23.4375 30.769531 C 23.0625 31.339844 22.660156 31.902344 22.183594 32.398438 L 21.929688 32.398438 L 21.84375 32.617188 C 21.621094 33 21.34375 33.214844 20.996094 33.488281 L 20.632812 33.785156 C 19.761719 34.4375 19.761719 34.4375 19.378906 34.4375 L 19.378906 34.695312 C 17.992188 35.445312 16.398438 36.222656 14.789062 36.222656 C 14.5625 36.074219 14.5625 36.074219 14.40625 35.84375 C 14.414062 35.363281 14.550781 34.902344 14.664062 34.4375 L 14.730469 34.136719 C 15.425781 31.4375 17.367188 28.863281 19.636719 27.296875 C 19.929688 27.199219 19.929688 27.199219 20.144531 27.167969 L 20.144531 26.914062 C 20.464844 26.75 20.789062 26.589844 21.109375 26.425781 L 21.382812 26.289062 C 22.613281 25.671875 23.714844 25.199219 25.117188 25.253906 L 25.117188 25 L 24.734375 24.949219 C 23.167969 24.726562 21.621094 24.328125 20.351562 23.359375 C 20.125 23.191406 20.125 23.191406 19.769531 23.039062 C 19.234375 22.753906 18.777344 22.378906 18.359375 21.9375 L 18.359375 21.683594 L 18.140625 21.660156 C 17.496094 21.429688 17.101562 20.679688 16.703125 20.152344 L 16.460938 19.84375 C 15.269531 18.242188 14.378906 16.160156 14.28125 14.15625 C 14.40625 14.03125 14.40625 14.03125 14.65625 14.023438 "/>
<path style=" stroke:none;fill-rule:nonzero;fill:rgb(99.607843%,98.431373%,97.647059%);fill-opacity:1;" d="M 25.5 25.253906 C 26.796875 25.179688 27.902344 25.480469 29.070312 26.019531 C 29.28125 26.105469 29.496094 26.191406 29.707031 26.277344 L 29.707031 26.53125 L 29.972656 26.558594 C 30.457031 26.6875 30.8125 26.945312 31.214844 27.238281 L 31.453125 27.414062 C 32.078125 27.875 32.621094 28.382812 33.148438 28.953125 L 33.476562 29.265625 C 35.097656 30.96875 36.46875 33.441406 36.617188 35.835938 C 36.59375 36.097656 36.59375 36.097656 36.464844 36.222656 C 34.160156 36.1875 31.808594 35.019531 30.089844 33.546875 L 29.777344 33.285156 C 27.566406 31.375 26.148438 28.855469 25.5 26.019531 C 25.492188 25.765625 25.488281 25.511719 25.5 25.253906 "/>
<path style=" stroke:none;fill-rule:nonzero;fill:rgb(99.607843%,98.823529%,97.647059%);fill-opacity:1;" d="M 36.082031 13.648438 L 36.59375 13.777344 C 36.003906 17.199219 34.671875 20.320312 31.820312 22.464844 C 31.582031 22.628906 31.347656 22.792969 31.109375 22.960938 C 31.003906 23.046875 30.898438 23.132812 30.789062 23.21875 C 30.464844 23.476562 30.136719 23.671875 29.769531 23.867188 L 29.417969 24.058594 C 28.746094 24.398438 28.082031 24.589844 27.355469 24.761719 C 27.261719 24.785156 27.167969 24.808594 27.070312 24.832031 C 26.535156 24.957031 26.054688 25.027344 25.5 25 C 25.625 22.269531 26.976562 19.90625 28.6875 17.855469 L 28.96875 17.488281 C 29.386719 16.988281 29.902344 16.628906 30.433594 16.253906 L 30.746094 16.03125 C 31.804688 15.289062 32.839844 14.800781 34.058594 14.375 L 34.347656 14.269531 C 34.996094 14.054688 35.53125 13.996094 36.210938 14.03125 Z M 36.082031 13.648438 "/>
<path style=" stroke:none;fill-rule:nonzero;fill:rgb(99.215686%,94.509804%,72.941178%);fill-opacity:1;" d="M 14.65625 14.023438 C 15.433594 14.078125 16.144531 14.230469 16.886719 14.460938 L 17.152344 14.542969 C 17.621094 14.695312 17.976562 14.871094 18.359375 15.179688 C 18.628906 15.300781 18.628906 15.300781 18.902344 15.394531 L 19.378906 15.5625 L 19.378906 15.816406 L 18.996094 15.816406 L 18.996094 15.5625 L 18.753906 15.511719 L 18.441406 15.441406 L 18.125 15.375 C 17.851562 15.304688 17.851562 15.304688 17.59375 15.179688 L 17.59375 14.921875 C 17.34375 14.96875 17.34375 14.96875 17.085938 15.050781 L 16.957031 15.304688 L 16.703125 15.304688 L 16.703125 14.796875 C 16.007812 14.511719 15.410156 14.351562 14.664062 14.285156 L 14.535156 15.304688 L 14.40625 15.304688 C 14.382812 15.117188 14.359375 14.929688 14.335938 14.738281 L 14.296875 14.421875 L 14.28125 14.15625 C 14.40625 14.03125 14.40625 14.03125 14.65625 14.023438 "/>
<path style=" stroke:none;fill-rule:nonzero;fill:rgb(89.019608%,67.843139%,7.058824%);fill-opacity:1;" d="M 21.421875 10.332031 C 21.195312 10.652344 21.195312 10.652344 20.910156 10.96875 L 20.398438 10.96875 L 20.398438 10.714844 L 20.027344 10.945312 C 18.738281 11.679688 18.738281 11.679688 18.070312 11.554688 L 17.851562 11.480469 C 20.84375 10.140625 20.84375 10.140625 21.421875 10.332031 "/>
<path style=" stroke:none;fill-rule:nonzero;fill:rgb(95.686275%,72.549021%,15.686275%);fill-opacity:1;" d="M 24.609375 21.8125 L 24.863281 21.8125 L 24.941406 22.078125 L 25.046875 22.425781 L 25.148438 22.769531 C 25.21875 23.003906 25.296875 23.238281 25.371094 23.46875 L 25.628906 23.46875 L 25.628906 22.832031 L 25.882812 22.832031 L 25.5 25 L 26.011719 25.253906 L 25.371094 25.382812 L 25.335938 25.078125 C 25.207031 24.148438 25.003906 23.285156 24.710938 22.394531 C 24.609375 22.066406 24.609375 22.066406 24.609375 21.8125 "/>
<path style=" stroke:none;fill-rule:nonzero;fill:rgb(76.47059%,53.725493%,14.117648%);fill-opacity:1;" d="M 18.105469 35.332031 L 18.105469 35.585938 L 17.886719 35.632812 L 17.601562 35.699219 L 17.320312 35.761719 C 17.058594 35.820312 17.058594 35.820312 16.957031 36.097656 C 16.660156 36.148438 16.363281 36.191406 16.066406 36.222656 L 15.808594 36.988281 C 15.0625 36.511719 15.0625 36.511719 14.917969 36.222656 L 15.398438 36.09375 L 16.023438 35.921875 L 16.339844 35.835938 C 16.898438 35.683594 17.535156 35.332031 18.105469 35.332031 "/>
<path style=" stroke:none;fill-rule:nonzero;fill:rgb(94.901961%,71.372551%,14.901961%);fill-opacity:1;" d="M 15.046875 13.394531 L 15.171875 13.777344 L 15.808594 13.777344 L 15.808594 14.03125 L 16.703125 14.15625 L 16.703125 14.414062 L 17.46875 14.414062 L 17.46875 14.667969 L 17.851562 14.796875 C 17.238281 14.703125 16.648438 14.570312 16.050781 14.421875 L 15.777344 14.355469 C 15.335938 14.246094 14.929688 14.132812 14.535156 13.902344 Z M 15.046875 13.394531 "/>
<path style=" stroke:none;fill-rule:nonzero;fill:rgb(52.549022%,83.92157%,19.215687%);fill-opacity:1;" d="M 15.300781 32.144531 L 15.554688 32.269531 C 15.515625 32.359375 15.476562 32.445312 15.433594 32.539062 C 14.980469 33.578125 14.675781 34.617188 14.40625 35.714844 L 13.769531 35.078125 L 14.28125 35.078125 L 14.382812 34.632812 L 14.519531 34.0625 L 14.585938 33.773438 C 14.644531 33.523438 14.71875 33.28125 14.789062 33.035156 L 15.046875 32.90625 C 15.136719 32.65625 15.222656 32.402344 15.300781 32.144531 "/>
<path style=" stroke:none;fill-rule:nonzero;fill:rgb(77.64706%,55.29412%,13.333334%);fill-opacity:1;" d="M 25.371094 25.382812 L 25.5 25.382812 L 26.011719 27.550781 L 25.753906 27.550781 L 25.628906 27.039062 L 24.988281 27.296875 Z M 25.371094 25.382812 "/>
<path style=" stroke:none;fill-rule:nonzero;fill:rgb(51.372552%,81.568629%,22.745098%);fill-opacity:1;" d="M 22.695312 24.488281 C 23.25 24.578125 23.792969 24.6875 24.335938 24.816406 L 24.78125 24.921875 L 25.117188 25 L 25.117188 25.253906 L 23.714844 25.382812 L 23.714844 25 L 23.277344 24.886719 L 22.824219 24.746094 Z M 22.695312 24.488281 "/>
<path style=" stroke:none;fill-rule:nonzero;fill:rgb(96.470588%,84.313726%,73.725492%);fill-opacity:1;" d="M 36.335938 34.820312 L 36.464844 34.820312 C 36.488281 35.03125 36.511719 35.242188 36.535156 35.453125 L 36.578125 35.804688 L 36.59375 36.097656 L 36.464844 36.222656 C 35.714844 36.207031 35.007812 36.074219 34.296875 35.84375 C 34.730469 35.703125 35.089844 35.722656 35.539062 35.769531 L 35.921875 35.808594 L 36.210938 35.84375 Z M 36.335938 34.820312 "/>
<path style=" stroke:none;fill-rule:nonzero;fill:rgb(98.431373%,92.156863%,80.784315%);fill-opacity:1;" d="M 16.957031 35.203125 L 18.105469 35.203125 C 17.757812 35.550781 17.355469 35.648438 16.902344 35.792969 L 16.636719 35.882812 C 16.261719 36.007812 15.953125 36.097656 15.554688 36.097656 L 15.554688 35.84375 L 15.828125 35.765625 L 16.183594 35.667969 L 16.539062 35.566406 C 16.851562 35.488281 16.851562 35.488281 16.957031 35.203125 "/>
<path style=" stroke:none;fill-rule:nonzero;fill:rgb(81.568629%,15.294118%,18.82353%);fill-opacity:1;" d="M 36.335938 34.4375 L 36.59375 34.4375 L 36.59375 35.078125 L 37.359375 35.203125 L 36.71875 35.96875 C 36.414062 35.480469 36.394531 35 36.335938 34.4375 "/>
<path style=" stroke:none;fill-rule:nonzero;fill:rgb(74.901962%,55.29412%,9.411765%);fill-opacity:1;" d="M 27.796875 31.121094 C 28.296875 31.59375 28.679688 32.085938 29.070312 32.652344 L 28.816406 32.78125 L 28.558594 32.398438 L 28.304688 32.351562 C 28.050781 32.269531 28.050781 32.269531 27.890625 31.976562 C 27.796875 31.632812 27.796875 31.632812 27.796875 31.121094 "/>
<path style=" stroke:none;fill-rule:nonzero;fill:rgb(83.137256%,96.078432%,67.058825%);fill-opacity:1;" d="M 24.988281 25.253906 C 24.558594 25.542969 24.316406 25.652344 23.8125 25.703125 C 23.351562 25.75 22.894531 25.8125 22.441406 25.894531 C 23.082031 25.25 24.128906 25.207031 24.988281 25.253906 "/>
<path style=" stroke:none;fill-rule:nonzero;fill:rgb(96.862745%,77.254903%,27.843139%);fill-opacity:1;" d="M 19.378906 15.6875 L 20.273438 15.816406 L 20.359375 16.121094 C 20.5 16.480469 20.5 16.480469 20.863281 16.621094 L 21.164062 16.710938 L 21.039062 16.964844 C 20.871094 16.867188 20.703125 16.769531 20.535156 16.667969 L 20.253906 16.503906 C 20.015625 16.328125 20.015625 16.328125 19.890625 15.945312 C 19.636719 15.789062 19.636719 15.789062 19.378906 15.6875 "/>
<path style=" stroke:none;fill-rule:nonzero;fill:rgb(99.215686%,94.117647%,79.215688%);fill-opacity:1;" d="M 25.882812 22.703125 C 26.015625 23.121094 26.003906 23.453125 25.953125 23.882812 L 25.914062 24.230469 L 25.882812 24.488281 L 25.628906 24.488281 L 25.628906 24.871094 L 26.265625 24.871094 L 26.265625 25 L 25.5 25 C 25.5625 24.207031 25.671875 23.46875 25.882812 22.703125 "/>
<path style=" stroke:none;fill-rule:nonzero;fill:rgb(99.607843%,94.901961%,72.549021%);fill-opacity:1;" d="M 36.210938 14.03125 C 35.796875 14.257812 35.390625 14.382812 34.933594 14.5 L 34.535156 14.605469 C 34.183594 14.667969 33.992188 14.660156 33.660156 14.539062 C 34.53125 14.214844 35.273438 13.957031 36.210938 14.03125 "/>
<path style=" stroke:none;fill-rule:nonzero;fill:rgb(92.156863%,98.039216%,82.352942%);fill-opacity:1;" d="M 18.105469 28.570312 L 18.359375 29.082031 L 18.105469 29.082031 L 18.105469 29.335938 L 17.851562 29.335938 L 17.851562 29.59375 L 17.210938 29.71875 C 17.460938 29.269531 17.726562 28.921875 18.105469 28.570312 "/>
<path style=" stroke:none;fill-rule:nonzero;fill:rgb(77.254903%,9.411765%,12.156863%);fill-opacity:1;" d="M 45.136719 19.898438 C 45.355469 19.894531 45.574219 19.890625 45.796875 19.890625 L 46.167969 19.886719 C 46.519531 19.898438 46.832031 19.945312 47.175781 20.027344 L 47.175781 20.28125 L 46.027344 20.40625 L 46.027344 20.152344 L 45.136719 20.027344 Z M 45.136719 19.898438 "/>
<path style=" stroke:none;fill-rule:nonzero;fill:rgb(77.254903%,51.764709%,8.627451%);fill-opacity:1;" d="M 30.089844 33.671875 C 30.6875 33.871094 31.121094 34.195312 31.621094 34.566406 C 31.304688 34.722656 31.074219 34.703125 30.726562 34.695312 L 30.601562 34.054688 L 30.089844 33.929688 Z M 30.089844 33.671875 "/>
<path style=" stroke:none;fill-rule:nonzero;fill:rgb(92.54902%,72.549021%,36.078432%);fill-opacity:1;" d="M 25.117188 23.34375 L 25.628906 23.722656 C 25.648438 24.039062 25.648438 24.039062 25.59375 24.386719 L 25.546875 24.734375 C 25.53125 24.820312 25.515625 24.910156 25.5 25 L 26.011719 25.253906 L 25.371094 25.382812 Z M 25.117188 23.34375 "/>
<path style=" stroke:none;fill-rule:nonzero;fill:rgb(99.607843%,96.078432%,78.039217%);fill-opacity:1;" d="M 33.660156 14.667969 L 33.53125 15.304688 L 33.277344 15.179688 C 33.082031 15.191406 32.882812 15.210938 32.6875 15.234375 L 32.371094 15.273438 L 32.128906 15.304688 C 32.574219 14.929688 33.066406 14.667969 33.660156 14.667969 "/>
<path style=" stroke:none;fill-rule:nonzero;fill:rgb(96.078432%,94.117647%,70.980394%);fill-opacity:1;" d="M 25.117188 23.722656 C 25.386719 24.261719 25.398438 24.507812 25.386719 25.09375 L 25.382812 25.546875 L 25.371094 25.894531 L 25.246094 25.894531 L 25.117188 25 L 24.609375 24.871094 L 25.117188 24.871094 Z M 25.117188 23.722656 "/>
<path style=" stroke:none;fill-rule:nonzero;fill:rgb(85.09804%,22.352941%,27.450982%);fill-opacity:1;" d="M 27.285156 25.128906 L 27.285156 25.382812 C 27.078125 25.367188 26.871094 25.351562 26.664062 25.335938 C 26.546875 25.324219 26.433594 25.316406 26.3125 25.308594 C 26.011719 25.253906 26.011719 25.253906 25.753906 25 C 26.285156 24.816406 26.785156 24.878906 27.285156 25.128906 "/>
<path style=" stroke:none;fill-rule:nonzero;fill:rgb(31.37255%,66.274512%,0.784314%);fill-opacity:1;" d="M 5.59375 19.953125 L 6.039062 19.992188 L 6.375 20.027344 L 6.375 20.152344 C 5.539062 20.253906 4.785156 20.292969 3.953125 20.152344 L 3.953125 20.027344 C 4.519531 19.910156 5.015625 19.902344 5.59375 19.953125 "/>
<path style=" stroke:none;fill-rule:nonzero;fill:rgb(99.215686%,94.117647%,82.745099%);fill-opacity:1;" d="M 23.078125 30.738281 L 23.332031 30.867188 L 22.441406 32.015625 C 22.3125 31.632812 22.3125 31.632812 22.433594 31.355469 C 22.476562 31.277344 22.519531 31.199219 22.566406 31.121094 L 22.824219 31.25 L 22.824219 30.996094 L 23.078125 30.996094 Z M 23.078125 30.738281 "/>
<path style=" stroke:none;fill-rule:nonzero;fill:rgb(79.215688%,10.588235%,14.117648%);fill-opacity:1;" d="M 43.859375 20.28125 L 44.113281 20.40625 L 43.734375 20.535156 L 43.734375 20.789062 L 43.351562 20.789062 L 43.351562 21.171875 L 42.710938 21.046875 C 43.039062 20.667969 43.402344 20.476562 43.859375 20.28125 "/>
<path style=" stroke:none;fill-rule:nonzero;fill:rgb(93.333334%,75.686276%,28.235295%);fill-opacity:1;" d="M 35.828125 13.394531 L 36.210938 13.519531 L 36.210938 14.03125 L 34.679688 14.15625 L 34.679688 13.902344 L 35.953125 13.902344 Z M 35.828125 13.394531 "/>
<path style=" stroke:none;fill-rule:nonzero;fill:rgb(94.901961%,68.235296%,6.27451%);fill-opacity:1;" d="M 21.421875 10.332031 C 21.195312 10.652344 21.195312 10.652344 20.910156 10.96875 L 20.398438 10.96875 L 20.398438 10.714844 L 20.65625 10.714844 L 20.65625 10.332031 C 21.039062 10.203125 21.039062 10.203125 21.421875 10.332031 "/>
<path style=" stroke:none;fill-rule:nonzero;fill:rgb(74.509805%,51.764709%,1.960784%);fill-opacity:1;" d="M 21.929688 32.527344 L 22.183594 32.527344 C 22.113281 32.941406 21.992188 33.140625 21.675781 33.417969 L 21.292969 33.289062 C 21.5 33.03125 21.710938 32.773438 21.929688 32.527344 "/>
<path style=" stroke:none;fill-rule:nonzero;fill:rgb(89.411765%,98.431373%,76.47059%);fill-opacity:1;" d="M 15.683594 31.761719 L 15.808594 31.761719 L 15.683594 32.652344 L 15.425781 32.652344 L 15.425781 33.289062 L 15.046875 33.417969 C 15.101562 33.238281 15.160156 33.058594 15.21875 32.875 L 15.320312 32.570312 C 15.421875 32.289062 15.542969 32.027344 15.683594 31.761719 "/>
<path style=" stroke:none;fill-rule:nonzero;fill:rgb(61.56863%,88.235295%,34.901962%);fill-opacity:1;" d="M 22.695312 24.488281 C 23.339844 24.589844 23.972656 24.726562 24.609375 24.871094 C 24.222656 24.988281 23.910156 25.007812 23.507812 24.96875 L 23.207031 24.941406 C 22.949219 24.871094 22.949219 24.871094 22.695312 24.488281 "/>
<path style=" stroke:none;fill-rule:nonzero;fill:rgb(39.215687%,80.392158%,2.352941%);fill-opacity:1;" d="M 1.65625 21.171875 L 2.039062 21.300781 L 2.039062 21.683594 L 1.273438 21.9375 C 1.347656 21.574219 1.386719 21.445312 1.65625 21.171875 "/>
<path style=" stroke:none;fill-rule:nonzero;fill:rgb(51.372552%,81.960785%,16.862746%);fill-opacity:1;" d="M 14.40625 15.304688 C 14.9375 16.328125 14.9375 16.328125 14.871094 16.75 L 14.789062 16.964844 C 14.269531 16.285156 14.269531 16.285156 14.335938 15.738281 Z M 14.40625 15.304688 "/>
<path style=" stroke:none;fill-rule:nonzero;fill:rgb(73.333335%,51.764709%,5.882353%);fill-opacity:1;" d="M 21.546875 8.546875 C 22.152344 8.785156 22.152344 8.785156 22.441406 8.929688 L 22.441406 9.183594 L 22.824219 9.3125 L 22.566406 9.566406 C 22.398438 9.421875 22.226562 9.273438 22.058594 9.128906 L 21.769531 8.882812 L 21.546875 8.671875 Z M 21.546875 8.546875 "/>
<path style=" stroke:none;fill-rule:nonzero;fill:rgb(99.607843%,95.686275%,85.490197%);fill-opacity:1;" d="M 24.480469 27.296875 L 24.609375 27.550781 L 24.863281 27.550781 L 24.480469 28.828125 L 24.351562 28.828125 Z M 24.480469 27.296875 "/>
<path style=" stroke:none;fill-rule:nonzero;fill:rgb(38.431373%,77.254903%,3.529412%);fill-opacity:1;" d="M 1.019531 21.9375 C 1.019531 22.3125 1.003906 22.601562 0.890625 22.960938 C 0.628906 23.125 0.628906 23.125 0.382812 23.214844 C 0.53125 22.714844 0.683594 22.335938 1.019531 21.9375 "/>
<path style=" stroke:none;fill-rule:nonzero;fill:rgb(84.313726%,23.921569%,25.882354%);fill-opacity:1;" d="M 30.472656 26.785156 C 31.078125 26.839844 31.355469 26.957031 31.746094 27.421875 L 31.621094 27.679688 C 31.429688 27.554688 31.238281 27.429688 31.046875 27.304688 L 30.722656 27.09375 L 30.472656 26.914062 Z M 30.472656 26.785156 "/>
<path style=" stroke:none;fill-rule:nonzero;fill:rgb(95.686275%,72.549021%,14.117648%);fill-opacity:1;" d="M 31.109375 15.433594 L 31.621094 15.5625 L 30.726562 16.199219 L 30.601562 15.6875 L 30.855469 15.5625 L 31.109375 15.6875 Z M 31.109375 15.433594 "/>
<path style=" stroke:none;fill-rule:nonzero;fill:rgb(87.843138%,65.490198%,5.098039%);fill-opacity:1;" d="M 30.984375 10.585938 C 31.542969 10.671875 32 10.867188 32.511719 11.097656 L 32.511719 11.222656 L 31.746094 11.222656 L 31.746094 10.96875 L 31.507812 10.921875 C 31.238281 10.84375 31.238281 10.84375 30.984375 10.585938 "/>
<path style=" stroke:none;fill-rule:nonzero;fill:rgb(78.039217%,58.039218%,16.078432%);fill-opacity:1;" d="M 19.890625 34.3125 L 19.890625 34.695312 C 19.570312 34.910156 19.570312 34.910156 19.253906 35.078125 L 18.871094 34.820312 L 19.378906 34.695312 L 19.378906 34.4375 C 19.636719 34.3125 19.636719 34.3125 19.890625 34.3125 "/>
<path style=" stroke:none;fill-rule:nonzero;fill:rgb(98.039216%,92.54902%,77.254903%);fill-opacity:1;" d="M 21.292969 32.652344 L 21.800781 32.78125 L 20.78125 33.546875 C 20.945312 32.898438 20.945312 32.898438 21.292969 32.652344 "/>
<path style=" stroke:none;fill-rule:nonzero;fill:rgb(72.549021%,54.901963%,15.294118%);fill-opacity:1;" d="M 25.371094 25.382812 L 25.5 25.382812 L 25.628906 26.53125 L 25.246094 26.65625 Z M 25.371094 25.382812 "/>
<path style=" stroke:none;fill-rule:nonzero;fill:rgb(90.588236%,97.254902%,82.745099%);fill-opacity:1;" d="M 14.40625 14.03125 C 14.671875 14.085938 14.671875 14.085938 14.917969 14.15625 L 14.664062 14.285156 C 14.601562 14.527344 14.601562 14.527344 14.582031 14.804688 L 14.535156 15.304688 L 14.40625 15.304688 C 14.382812 15.117188 14.359375 14.929688 14.335938 14.738281 L 14.296875 14.421875 L 14.28125 14.15625 Z M 14.40625 14.03125 "/>
<path style=" stroke:none;fill-rule:nonzero;fill:rgb(79.215688%,51.764709%,8.627451%);fill-opacity:1;" d="M 33.914062 35.714844 L 34.679688 35.84375 L 34.679688 36.222656 L 34.042969 36.351562 Z M 33.914062 35.714844 "/>
<path style=" stroke:none;fill-rule:nonzero;fill:rgb(97.647059%,88.627452%,69.803923%);fill-opacity:1;" d="M 32.894531 35.203125 L 34.171875 35.332031 L 34.171875 35.714844 L 32.894531 35.332031 Z M 32.894531 35.203125 "/>
<path style=" stroke:none;fill-rule:nonzero;fill:rgb(86.666667%,11.764706%,10.196079%);fill-opacity:1;" d="M 50.488281 23.214844 L 50.746094 23.34375 C 50.824219 23.605469 50.824219 23.605469 50.871094 23.851562 L 50.234375 23.980469 C 50.347656 23.359375 50.347656 23.359375 50.488281 23.214844 "/>
<path style=" stroke:none;fill-rule:nonzero;fill:rgb(86.666667%,10.588235%,12.941177%);fill-opacity:1;" d="M 49.34375 21.300781 L 49.726562 21.683594 C 49.558594 21.859375 49.390625 22.027344 49.214844 22.195312 L 48.960938 22.195312 L 48.960938 21.8125 L 49.214844 21.8125 Z M 49.34375 21.300781 "/>
<path style=" stroke:none;fill-rule:nonzero;fill:rgb(83.92157%,19.607843%,25.098041%);fill-opacity:1;" d="M 35.828125 33.035156 L 36.082031 33.035156 C 36.425781 33.546875 36.355469 33.832031 36.335938 34.4375 C 36.085938 33.992188 35.960938 33.527344 35.828125 33.035156 "/>
<path style=" stroke:none;fill-rule:nonzero;fill:rgb(83.92157%,20.392157%,23.137255%);fill-opacity:1;" d="M 34.808594 18.878906 C 34.960938 19.339844 34.875 19.46875 34.679688 19.898438 L 34.296875 19.898438 C 34.441406 19.519531 34.582031 19.21875 34.808594 18.878906 "/>
<path style=" stroke:none;fill-rule:nonzero;fill:rgb(65.098041%,42.745098%,4.705882%);fill-opacity:1;" d="M 29.707031 42.21875 L 29.960938 42.21875 L 30.34375 43.113281 C 29.964844 42.984375 29.839844 42.890625 29.578125 42.601562 Z M 29.707031 42.21875 "/>
<path style=" stroke:none;fill-rule:nonzero;fill:rgb(72.156864%,48.235294%,1.568628%);fill-opacity:1;" d="M 15.808594 36.863281 L 16.320312 36.863281 L 16.449219 37.246094 L 16.828125 37.5 L 16.574219 37.628906 C 16.316406 37.464844 16.058594 37.292969 15.808594 37.117188 Z M 15.808594 36.863281 "/>
<path style=" stroke:none;fill-rule:nonzero;fill:rgb(99.215686%,93.725491%,74.901962%);fill-opacity:1;" d="M 21.292969 17.21875 C 21.746094 17.460938 22 17.625 22.183594 18.113281 C 21.882812 18.023438 21.882812 18.023438 21.546875 17.855469 C 21.378906 17.523438 21.378906 17.523438 21.292969 17.21875 "/>
<path style=" stroke:none;fill-rule:nonzero;fill:rgb(76.078433%,54.11765%,1.960784%);fill-opacity:1;" d="M 27.796875 9.3125 L 28.304688 9.566406 L 28.050781 9.695312 L 28.558594 9.949219 L 27.667969 9.949219 Z M 27.796875 9.3125 "/>
</g>
</svg>
