<?xml version="1.0" encoding="UTF-8"?>
<svg xmlns="http://www.w3.org/2000/svg" xmlns:xlink="http://www.w3.org/1999/xlink" width="16px" height="16px" viewBox="0 0 16 16" version="1.1">
<g id="surface1">
<path style=" stroke:none;fill-rule:nonzero;fill:rgb(100%,83.137256%,23.137255%);fill-opacity:1;" d="M 8 14.398438 C 4.464844 14.398438 1.601562 11.535156 1.601562 8 C 1.601562 4.464844 4.464844 1.601562 8 1.601562 C 11.535156 1.601562 14.398438 4.464844 14.398438 8 C 14.398438 11.535156 11.535156 14.398438 8 14.398438 Z M 10.949219 5.242188 C 10.683594 5.046875 10.308594 5.109375 10.113281 5.375 L 7.128906 9.480469 L 5.824219 8.175781 C 5.589844 7.941406 5.210938 7.941406 4.976562 8.175781 C 4.746094 8.414062 4.742188 8.792969 4.976562 9.023438 L 6.777344 10.824219 C 6.902344 10.949219 7.074219 11.011719 7.246094 11 C 7.421875 10.988281 7.582031 10.898438 7.683594 10.753906 L 11.082031 6.078125 C 11.277344 5.8125 11.21875 5.4375 10.949219 5.242188 Z M 10.949219 5.242188 "/>
</g>
</svg>
