<?xml version="1.0" encoding="utf-8"?>
<!-- Generator: Adobe Illustrator 26.0.1, SVG Export Plug-In . SVG Version: 6.00 Build 0)  -->
<svg version="1.1" xmlns="http://www.w3.org/2000/svg" xmlns:xlink="http://www.w3.org/1999/xlink" x="0px" y="0px"
	 viewBox="0 0 48 48" style="enable-background:new 0 0 48 48;" xml:space="preserve">
<style type="text/css">
	.st0{fill:#187BCD;}
	.st1{display:none;}
	.st2{display:inline;}
</style>
<g id="consultation">
	<g>
		<path class="st0" d="M15.02,15.49c1.09-0.03,2.15,0.1,3.2,0.37c0.37,0.1,0.5,0.05,0.53-0.38c0.39-6.55,4.99-11.91,11.43-13.19
			c8.23-1.63,15.57,3.95,16.86,11.53c0.66,3.89-0.15,7.46-2.4,10.7c-0.2,0.28-0.23,0.49-0.03,0.79c0.81,1.26,1.6,2.53,2.4,3.79
			c0.22,0.35,0.37,0.7,0.11,1.09c-0.27,0.4-0.67,0.39-1.09,0.29c-2.07-0.46-4.14-0.91-6.21-1.37c-0.26-0.06-0.48-0.04-0.72,0.07
			c-3.01,1.38-6.13,1.72-9.35,0.97c-0.38-0.09-0.48-0.01-0.49,0.38c-0.18,5.82-4.5,11.3-10.14,12.9c-3.43,0.97-6.78,0.76-10.03-0.72
			c-0.36-0.16-0.69-0.19-1.08-0.1c-1.97,0.45-3.95,0.88-5.93,1.33C1.81,44,1.55,44.05,1.29,43.97c-0.52-0.16-0.68-0.73-0.35-1.27
			c0.78-1.26,1.56-2.52,2.38-3.75c0.26-0.39,0.26-0.66-0.01-1.06c-4.05-5.89-3.25-13.61,1.93-18.51
			C7.97,16.79,11.26,15.51,15.02,15.49z M3.25,42.02c1.69-0.37,3.22-0.7,4.75-1.06c0.53-0.13,0.99-0.07,1.48,0.18
			c2.45,1.21,5.05,1.57,7.73,1.1c6.61-1.16,11.34-7.39,10.33-14.32c-1-6.85-7.49-11.91-14.75-10.63
			C6.47,18.39,2.01,24.13,2.38,30.36c0.16,2.63,1,4.99,2.59,7.09c0.6,0.79,0.61,0.89,0.07,1.74C4.47,40.09,3.89,41,3.25,42.02z
			 M44.63,28.52c0.01-0.23-0.12-0.34-0.2-0.47c-0.54-0.86-1.08-1.71-1.62-2.57c-0.33-0.52-0.31-0.81,0.05-1.28
			c2.26-2.89,3.16-6.15,2.64-9.78C44.44,7.04,37.12,2.07,29.69,4.03c-5.08,1.35-9.15,5.88-9.41,11.88c-0.02,0.42,0.11,0.63,0.5,0.81
			c4.71,2.21,7.5,5.9,8.34,11.03c0.08,0.49,0.26,0.68,0.72,0.78c3.04,0.71,5.97,0.44,8.79-0.93c0.38-0.19,0.75-0.25,1.17-0.15
			c0.8,0.2,1.61,0.36,2.42,0.54C43.01,28.17,43.82,28.34,44.63,28.52z"/>
		<path class="st0" d="M14.23,30.68c0-0.51,0-1.03,0-1.54c0.01-0.6,0.22-0.83,0.82-0.92c1.22-0.17,1.9-0.77,2.11-1.85
			c0.21-1.09-0.5-2.2-1.58-2.47c-1.16-0.29-2.39,0.34-2.64,1.47c-0.13,0.57-0.36,0.71-0.9,0.69c-0.88-0.04-0.91-0.05-0.71-0.91
			c0.43-1.83,2.01-2.98,3.98-2.91c1.67,0.06,3.16,1.43,3.45,3.16c0.3,1.77-0.73,3.56-2.44,4.16c-0.42,0.15-0.55,0.34-0.53,0.76
			c0.03,0.67,0,1.34,0.01,2.01c0.01,0.35-0.13,0.46-0.47,0.46c-1.31-0.03-1.08,0.15-1.1-1.08C14.23,31.36,14.23,31.02,14.23,30.68z"
			/>
		<path class="st0" d="M13.86,35.33c0.01-0.66,0.5-1.13,1.17-1.12c0.68,0.01,1.15,0.51,1.13,1.21c-0.02,0.65-0.52,1.12-1.19,1.1
			C14.32,36.5,13.85,36,13.86,35.33z"/>
		<path class="st0" d="M32.98,12.57c-1.82,0-3.65-0.01-5.47,0.01c-0.42,0-0.58-0.12-0.56-0.55c0.04-1.18-0.13-1.01,1.02-1.01
			C31.45,11,34.92,11.01,38.4,11c0.47,0,0.63,0.12,0.61,0.6c-0.04,1.11,0.12,0.96-0.98,0.97C36.35,12.58,34.66,12.57,32.98,12.57z"
			/>
		<path class="st0" d="M32.95,17.06c-1.81,0-3.62-0.01-5.42,0.01c-0.46,0.01-0.59-0.15-0.57-0.59c0.04-1.12-0.12-0.98,0.97-0.98
			c3.47-0.01,6.95,0,10.42,0c0.66,0,0.66,0,0.66,0.67c-0.01,0.99,0.1,0.88-0.86,0.89C36.4,17.06,34.68,17.06,32.95,17.06z"/>
		<path class="st0" d="M34.47,19.99c1.34,0,2.68,0.01,4.02-0.01c0.38,0,0.52,0.12,0.51,0.51c-0.03,1.24,0.13,1.06-1.02,1.06
			c-2.48,0.01-4.95-0.01-7.43,0.01c-0.47,0-0.63-0.12-0.61-0.6c0.04-1.11-0.12-0.96,0.98-0.97C32.11,19.98,33.29,19.99,34.47,19.99z
			"/>
	</g>
</g>
<g id="execution" class="st1">
	<g class="st2">
		<path class="st0" d="M20.56,3.65c5.96,0,11.93,0.02,17.89-0.02c1.32-0.01,2.41,0.73,2.43,2.27c0.01,0.96,0.06,1.92-0.04,2.88
			c-0.08,0.77-0.46,1.33-1.14,1.69c-0.34,0.18-0.51,0.75-0.35,1.1c0.08,0.17,0.23,0.16,0.38,0.17c0.98,0.09,1.16,0.29,1.19,1.26
			c0.01,0.25-0.12,0.59,0.13,0.75c0.35,0.21,0.75,0.34,1.14,0.49c0.1,0.04,0.18-0.06,0.25-0.13c0.13-0.12,0.26-0.25,0.4-0.38
			c0.7-0.65,0.99-0.64,1.66,0.03c0.56,0.56,1.13,1.12,1.68,1.69c0.43,0.45,0.43,0.84,0.01,1.31c-0.01,0.01-0.02,0.02-0.03,0.04
			c-0.69,0.75-0.71,1-0.2,1.88c0.12,0.2,0.28,0.19,0.47,0.2C48,18.93,48,18.93,48,20.5c0,0.65,0,1.29,0,1.94
			c-0.01,0.65-0.28,0.92-0.94,0.96c-0.02,0-0.03,0-0.05,0c-1.07,0.04-1.07,0.06-1.41,1.1c-0.08,0.26,0.03,0.42,0.19,0.57
			c1.17,1.06,0.8,1.43-0.1,2.28c-0.46,0.43-0.89,0.89-1.34,1.33c-0.47,0.46-0.8,0.46-1.3,0.04c-0.04-0.03-0.07-0.07-0.11-0.1
			c-0.75-0.66-0.91-0.67-1.79-0.16c-0.15,0.09-0.22,0.19-0.22,0.36c0,0.2-0.01,0.4-0.01,0.6c-0.02,0.8-0.27,1.06-1.07,1.12
			c-0.22,0.02-0.48-0.04-0.52,0.3c-0.04,0.32,0.09,0.47,0.4,0.57c0.95,0.31,1.39,0.93,1.4,1.93c0,0.43,0.01,0.86,0,1.29
			c-0.02,1.12-0.8,1.9-1.92,1.9c-2.67,0.01-5.34,0-8,0c-0.62,0-0.62,0-0.34,0.54c0.7,1.32,1.4,2.63,2.11,3.95
			c0.57,1.06,0.39,1.72-0.66,2.29c-0.58,0.32-1.17,0.62-1.75,0.93c-0.94,0.5-1.63,0.29-2.14-0.67c-1.16-2.18-2.33-4.35-3.47-6.54
			c-0.2-0.38-0.42-0.51-0.85-0.51c-2.37,0.02-4.74,0.02-7.11,0c-0.4,0-0.62,0.12-0.81,0.48c-1.18,2.24-2.38,4.48-3.57,6.71
			c-0.28,0.52-0.71,0.89-1.28,0.75c-1.22-0.29-2.32-0.89-3.25-1.72c-0.45-0.4-0.34-1-0.06-1.53c0.74-1.39,1.48-2.78,2.22-4.17
			c0.28-0.53,0.28-0.53-0.3-0.53c-2.63,0-5.27,0-7.9,0c-1.33,0-2.06-0.73-2.06-2.06c0-0.41,0-0.83,0-1.24
			c0.01-0.88,0.47-1.56,1.3-1.79c0.44-0.12,0.52-0.35,0.51-0.74c-0.01-6.51-0.01-13.02,0-19.53c0-0.36-0.09-0.56-0.43-0.73
			c-0.8-0.39-1.12-1.1-1.14-1.95c-0.02-0.88-0.03-1.76,0-2.63c0.05-1.4,0.88-2.2,2.28-2.2C8.53,3.64,14.55,3.65,20.56,3.65z
			 M20.57,31.31c5.53,0,11.07,0,16.6,0c0.17,0,0.33,0,0.5,0c0.23,0,0.31-0.11,0.33-0.34c0.03-0.38-0.18-0.43-0.49-0.44
			c-0.88-0.05-1.09-0.29-1.11-1.17c0-0.18,0-0.36-0.01-0.55c0-0.14-0.05-0.25-0.17-0.33c-0.78-0.52-1.18-0.49-1.88,0.16
			c-0.01,0.01-0.02,0.02-0.04,0.03c-0.5,0.46-0.89,0.46-1.38-0.02c-0.43-0.41-0.85-0.84-1.27-1.26c-1.17-1.17-1.17-1.17-0.09-2.39
			c0.11-0.12,0.23-0.22,0.18-0.43c-0.22-0.93-0.47-1.15-1.41-1.18c-0.73-0.03-1.03-0.31-1.05-1.03c-0.02-0.61-0.01-1.23-0.01-1.84
			c0-1.51,0.09-1.61,1.57-1.66c0.18-0.01,0.35,0.02,0.48-0.17c0.52-0.79,0.49-1.18-0.16-1.88c-0.02-0.02-0.05-0.05-0.07-0.07
			c-0.43-0.48-0.44-0.84,0.01-1.3c0.47-0.49,0.96-0.97,1.44-1.45c0.99-0.99,1.09-0.99,2.14-0.06c0.13,0.12,0.25,0.35,0.43,0.29
			c0.41-0.13,0.83-0.27,1.18-0.5c0.23-0.15,0.1-0.5,0.11-0.75c0.02-0.96,0.2-1.17,1.15-1.22c0.3-0.02,0.45-0.1,0.45-0.43
			c0.01-0.59-0.01-0.63-0.64-0.63c-11.18,0-22.37,0-33.55,0c-0.67,0-0.67,0-0.67,0.7c0,6.4,0,12.79,0,19.19c0,0.75,0,0.75,0.77,0.75
			C9.46,31.31,15.01,31.31,20.57,31.31z M20.52,9.36c3.86,0,7.72,0,11.58,0c2.17,0,4.34,0,6.51,0c0.65,0,0.94-0.24,0.96-0.81
			c0.02-0.93,0.02-1.86,0-2.78c-0.01-0.47-0.3-0.77-0.76-0.83c-0.18-0.02-0.36-0.01-0.55-0.01c-11.8,0-23.6,0-35.39,0
			c-0.13,0-0.27,0-0.4,0c-0.6,0.03-0.9,0.34-0.91,0.95c-0.01,0.76,0,1.52,0,2.29c0,1.04,0.17,1.21,1.21,1.21
			C8.69,9.36,14.6,9.36,20.52,9.36z M20.59,32.64c-6.1,0-12.19,0-18.29,0c-0.23,0-0.49-0.06-0.68,0.07
			c-0.6,0.42-0.29,1.06-0.35,1.61C1.24,34.67,1.29,35,1.65,35.18c0.23,0.11,0.49,0.09,0.73,0.09c12.13,0,24.25,0,36.38,0
			c0.12,0,0.23,0,0.35,0c0.45-0.03,0.71-0.23,0.7-0.71c0-0.3,0-0.6,0-0.89c0-0.9-0.11-1.01-0.99-1.01
			C32.75,32.64,26.67,32.64,20.59,32.64z M33.25,17.51c-0.01,0.05-0.02,0.14-0.06,0.21c-0.33,0.62-0.57,1.27-0.8,1.92
			c-0.13,0.37-0.46,0.48-0.84,0.49c-0.95,0.03-0.96,0.03-0.95,0.97c0.01,1.14-0.11,0.93,0.94,1.03c0.53,0.05,0.82,0.27,0.96,0.76
			c0.14,0.5,0.33,0.97,0.59,1.42c0.26,0.44,0.18,0.81-0.16,1.17c-0.65,0.7-0.64,0.71,0.03,1.38c0.01,0.01,0.02,0.02,0.04,0.04
			c0.63,0.63,0.64,0.64,1.28,0.03c0.41-0.39,0.81-0.46,1.29-0.17c0.44,0.27,0.93,0.44,1.42,0.58c0.41,0.12,0.66,0.38,0.66,0.82
			c0.01,1.3,0.12,1.02,1.12,1.05c0.03,0,0.07,0,0.1,0c0.7,0,0.7,0,0.74-0.69c0.05-0.86,0.16-1,0.98-1.27
			c0.43-0.14,0.84-0.31,1.23-0.54c0.44-0.25,0.81-0.18,1.17,0.15c0.69,0.64,0.7,0.63,1.37-0.05c0.71-0.73,0.76-0.54,0.04-1.34
			c-0.28-0.3-0.45-0.62-0.24-1.03c0.3-0.56,0.53-1.14,0.72-1.74c0.11-0.34,0.36-0.53,0.74-0.57c1.11-0.11,1.11-0.12,1.11-1.22
			c0-0.75-0.02-0.77-0.77-0.8c-0.07,0-0.13,0-0.2,0c-0.48,0.01-0.78-0.21-0.91-0.68c-0.15-0.51-0.33-1.01-0.6-1.47
			c-0.25-0.43-0.2-0.8,0.13-1.18c0.63-0.73,0.62-0.73-0.05-1.4c-0.01-0.01-0.02-0.02-0.04-0.04c-0.61-0.61-0.61-0.61-1.23-0.04
			c-0.49,0.45-0.71,0.49-1.29,0.18c-0.43-0.22-0.86-0.43-1.33-0.55c-0.53-0.13-0.78-0.46-0.8-0.99c-0.01-0.17-0.03-0.33-0.03-0.5
			c0-0.29-0.11-0.43-0.41-0.42c-0.36,0.01-0.73,0.01-1.09,0c-0.3-0.01-0.42,0.15-0.43,0.42c-0.01,0.18-0.01,0.36-0.01,0.55
			c0,0.46-0.21,0.76-0.64,0.89c-0.57,0.17-1.12,0.4-1.65,0.69c-0.33,0.18-0.63,0.11-0.92-0.11c-0.28-0.22-0.49-0.68-0.84-0.64
			c-0.35,0.05-0.56,0.48-0.84,0.74c-0.5,0.49-0.5,0.5,0,1.03C33,16.88,33.25,17.11,33.25,17.51z M27.72,36.53
			c-0.35,0-0.7,0.01-1.04,0c-0.36-0.02-0.5,0.06-0.29,0.44c1.06,1.97,2.11,3.94,3.15,5.92c0.15,0.29,0.3,0.28,0.55,0.14
			c0.49-0.28,0.98-0.55,1.49-0.79c0.35-0.16,0.42-0.32,0.22-0.67c-0.69-1.26-1.41-2.52-2.02-3.82
			C29.35,36.82,28.84,36.21,27.72,36.53z M14.86,36.73c0.01-0.23-0.15-0.19-0.27-0.19c-0.76,0-1.52,0-2.28,0
			c-0.24,0-0.35,0.13-0.45,0.32c-0.85,1.61-1.7,3.21-2.57,4.81c-0.16,0.29-0.07,0.4,0.18,0.53c0.53,0.26,1.06,0.54,1.58,0.84
			c0.28,0.16,0.42,0.12,0.58-0.17c1.02-1.95,2.06-3.88,3.09-5.82C14.77,36.93,14.81,36.82,14.86,36.73z"/>
		<path class="st0" d="M21.12,17.85c-1,0.55-1.84,1.11-2.65,1.71c-0.15,0.11-0.2,0.23-0.02,0.35c1.1,0.71,2.12,1.52,3.23,2.45
			c0-0.46-0.01-0.8,0-1.14c0.01-0.45,0.27-0.75,0.64-0.72c0.41,0.04,0.61,0.29,0.61,0.7c0,0.86,0,1.72,0,2.59
			c0,0.47-0.24,0.71-0.7,0.71c-0.86,0-1.72,0-2.59,0c-0.41,0-0.67-0.2-0.71-0.61c-0.04-0.37,0.27-0.63,0.71-0.65
			c0.15-0.01,0.3,0,0.45,0c0.15,0,0.29,0,0.55,0c-0.71-0.67-1.41-1.19-2.11-1.7c-0.28-0.2-0.6-0.37-0.86-0.59
			c-0.4-0.34-0.68-0.24-1.05,0.1c-1.55,1.44-2.94,3.01-4.14,4.75c-0.04,0.05-0.07,0.11-0.11,0.16c-0.3,0.4-0.66,0.5-0.98,0.25
			c-0.35-0.28-0.34-0.63-0.1-0.97c0.53-0.74,1.06-1.49,1.63-2.19c0.81-0.99,1.65-1.95,2.63-2.77c0.34-0.29,0.28-0.42-0.09-0.6
			c-1.56-0.78-3.17-1.42-4.85-1.9c-0.19-0.05-0.39-0.1-0.57-0.16c-0.43-0.15-0.65-0.48-0.52-0.82c0.15-0.41,0.46-0.54,0.87-0.43
			c1.27,0.34,2.51,0.75,3.72,1.26c0.86,0.36,1.69,0.77,2.51,1.2c0.18,0.09,0.35,0.21,0.55,0.06c1.06-0.81,2.19-1.54,3.44-2.27
			c-0.4-0.15-0.7-0.26-1-0.38c-0.38-0.15-0.61-0.41-0.49-0.84c0.11-0.38,0.47-0.53,0.93-0.38c0.79,0.26,1.57,0.54,2.34,0.82
			c0.48,0.18,0.63,0.49,0.47,0.99c-0.26,0.8-0.55,1.6-0.84,2.39c-0.14,0.37-0.41,0.57-0.81,0.46c-0.36-0.09-0.51-0.45-0.4-0.89
			c0.04-0.14,0.1-0.28,0.14-0.42C21.01,18.23,21.04,18.11,21.12,17.85z"/>
		<path class="st0" d="M25.58,23.44c1.32,0,2.41,1.07,2.41,2.39c0.01,1.28-1.14,2.42-2.42,2.4c-1.28-0.02-2.37-1.1-2.38-2.39
			C23.17,24.53,24.25,23.45,25.58,23.44z M24.52,25.8c-0.01,0.63,0.46,1.12,1.07,1.12c0.59,0,1.06-0.48,1.07-1.08
			c0.01-0.6-0.44-1.06-1.06-1.07C24.97,24.76,24.53,25.18,24.52,25.8z"/>
		<path class="st0" d="M26.17,18.53c-1.32-0.01-2.4-1.11-2.38-2.42c0.02-1.28,1.13-2.37,2.41-2.36c1.31,0.01,2.41,1.11,2.4,2.41
			C28.58,17.49,27.51,18.54,26.17,18.53z M27.26,16.15c0-0.6-0.46-1.09-1.05-1.09c-0.61,0-1.1,0.49-1.09,1.11
			c0,0.6,0.47,1.05,1.08,1.04C26.83,17.2,27.26,16.78,27.26,16.15z"/>
		<path class="st0" d="M5.45,19.23c-0.26,0-0.44-0.11-0.57-0.33c-0.14-0.25-0.1-0.49,0.07-0.69c0.25-0.31,0.51-0.61,0.79-0.89
			c0.23-0.23,0.22-0.4,0-0.62c-0.24-0.25-0.46-0.52-0.69-0.78c-0.27-0.32-0.33-0.65-0.01-0.97c0.26-0.26,0.65-0.22,0.96,0.1
			c0.17,0.18,0.35,0.36,0.49,0.56c0.26,0.37,0.49,0.46,0.77,0.02c0.13-0.19,0.3-0.35,0.47-0.51c0.35-0.35,0.71-0.41,1-0.15
			c0.3,0.26,0.28,0.66-0.07,1.05c-0.21,0.24-0.41,0.48-0.63,0.7c-0.25,0.24-0.21,0.44,0.01,0.68c0.24,0.25,0.46,0.52,0.68,0.79
			C8.99,18.48,9,18.81,8.7,19.1c-0.27,0.27-0.64,0.22-0.96-0.11c-0.29-0.29-0.49-0.82-0.86-0.85c-0.39-0.03-0.57,0.53-0.87,0.81
			C5.85,19.1,5.68,19.24,5.45,19.23z"/>
		<path class="st0" d="M10.21,27.56c0,0.29-0.1,0.49-0.32,0.61c-0.25,0.14-0.5,0.11-0.69-0.07c-0.25-0.23-0.49-0.49-0.7-0.77
			c-0.22-0.28-0.39-0.36-0.64-0.02c-0.18,0.25-0.42,0.47-0.64,0.69c-0.27,0.27-0.59,0.31-0.89,0.05c-0.32-0.28-0.31-0.61-0.05-0.92
			c0.25-0.31,0.52-0.6,0.79-0.89c0.19-0.2,0.17-0.35-0.01-0.55c-0.26-0.27-0.51-0.57-0.75-0.86c-0.26-0.31-0.27-0.65,0.04-0.93
			c0.31-0.27,0.64-0.22,0.93,0.07c0.2,0.2,0.39,0.41,0.55,0.64c0.26,0.35,0.48,0.32,0.73-0.01c0.16-0.21,0.34-0.41,0.53-0.59
			c0.28-0.27,0.59-0.38,0.93-0.1c0.3,0.25,0.32,0.61,0.03,0.96c-0.23,0.28-0.47,0.56-0.73,0.81c-0.23,0.23-0.22,0.41,0,0.63
			c0.23,0.23,0.44,0.5,0.65,0.75C10.11,27.22,10.22,27.38,10.21,27.56z"/>
		<path class="st0" d="M33.71,21.11c0.01-2.75,2.18-4.94,4.91-4.93c2.83,0,5.01,2.19,5,5c-0.01,2.74-2.23,4.92-5,4.91
			C35.87,26.09,33.7,23.88,33.71,21.11z M42.29,21.13c0-2.05-1.63-3.69-3.65-3.68c-1.99,0.01-3.68,1.7-3.67,3.69
			c0,1.96,1.67,3.65,3.63,3.68C40.65,24.85,42.3,23.2,42.29,21.13z"/>
		<path class="st0" d="M38.04,23.11c-0.33,0.02-0.64-0.09-0.89-0.33c-0.35-0.33-0.69-0.67-1.02-1.02c-0.28-0.29-0.32-0.63-0.02-0.92
			c0.3-0.29,0.64-0.25,0.93,0.02c0.25,0.22,0.49,0.45,0.7,0.7c0.21,0.24,0.37,0.25,0.6,0.01c0.59-0.62,1.21-1.23,1.82-1.83
			c0.39-0.39,0.74-0.42,1.03-0.11c0.29,0.3,0.25,0.65-0.13,1.04c-0.66,0.67-1.33,1.34-2,2C38.79,22.94,38.47,23.12,38.04,23.11z"/>
	</g>
</g>
<g id="plan" class="st1">
	<g class="st2">
		<path class="st0" d="M48.74,32.88c-0.31,0.39-0.73,0.48-1.21,0.48c-1.83-0.01-3.65,0.01-5.48-0.01c-0.48-0.01-0.63,0.15-0.61,0.62
			c0.03,0.87,0.02,1.75,0.01,2.62c0,0.28,0.09,0.45,0.34,0.6c1.07,0.62,1.56,1.67,1.33,2.8c-0.22,1.11-1.12,1.94-2.32,2.05
			c-1.04,0.1-1.86-0.35-2.4-1.24c-0.19-0.31-0.4-0.41-0.75-0.41c-5.82,0.01-11.64,0.01-17.46,0c-0.35,0-0.56,0.1-0.73,0.43
			c-0.66,1.27-1.73,1.96-3.15,2.01c-1.48,0.05-2.64-0.59-3.36-1.89c-0.25-0.45-0.52-0.57-0.99-0.55c-1.73,0.08-3.38-0.19-4.94-1
			c-3.24-1.7-5.12-5.4-4.53-8.97c0.63-3.77,3.5-6.64,7.2-7.22c0.55-0.08,1.09-0.08,1.63-0.08c2.06-0.01,4.12-0.01,6.18,0
			c0.36,0,0.52-0.11,0.61-0.47c0.43-1.71,1.89-2.84,3.61-2.84c1.7,0,3.15,1.12,3.58,2.82c0.1,0.37,0.24,0.5,0.63,0.49
			c3.17-0.01,6.34,0.01,9.5-0.01c3.55-0.02,6.29-2.2,7.04-5.56c0.93-4.15-2.27-8.25-6.52-8.34c-1.51-0.03-3.03,0-4.54-0.02
			c-0.33,0-0.5,0.13-0.65,0.41c-0.7,1.3-1.82,2.03-3.3,2.02c-1.49,0-2.62-0.72-3.32-2.06C24,9.29,23.82,9.19,23.52,9.19
			C18.48,9.2,13.44,9.2,8.4,9.19c-0.34,0-0.5,0.14-0.64,0.42c-0.7,1.34-2.16,2.16-3.58,2.02c-1.55-0.15-2.83-1.19-3.28-2.67
			c-0.59-1.93,0.53-3.99,2.49-4.6c1.94-0.6,4.03,0.49,4.59,2.46c0.16,0.57,0.4,0.67,0.93,0.67c4.74-0.02,9.49-0.02,14.23,0
			c0.42,0,0.62-0.09,0.74-0.54c0.43-1.65,1.91-2.76,3.59-2.75c1.67,0.01,3.15,1.13,3.57,2.78c0.1,0.41,0.29,0.51,0.68,0.5
			c1.26-0.02,2.53-0.01,3.79-0.01c4.5,0.01,8.12,3.05,8.72,7.5c0.68,5.1-2.99,9.05-7.22,9.69c-0.48,0.07-0.96,0.1-1.45,0.1
			c-3.28,0-6.55,0-9.83-0.01c-0.36,0-0.54,0.11-0.72,0.44c-0.7,1.3-1.8,2.01-3.29,2.01c-1.52,0.01-2.62-0.72-3.32-2.04
			c-0.17-0.31-0.35-0.41-0.68-0.41c-2.23,0.01-4.46,0-6.7,0.01c-3.57,0.02-6.55,2.71-6.9,6.2c-0.36,3.56,1.96,6.77,5.46,7.56
			c0.86,0.19,1.74,0.13,2.61,0.14c0.34,0,0.32-0.28,0.39-0.49c0.44-1.46,1.39-2.38,2.89-2.69c1.88-0.39,3.78,0.77,4.26,2.63
			c0.12,0.46,0.33,0.57,0.77,0.57c5.68-0.01,11.36-0.01,17.04,0c0.41,0,0.66-0.1,0.84-0.49c0.18-0.41,0.49-0.74,0.9-0.92
			c0.42-0.19,0.48-0.48,0.48-0.9c-0.01-3.17-0.01-6.34-0.01-9.5c0-0.17,0-0.35,0.03-0.51c0.09-0.39,0.34-0.64,0.73-0.69
			c0.4-0.05,0.73,0.14,0.85,0.51c0.12,0.36,0.33,0.42,0.66,0.42c1.84-0.01,3.68,0,5.52-0.01c0.48,0,0.89,0.1,1.2,0.49
			c0,0.25,0,0.5,0,0.75c-0.44,0.62-0.87,1.24-1.32,1.86c-0.15,0.21-0.15,0.38,0,0.59c0.45,0.62,0.88,1.24,1.31,1.86
			C48.74,32.38,48.74,32.63,48.74,32.88z M43.85,31.64c0.69,0,1.37,0,2.06,0c0.29,0,0.38-0.07,0.18-0.34
			c-1.01-1.4-0.96-1.3-0.02-2.62c0.19-0.26,0.16-0.37-0.19-0.37c-1.34,0.01-2.68,0.01-4.02,0c-0.3,0-0.41,0.12-0.41,0.42
			c0.01,0.83,0.01,1.65,0,2.48c-0.01,0.32,0.12,0.44,0.44,0.44C42.54,31.63,43.19,31.64,43.85,31.64z M19.7,23.5
			c0,1.14,0.87,2.04,1.99,2.04c1.11,0.01,2.02-0.9,2.02-2.02c0-1.13-0.88-2.03-2-2.04C20.6,21.48,19.7,22.37,19.7,23.5z
			 M16.17,41.12c1.14-0.01,2.02-0.89,2.01-2.02c-0.01-1.12-0.9-2-2.04-1.99c-1.13,0.01-2.03,0.91-2.02,2.02
			C14.13,40.26,15.03,41.13,16.17,41.12z M4.47,9.92c1.13,0,2.01-0.89,2.01-2.02c0-1.13-0.89-1.99-2.03-1.99
			c-1.13,0-2.03,0.9-2.03,2.01C2.43,9.04,3.34,9.93,4.47,9.92z M27.47,5.92c-1.14-0.01-2.01,0.83-2.03,1.94
			c-0.02,1.15,0.84,2.05,1.96,2.06c1.16,0.01,2.04-0.83,2.05-1.97C29.46,6.79,28.62,5.93,27.47,5.92z M40.59,38.6
			c-0.5,0-0.91,0.4-0.89,0.88c0.01,0.45,0.43,0.86,0.88,0.87c0.47,0.01,0.91-0.41,0.92-0.88C41.5,38.99,41.09,38.6,40.59,38.6z"/>
	</g>
</g>
<g id="health" class="st1">
	<g class="st2">
		<path class="st0" d="M23.98,32.06c-0.75,0-1.5,0.01-2.25,0c-0.68-0.01-0.96-0.29-0.96-0.99c-0.01-1.1-0.02-2.21,0-3.31
			c0.01-0.39-0.1-0.53-0.51-0.52c-1.1,0.02-2.2,0.01-3.29,0.01c-0.72,0-0.99-0.28-1-1.01c0-1.5-0.01-3.01,0-4.51
			c0-0.68,0.29-0.96,0.98-0.97c1.08-0.01,2.16-0.02,3.24,0.01c0.43,0.01,0.59-0.11,0.57-0.56c-0.03-1.08-0.01-2.17-0.01-3.26
			c0-0.72,0.28-1,1-1c1.5,0,2.99-0.01,4.49,0c0.68,0,0.96,0.29,0.97,0.99c0.01,1.09,0.02,2.17-0.01,3.26
			c-0.01,0.43,0.11,0.59,0.56,0.58c1.08-0.03,2.16-0.01,3.24-0.01c0.72,0,1,0.28,1,1c0.01,1.5,0.01,3.01,0,4.51
			c0,0.68-0.29,0.97-0.98,0.97c-1.08,0.01-2.16,0.02-3.24-0.01c-0.43-0.01-0.59,0.11-0.57,0.56c0.03,1.08,0.01,2.17,0.01,3.26
			c0,0.72-0.28,1-1,1C25.48,32.06,24.73,32.06,23.98,32.06z M22.44,28.19c0,0.58,0.01,1.17,0,1.75c-0.01,0.32,0.11,0.45,0.43,0.44
			c0.75-0.02,1.5-0.02,2.24,0c0.36,0.01,0.46-0.13,0.45-0.47c-0.01-1.09-0.01-2.17,0-3.26c0-0.83,0.25-1.09,1.06-1.09
			c1.1,0,2.2-0.01,3.29,0c0.32,0,0.45-0.11,0.44-0.44c-0.02-0.75-0.02-1.5,0-2.25c0.01-0.36-0.13-0.46-0.47-0.46
			c-1.08,0.01-2.16,0.01-3.24,0c-0.82,0-1.08-0.26-1.08-1.07c0-1.1-0.01-2.2,0-3.31c0-0.32-0.11-0.45-0.43-0.44
			c-0.75,0.02-1.5,0.02-2.24,0c-0.36-0.01-0.46,0.13-0.46,0.47c0.01,1.09,0.01,2.17,0,3.26c0,0.83-0.26,1.09-1.07,1.09
			c-1.1,0-2.2,0.01-3.29,0c-0.32,0-0.45,0.11-0.44,0.44c0.02,0.75,0.02,1.5,0,2.25c-0.01,0.36,0.13,0.46,0.47,0.46
			c1.11-0.01,2.23-0.01,3.34,0c0.69,0,0.97,0.28,0.98,0.97C22.44,27.09,22.44,27.64,22.44,28.19z"/>
		<path class="st0" d="M22.75,46.5c-1.23,0-2.46-0.01-3.69,0c-1.65,0.02-3.2-0.37-4.67-1.09c-1.78-0.86-3.57-1.72-5.34-2.6
			c-1.54-0.77-3.17-1.09-4.87-1.12c-1.06-0.02-2.13,0-3.2-0.01c-0.62,0-0.97-0.31-0.97-0.83c0-0.52,0.34-0.85,0.95-0.84
			C2.64,40.05,4.32,39.91,6,40.1c1.35,0.16,2.62,0.6,3.84,1.19c1.87,0.91,3.74,1.82,5.62,2.72c1.19,0.57,2.47,0.79,3.78,0.8
			c2.51,0.02,5.03,0,7.54,0.01c0.27,0,0.52-0.04,0.78-0.14c2.06-0.86,4.12-1.72,6.18-2.56c0.37-0.15,0.47-0.36,0.43-0.73
			c-0.08-0.77-0.63-1.27-1.5-1.33c-1-0.07-1.95,0.19-2.89,0.46c-0.5,0.14-0.98,0.33-1.48,0.47c-0.48,0.14-0.92-0.11-1.07-0.56
			c-0.13-0.4,0.05-0.85,0.5-1.02c1.55-0.57,3.12-1.1,4.79-1.09c1.81,0.01,3.06,1.1,3.34,2.83c0.19,1.19-0.28,2.06-1.39,2.52
			c-2.14,0.89-4.28,1.77-6.41,2.66c-0.28,0.12-0.57,0.17-0.87,0.17C25.71,46.49,24.23,46.5,22.75,46.5z"/>
		<path class="st0" d="M25.23,1.5c1.25,0,2.5,0.01,3.74,0c1.61-0.02,3.13,0.36,4.58,1.05c1.8,0.87,3.6,1.73,5.39,2.62
			c1.54,0.77,3.17,1.1,4.87,1.14c1.06,0.02,2.13,0,3.2,0.01c0.65,0,1.01,0.31,1,0.85C47.99,7.69,47.64,8,47.02,7.99
			c-1.66-0.03-3.33,0.1-4.99-0.09c-1.35-0.16-2.63-0.59-3.85-1.18c-1.86-0.9-3.71-1.81-5.57-2.71c-1.21-0.58-2.5-0.82-3.82-0.83
			c-2.53-0.02-5.06,0-7.59-0.01c-0.27,0-0.52,0.05-0.77,0.15c-2.04,0.85-4.09,1.71-6.14,2.54c-0.38,0.15-0.5,0.37-0.45,0.76
			c0.09,0.75,0.63,1.24,1.47,1.3c1.02,0.08,1.98-0.19,2.94-0.47c0.48-0.14,0.95-0.31,1.43-0.45c0.49-0.14,0.92,0.08,1.09,0.53
			c0.15,0.4-0.02,0.87-0.47,1.03c-1.58,0.59-3.18,1.14-4.89,1.1c-1.76-0.04-2.98-1.11-3.26-2.8c-0.21-1.22,0.27-2.08,1.41-2.55
			c2.09-0.87,4.18-1.73,6.27-2.61c0.36-0.15,0.72-0.22,1.11-0.22C22.37,1.51,23.8,1.5,25.23,1.5z"/>
		<path class="st0" d="M44.05,17.61c-1.83-0.13-3.65,0.26-5.5,0.6c-3.21,0.58-6.36-0.66-8.04-3.5c-0.13-0.22-0.3-0.34-0.53-0.43
			c-1.35-0.56-2.71-1.12-4.05-1.7c-1.16-0.5-2.23-1.14-2.97-2.2c-1.02-1.46-0.98-3-0.31-4.57c0.22-0.5,0.67-0.61,1.28-0.36
			c1.78,0.74,3.57,1.48,5.35,2.23c1.11,0.46,2.21,0.92,3.32,1.38c0.12,0.05,0.25,0.1,0.36,0.17c0.39,0.24,0.55,0.63,0.39,1.02
			c-0.17,0.44-0.51,0.61-0.96,0.53c-0.21-0.04-0.41-0.12-0.61-0.21c-2.46-1.02-4.92-2.04-7.37-3.08c-0.44-0.19-0.49-0.05-0.5,0.35
			c-0.03,1.2,0.63,1.97,1.56,2.56c1.05,0.67,2.24,1.03,3.36,1.52c0.76,0.34,1.53,0.64,2.31,0.95c0.33,0.13,0.55,0.34,0.71,0.66
			c0.96,1.9,2.57,2.83,4.63,3.01c1.26,0.11,2.49-0.03,3.68-0.5c0.22-0.09,0.45-0.12,0.68-0.11c2.06,0,4.13,0,6.19,0
			c0.07,0,0.13,0,0.2,0.01c0.47,0.04,0.77,0.37,0.78,0.82c0.01,0.47-0.31,0.83-0.8,0.84C46.17,17.63,45.14,17.61,44.05,17.61z"/>
		<path class="st0" d="M3.89,30.38c0.15,0,0.3-0.01,0.45,0c1.77,0.18,3.44-0.33,5.16-0.62c3.11-0.52,6.3,0.64,7.99,3.51
			c0.14,0.23,0.33,0.36,0.57,0.46c1.35,0.56,2.71,1.12,4.05,1.7c1.15,0.49,2.2,1.13,2.93,2.18c1.02,1.45,0.99,3,0.33,4.57
			c-0.21,0.51-0.67,0.63-1.27,0.38c-1.62-0.67-3.23-1.34-4.84-2.02c-1.31-0.54-2.61-1.09-3.92-1.63c-0.27-0.11-0.51-0.24-0.65-0.52
			c-0.15-0.32-0.11-0.63,0.12-0.89c0.28-0.34,0.66-0.38,1.05-0.22c0.93,0.37,1.85,0.76,2.77,1.14c1.64,0.68,3.29,1.37,4.93,2.06
			c0.52,0.22,0.54,0.2,0.55-0.37c0.02-1.2-0.66-1.96-1.59-2.54c-1.04-0.65-2.21-1.01-3.32-1.5c-0.76-0.33-1.53-0.65-2.31-0.96
			c-0.33-0.13-0.55-0.34-0.71-0.66c-0.96-1.9-2.56-2.81-4.63-3.02c-1.26-0.12-2.48,0.06-3.67,0.5C7.68,32,7.48,32.05,7.28,32.05
			c-2.13,0.01-4.26,0-6.39,0.01c-0.46,0-0.78-0.21-0.87-0.66c-0.09-0.42,0.08-0.75,0.48-0.94c0.17-0.08,0.36-0.06,0.54-0.07
			C1.99,30.38,2.94,30.38,3.89,30.38z"/>
		<path class="st0" d="M7.18,24.4c-0.01-3.93,1.01-7.15,3.02-10.07c0.11-0.16,0.23-0.33,0.36-0.48c0.33-0.35,0.77-0.4,1.12-0.14
			c0.37,0.27,0.47,0.74,0.22,1.16c-0.27,0.44-0.59,0.85-0.85,1.29c-1.26,2.11-1.97,4.39-2.13,6.86c-0.09,1.36,0.05,2.7,0.26,4.03
			c0.1,0.61-0.17,1.04-0.69,1.13c-0.48,0.08-0.88-0.25-0.99-0.83C7.29,26.24,7.15,25.14,7.18,24.4z"/>
		<path class="st0" d="M40.83,23.58c0,3.94-1,7.15-3,10.05c-0.12,0.18-0.25,0.36-0.39,0.52c-0.33,0.36-0.82,0.42-1.16,0.15
			c-0.35-0.27-0.44-0.75-0.18-1.17c0.33-0.52,0.69-1.02,1-1.56c1.19-2.04,1.82-4.24,1.98-6.6c0.09-1.35-0.05-2.66-0.25-3.98
			c-0.09-0.58,0.17-1,0.67-1.1c0.47-0.09,0.89,0.24,1,0.81C40.72,21.79,40.86,22.88,40.83,23.58z"/>
		<path class="st0" d="M14.6,11.88c0.01,0.47-0.48,0.99-0.94,0.99c-0.46,0.01-0.86-0.39-0.87-0.85c0-0.48,0.49-0.97,0.96-0.97
			C14.18,11.06,14.59,11.46,14.6,11.88z"/>
		<path class="st0" d="M34.42,36.94c-0.47,0-0.86-0.4-0.85-0.87c0.01-0.47,0.44-0.87,0.93-0.86c0.46,0,0.82,0.37,0.82,0.83
			C35.32,36.49,34.87,36.94,34.42,36.94z"/>
	</g>
</g>
<g id="school" class="st1">
	<g class="st2">
		<path class="st0" d="M46.35,48c-13.89,0-27.78,0-41.67,0c-0.15-0.04-0.3-0.08-0.46-0.12C1.67,47.2-0.01,45.04,0,42.44
			c0-1.39,0.51-2.59,1.43-3.62c0.16-0.19,0.35-0.34-0.05-0.5c-0.95-0.39-1.43-1.12-1.38-2.13c0.05-1,0.6-1.65,1.56-1.95
			c0.27-0.08,0.39-0.24,0.42-0.5c0.02-0.2,0.05-0.4,0.07-0.6c0.03-0.42,0-0.85-0.14-1.24c-0.12-0.32-0.5-0.28-0.76-0.41
			c-0.85-0.45-1.31-1.43-1.09-2.38c0.24-1.04,1.06-1.68,2.2-1.71c0.72-0.02,1.44,0,2.17,0c-0.02-0.26-0.18-0.35-0.29-0.48
			c-2.39-2.91-1.33-7.17,2.15-8.65c1.05-0.45,2.15-0.47,3.25-0.43c0.46,0.02,0.68-0.13,0.8-0.57c0.53-1.86,1.09-3.71,1.67-5.56
			c0.13-0.41,0.04-0.57-0.39-0.68C8.64,10.24,5.67,9.46,2.7,8.69C1.72,8.43,1.23,7.84,1.23,6.94c0-0.91,0.49-1.5,1.46-1.75
			c2.56-0.67,5.13-1.33,7.69-1.99c0.77-0.2,1.13-0.06,1.27,0.46c0.13,0.51-0.14,0.81-0.9,1.01C8.53,5.23,6.32,5.8,4.11,6.38
			C3.79,6.46,3.47,6.55,3.15,6.63C2.98,6.68,2.77,6.71,2.77,6.92c-0.01,0.24,0.22,0.27,0.4,0.32C3.2,7.25,3.23,7.25,3.26,7.26
			c6.15,1.6,12.29,3.2,18.44,4.79c0.92,0.24,1.85,0.33,2.81,0.28c1.34-0.07,2.59-0.52,3.88-0.81c0.41-0.09,0.35-0.24,0.09-0.48
			c-0.97-0.85-1.93-1.71-2.88-2.58c-0.24-0.22-0.47-0.26-0.77-0.17c-0.89,0.25-1.75,0.14-2.56-0.31c-0.32-0.17-0.49-0.42-0.49-0.79
			c0.01-0.69-0.02-1.37,0.01-2.06c0.04-1.09,0.87-1.91,2-2c1.02-0.09,1.97,0.6,2.23,1.59c0.14,0.52,0.1,1.06,0.09,1.58
			c-0.01,0.39,0.11,0.67,0.41,0.94c1.2,1.06,2.41,2.12,3.57,3.21c0.4,0.37,0.76,0.43,1.27,0.29c3.37-0.9,6.74-1.76,10.11-2.64
			c1.13-0.29,2.26-0.59,3.39-0.88c0.17-0.04,0.37-0.08,0.38-0.29c0.01-0.22-0.19-0.26-0.36-0.31c-0.06-0.02-0.12-0.04-0.18-0.05
			c-5.92-1.54-11.84-3.06-17.75-4.63c-2.01-0.53-3.97-0.54-5.96,0.03c-2.01,0.58-4.05,1.06-6.09,1.58
			c-0.71,0.18-1.21-0.28-1.04-0.92c0.1-0.38,0.42-0.47,0.75-0.56c2.24-0.58,4.48-1.17,6.73-1.75c1.79-0.46,3.59-0.46,5.38,0.01
			c3.84,1,7.69,2,11.53,2.99c2.35,0.61,4.7,1.22,7.05,1.83c0.86,0.22,1.38,0.74,1.46,1.46c0.12,1.03-0.38,1.77-1.44,2.04
			c-2.97,0.78-5.95,1.55-8.92,2.31c-0.41,0.1-0.55,0.24-0.41,0.67c0.58,1.86,1.14,3.73,1.68,5.61c0.12,0.39,0.31,0.55,0.73,0.54
			c1.56-0.02,3.13-0.02,4.69,0c0.99,0.01,1.77,0.65,1.94,1.6c0.27,1.53-0.64,2.58-1.75,2.7c-0.34,0.04-0.47,0.22-0.51,0.55
			c-0.06,0.45-0.05,0.9,0,1.35c0.04,0.35,0.18,0.5,0.54,0.56c1.38,0.25,2.18,1.63,1.69,2.91c-0.13,0.34-0.08,0.47,0.23,0.65
			c3.07,1.82,3.7,5.79,1.35,8.44c-0.26,0.3-0.32,0.4,0.12,0.58c0.85,0.33,1.26,1.02,1.29,1.9c0.03,0.89-0.36,1.57-1.17,1.99
			c-0.8,0.41-0.95,0.66-0.88,1.59c0.01,0.19,0.06,0.37,0.06,0.56c0,0.35,0.17,0.53,0.5,0.63c0.71,0.22,1.18,0.7,1.39,1.41
			C48.25,46.44,47.67,47.48,46.35,48z M22.56,28.91c-6.57,0-13.13,0-19.7,0c-0.21,0-0.41,0-0.62,0.01c-0.4,0.01-0.66,0.19-0.68,0.62
			c-0.01,0.4,0.23,0.62,0.7,0.64c0.22,0.01,0.44,0.01,0.66,0.01c12.93,0,25.85,0,38.78,0c0.24,0,0.47-0.01,0.71,0.01
			c1.52,0.1,2.66,1.19,2.73,2.61c0.06,1.42-0.98,2.62-2.48,2.82c-0.26,0.04-0.54,0.03-0.8,0.03c-9.49,0-18.97,0-28.46,0
			c-0.62,0-0.67,0.05-0.67,0.61c0,0.61,0.05,0.66,0.68,0.66c0.16,0,0.32,0,0.47,0c6.79,0,13.57,0,20.36,0c0.25,0,0.51,0,0.75,0.05
			c0.42,0.08,0.61,0.36,0.59,0.77c-0.02,0.42-0.26,0.66-0.68,0.71c-0.2,0.02-0.41,0.01-0.61,0.01c-6.88,0-13.76,0-20.65,0
			c-0.17,0-0.35,0-0.52,0c-0.13,0-0.28,0.01-0.32,0.15c-0.12,0.33-0.13,0.69-0.01,1.01c0.09,0.25,0.38,0.17,0.59,0.17
			c10.65,0,21.31,0,31.96,0c0.22,0,0.44,0,0.65-0.07c0.33-0.12,0.47-0.35,0.43-0.69c-0.03-0.32-0.23-0.51-0.55-0.55
			c-0.17-0.02-0.35-0.02-0.52-0.02c-2.12,0-4.23,0-6.35,0c-0.17,0-0.35,0.01-0.52-0.02c-0.37-0.07-0.58-0.31-0.59-0.68
			c-0.01-0.36,0.14-0.65,0.51-0.75c0.21-0.06,0.44-0.07,0.65-0.08c1.17-0.01,2.34,0.01,3.5-0.02c2.55-0.06,4.41-2.52,3.78-4.96
			c-0.47-1.83-2.06-3.04-4.04-3.05C35.72,28.91,29.14,28.91,22.56,28.91z M24.8,43.69c6.23,0,12.47,0,18.7,0
			c0.16,0,0.32-0.01,0.47,0c0.35,0.02,0.51-0.08,0.47-0.48c-0.05-0.45-0.07-0.91,0-1.35c0.08-0.49-0.11-0.57-0.55-0.57
			c-10.42,0.01-20.83,0.01-31.25,0c-0.34,0-0.65,0.07-0.95,0.23C10.8,42,9.9,42.48,8.98,42.93c-0.6,0.29-1.11-0.01-1.19-0.67
			c-0.02-0.2-0.01-0.41-0.02-0.61c0-0.17-0.06-0.34-0.25-0.34c-0.79,0-1.58-0.14-2.35,0.09c-0.55,0.16-0.83,0.7-0.75,1.31
			c0.07,0.52,0.5,0.91,1.06,0.96c0.25,0.02,0.5,0.02,0.76,0.02C12.43,43.69,18.62,43.69,24.8,43.69z M25.48,27.37
			c5.6,0,11.21,0,16.81,0c0.19,0,0.38,0,0.57,0c0.49-0.02,0.71-0.21,0.72-0.62c0.01-0.42-0.23-0.64-0.73-0.66
			c-0.22-0.01-0.44,0-0.66,0c-10.98,0-21.97,0-32.95,0c-0.39,0-0.79-0.02-1.18-0.06c-1.51-0.18-2.6-1.69-2.3-3.16
			c0.28-1.36,1.37-2.23,2.81-2.23c5.18-0.01,10.35,0,15.53,0c1.04,0,2.08,0,3.13,0c0.17,0,0.4,0.06,0.47-0.13
			c0.12-0.33,0.26-0.7,0.12-1.04c-0.11-0.28-0.45-0.16-0.69-0.16c-5.89-0.01-11.77,0-17.66-0.01c-0.47,0-0.94,0.02-1.42,0.07
			c-2.43,0.24-4.12,2.56-3.56,4.91c0.43,1.82,2.04,3.09,3.95,3.1C14.11,27.37,19.79,27.37,25.48,27.37z M20.07,17.81
			c2.57,0,5.14-0.01,7.71,0.01c0.35,0,0.55-0.1,0.68-0.43c0.2-0.52,0.5-0.97,0.97-1.3c0.17-0.12,0.22-0.29,0.22-0.49
			c0-0.81-0.01-1.62,0-2.43c0-0.3-0.11-0.39-0.4-0.31c-0.73,0.2-1.46,0.38-2.19,0.58c-1.84,0.51-3.7,0.6-5.56,0.13
			c-2.41-0.61-4.82-1.25-7.23-1.87c-0.6-0.15-0.63-0.14-0.8,0.44c-0.51,1.69-1.02,3.38-1.52,5.07c-0.18,0.58-0.15,0.62,0.46,0.62
			C14.96,17.81,17.51,17.81,20.07,17.81z M24.63,24.55c5.27,0,10.54,0,15.81,0c0.14,0,0.28-0.01,0.43,0
			c0.29,0.02,0.38-0.09,0.36-0.39c-0.03-0.53-0.04-1.06,0-1.59c0.02-0.32-0.09-0.42-0.39-0.42c-2.38,0.01-4.77,0.01-7.15,0
			c-0.31,0-0.46,0.11-0.48,0.43c-0.03,0.46-0.27,0.78-0.77,0.78c-1.34,0.01-2.68,0.01-4.02,0c-0.4,0-0.71-0.23-0.72-0.61
			c-0.02-0.55-0.3-0.61-0.76-0.61c-6.04,0.01-12.09,0.01-18.13,0.01c-0.14,0-0.28,0-0.43,0.01c-0.58,0.04-1.03,0.44-1.1,0.97
			c-0.08,0.62,0.22,1.12,0.8,1.33c0.26,0.09,0.53,0.08,0.8,0.08C14.12,24.56,19.37,24.55,24.63,24.55z M25.59,45.22
			c-3.24,0-6.47,0-9.71,0c-3.39,0-6.79,0.01-10.18,0c-1.66-0.01-2.83-1.14-2.85-2.7c-0.01-1.55,1.17-2.68,2.83-2.7
			c0.55-0.01,1.1-0.01,1.66,0c0.29,0,0.45-0.11,0.44-0.41c-0.01-0.16-0.01-0.31,0-0.47c0.02-0.31-0.12-0.46-0.44-0.45
			c-0.65,0.01-1.3-0.02-1.94,0.01c-2.54,0.12-4.36,2.58-3.73,5.02c0.48,1.84,2.08,3.04,4.15,3.05c13.21,0.01,26.42,0,39.63,0
			c0.17,0,0.35-0.02,0.51-0.06c0.33-0.09,0.49-0.32,0.47-0.67c-0.02-0.35-0.24-0.54-0.57-0.59c-0.2-0.03-0.41-0.02-0.61-0.02
			C38.69,45.22,32.14,45.22,25.59,45.22z M27.83,34.12c4.69,0,9.38,0,14.06,0c0.21,0,0.41,0.01,0.62-0.01
			c0.63-0.06,1.06-0.54,1.06-1.16c0-0.63-0.41-1.12-1.04-1.19c-0.22-0.03-0.44-0.01-0.66-0.01c-9.42,0-18.85,0-28.27,0
			c-0.14,0-0.28,0.01-0.43,0c-0.32-0.02-0.46,0.14-0.46,0.45c0,0.41,0,0.81,0,1.22c0,0.7,0.02,0.71,0.71,0.71
			C18.24,34.12,23.04,34.12,27.83,34.12z M34.34,17.81c0.46,0,0.91-0.02,1.37,0c0.42,0.02,0.48-0.15,0.37-0.51
			c-0.54-1.77-1.07-3.55-1.6-5.33c-0.09-0.32-0.26-0.42-0.59-0.33c-0.74,0.21-1.49,0.4-2.24,0.58c-0.32,0.07-0.45,0.23-0.45,0.55
			c0.01,0.93,0,1.87,0,2.8c0,0.19,0.04,0.37,0.21,0.49c0.49,0.35,0.78,0.85,1.01,1.39c0.11,0.25,0.26,0.36,0.54,0.35
			C33.43,17.8,33.89,17.81,34.34,17.81z M9.34,36.38c0,1.39,0.01,2.77-0.01,4.16c0,0.41,0.12,0.46,0.46,0.27
			c0.3-0.18,0.6-0.34,0.92-0.48c0.35-0.15,0.47-0.38,0.47-0.76c-0.02-2.2,0-4.39-0.01-6.59c-0.01-1.43,0.23-1.22-1.29-1.25
			c-0.41-0.01-0.56,0.14-0.55,0.55C9.35,33.64,9.34,35.01,9.34,36.38z M38.21,20.63c0.11,0,0.22,0,0.33,0c1.44,0,2.87,0,4.31-0.01
			c0.54,0,0.83-0.33,0.73-0.79c-0.1-0.45-0.47-0.53-0.84-0.53c-3.12-0.01-6.25-0.01-9.37-0.01c-0.12,0-0.3-0.03-0.33,0.11
			c-0.07,0.36,0,0.72,0.13,1.05c0.09,0.24,0.35,0.16,0.55,0.16C35.21,20.63,36.71,20.62,38.21,20.63z M5.62,31.73
			c-0.57,0-1.14,0-1.7,0c-0.23,0-0.41,0.02-0.38,0.33c0.06,0.57,0.06,1.15,0,1.73c-0.03,0.27,0.11,0.33,0.33,0.32
			c1.17,0,2.33,0,3.5,0c0.28,0,0.4-0.13,0.4-0.4c0-0.51-0.01-1.03,0-1.54c0.01-0.32-0.14-0.45-0.46-0.44
			C6.75,31.74,6.19,31.73,5.62,31.73z M30.36,21.85c0.25,0,0.51-0.02,0.76,0c0.42,0.03,0.56-0.15,0.53-0.55
			c-0.08-1.06-0.22-2.11-0.57-3.12c-0.08-0.22-0.18-0.44-0.31-0.63c-0.21-0.31-0.45-0.31-0.68,0c-0.19,0.25-0.29,0.55-0.38,0.85
			c-0.24,0.76-0.4,1.55-0.44,2.34c-0.07,1.28-0.3,1.09,1,1.11C30.29,21.85,30.33,21.85,30.36,21.85z M4.72,36.94
			c0.85,0,1.7-0.02,2.55,0.01c0.5,0.01,0.51-0.28,0.51-0.64c0-0.35,0.02-0.65-0.49-0.65c-1.65,0.02-3.31,0-4.96,0.01
			c-0.52,0-0.76,0.21-0.76,0.63c0,0.42,0.23,0.63,0.75,0.64C3.12,36.94,3.92,36.93,4.72,36.94z M24.55,5.86
			C24.55,5.86,24.55,5.86,24.55,5.86c0-0.16,0-0.31,0-0.46c-0.02-0.48-0.22-0.72-0.61-0.73c-0.38-0.01-0.63,0.25-0.65,0.7
			c-0.02,0.32,0.01,0.65-0.01,0.98c-0.02,0.39,0.17,0.52,0.53,0.54c0.63,0.03,0.74-0.07,0.75-0.7C24.55,6.08,24.55,5.97,24.55,5.86z
			"/>
	</g>
</g>
<g id="corporate" class="st1">
	<g class="st2">
		<path class="st0" d="M33.79,36.55c0.86,0.44,1.55,0.87,2.13,1.41c1.32,1.22,1.94,2.65,1.96,4.25c0.02,1.51,0,3.02,0,4.54
			c0,0.03,0,0.07,0,0.1c-0.03,0.76-0.39,1.15-1.09,1.14c-0.7-0.01-1.04-0.38-1.04-1.15c0-1.54,0-3.09,0-4.63
			c-0.01-2.6-2.57-4.75-5.82-4.86c-0.84-0.03-1.68-0.01-2.52-0.01c-0.16,0-0.44-0.03-0.45,0.07c-0.11,0.62-0.89,1.05-0.72,1.76
			c0.45,1.89,0.83,3.78,1.28,5.67c0.16,0.67,0.03,1.17-0.71,1.58c-0.67,0.37-1.27,0.83-1.91,1.24c-0.72,0.46-1.13,0.46-1.86-0.01
			c-0.67-0.43-1.31-0.9-2-1.31c-0.59-0.35-0.76-0.78-0.64-1.33c0.31-1.34,0.6-2.68,0.9-4.02c0.14-0.65,0.28-1.29,0.43-1.94
			c0.06-0.25,0.06-0.48-0.19-0.68c-0.14-0.11-0.26-0.28-0.28-0.43c-0.06-0.54-0.44-0.65-1.04-0.62c-1.14,0.05-2.29-0.06-3.42,0.19
			c-2.82,0.61-4.58,2.42-4.59,4.76c0,1.51,0,3.02,0,4.54c0,0.18,0.01,0.37-0.04,0.54c-0.12,0.39-0.44,0.62-0.96,0.64
			c-0.52,0.02-0.86-0.18-1.03-0.56c-0.05-0.11-0.09-0.22-0.09-0.34c0.01-1.86-0.12-3.71,0.06-5.57c0.2-2.04,1.48-3.58,3.56-4.72
			c0.11-0.06,0.23-0.13,0.37-0.2c-0.26-0.17-0.53-0.14-0.78-0.14c-2.34,0-4.67-0.01-7.01,0c-2.06,0.01-3.64,0.93-4.09,2.33
			c-0.08,0.26-0.08,0.52-0.08,0.78c0,1.56,0,3.12,0,4.68c0,0.23,0,0.46-0.12,0.68c-0.19,0.33-0.52,0.5-0.98,0.49
			c-0.43-0.01-0.74-0.17-0.92-0.49c-0.12-0.22-0.12-0.45-0.12-0.68c0-9.78,0-19.55,0-29.33c0-0.78,0.22-1.02,1.16-1.22
			c3.2-0.69,6.4-1.39,9.62-2.05c0.58-0.12,0.79-0.31,0.78-0.81c-0.04-1.87-0.02-3.75-0.01-5.62c0-1.07,0.26-1.28,1.56-1.28
			c0.49,0,0.98-0.01,1.48,0c0.41,0.01,0.54-0.12,0.53-0.44c-0.02-0.82-0.01-1.64,0-2.46C15.1,0.28,15.44,0,16.39,0
			c5.06,0,10.12,0,15.18,0c0.94,0,1.29,0.29,1.3,1.05c0.01,0.82,0.01,1.64,0,2.46C32.86,3.83,33,3.96,33.4,3.95
			c0.55-0.02,1.11-0.01,1.66,0c1.03,0,1.37,0.27,1.37,1.09c0,1.94,0.02,3.88-0.01,5.82c-0.01,0.46,0.16,0.67,0.72,0.79
			c3.13,0.65,6.25,1.33,9.38,1.99c1.29,0.27,1.45,0.44,1.45,1.5c0,9.65,0,19.29,0,28.94c0,0.24-0.01,0.5-0.07,0.73
			c-0.11,0.4-0.46,0.61-0.97,0.62c-0.54,0.01-0.9-0.22-1.02-0.64c-0.06-0.19-0.06-0.39-0.06-0.59c0-1.43-0.09-2.86,0.02-4.29
			c0.15-2.01-1.57-3.37-3.96-3.43c-2.52-0.06-5.04-0.02-7.56-0.01C34.2,36.46,34.06,36.51,33.79,36.55z M18.86,35.57
			c-0.15-0.17-0.23-0.26-0.31-0.35c-1.97-2.06-2.82-4.41-2.47-6.98c0.6-4.43,6.94-6.97,11.78-4.75c3.1,1.42,4.6,4.13,3.96,7.12
			c-0.37,1.73-1.08,3.33-2.51,4.69c-0.09,0.08-0.3,0.27-0.01,0.28c0.5,0.03,1.06,0.25,1.51,0.05c0.98-0.42,1.98-0.75,3.17-0.86
			c-0.69-0.75-1.11-1.51-1.37-2.33c-0.61-1.93-0.39-3.72,1.46-5.21c0.23-0.19,0.23-0.41,0.23-0.64c0-1.4,0-2.79,0-4.19
			c0-5.39,0-10.78,0-16.17c0-0.37,0.01-0.66-0.65-0.66c-6.45,0.02-12.91,0.01-19.36,0c-0.52,0-0.67,0.15-0.67,0.55
			c0.01,6.83,0.01,13.67,0,20.5c0,0.3,0.13,0.52,0.4,0.74c0.68,0.55,1.14,1.21,1.38,1.95c0.58,1.81,0,3.47-1.11,5.06
			c-0.09,0.12-0.26,0.22-0.21,0.41c0.79,0.08,1.62,0.18,2.27,0.54C17.15,35.78,17.94,35.65,18.86,35.57z M23.95,24.4
			c-2.86,0.01-5.24,1.56-5.72,3.83c-0.38,1.8,0.17,3.49,1.23,5.08c2.06,3.11,6.99,3.08,9.07,0.01c0.72-1.07,1.09-2.22,1.3-3.42
			C30.32,26.93,27.61,24.39,23.95,24.4z M45.8,35.87c0.02-0.2,0.04-0.3,0.04-0.39c0-6.58,0-13.17,0.01-19.75
			c0-0.39-0.2-0.54-0.64-0.63c-2.69-0.57-5.38-1.15-8.07-1.72c-0.67-0.14-0.7-0.12-0.7,0.43c0,3.94,0.01,7.88-0.01,11.82
			c0,0.4,0.14,0.46,0.6,0.39c3.04-0.48,6.02,1.07,6.73,3.48c0.3,1,0.16,1.99-0.14,2.97c-0.25,0.83-0.72,1.59-1.34,2.33
			C43.6,34.9,44.71,35.25,45.8,35.87z M5.69,34.78c-0.93-1.05-1.37-2.16-1.6-3.35c-0.63-3.31,2.79-6.02,6.89-5.42
			c0.47,0.07,0.55-0.06,0.54-0.4c-0.01-3.94-0.01-7.88-0.01-11.82c0-0.56-0.03-0.57-0.7-0.43c-2.65,0.57-5.29,1.15-7.95,1.69
			c-0.59,0.12-0.77,0.33-0.77,0.81c0.02,6.47,0.01,12.94,0.02,19.41c0,0.17-0.08,0.36,0.13,0.54C3.25,35.25,4.36,34.9,5.69,34.78z
			 M13.5,31.02c0.02-2.02-1.32-3.23-3.41-3.43c-1.68-0.16-3.52,0.89-3.84,2.3c-0.32,1.47,0.07,2.86,1.3,4.01
			c1.37,1.29,3.54,1.17,4.78-0.21C13.14,32.8,13.48,31.78,13.5,31.02z M41.78,31.1c0.03-2.09-1.29-3.29-3.4-3.5
			c-1.67-0.17-3.49,0.85-3.84,2.29c-0.34,1.38,0.06,2.68,1.09,3.82c1.28,1.43,3.55,1.45,4.9,0.07
			C41.41,32.87,41.76,31.82,41.78,31.1z M23.98,3.95c2.05,0,4.1-0.01,6.14,0.01c0.44,0,0.64-0.11,0.62-0.48
			c-0.02-0.46-0.02-0.92,0-1.38c0.01-0.3-0.12-0.45-0.53-0.45c-4.16,0.01-8.31,0.01-12.47,0c-0.42,0-0.53,0.15-0.53,0.45
			c0.01,0.43,0.03,0.86-0.01,1.28c-0.04,0.47,0.2,0.58,0.75,0.58C19.97,3.93,21.97,3.95,23.98,3.95z M24.05,38.92
			c-0.05,0-0.1,0-0.15,0c-0.45,1.98-0.89,3.96-1.34,5.95c-0.04,0.16,0.03,0.28,0.17,0.4c1.04,0.87,1.21,0.87,2.35,0.09
			c0.25-0.17,0.34-0.33,0.27-0.59c-0.13-0.46-0.21-0.94-0.31-1.4C24.71,41.88,24.38,40.4,24.05,38.92z"/>
		<path class="st0" d="M18.11,45.09c0,0.64,0.01,1.28,0,1.92c-0.01,0.61-0.39,0.96-1.02,0.97c-0.65,0.02-1.09-0.34-1.1-0.97
			c-0.02-1.28-0.02-2.56,0-3.85c0.01-0.63,0.44-0.98,1.09-0.97c0.65,0.01,1.02,0.36,1.03,1.01C18.12,43.84,18.11,44.46,18.11,45.09z
			"/>
		<path class="st0" d="M29.85,45.08c0-0.64-0.01-1.28,0-1.92c0.01-0.61,0.39-0.95,1.02-0.96c0.64-0.01,1.08,0.32,1.09,0.91
			c0.03,1.33,0.03,2.65,0,3.98c-0.01,0.58-0.49,0.92-1.12,0.89c-0.6-0.03-0.98-0.37-0.99-0.94C29.84,46.39,29.85,45.73,29.85,45.08z
			"/>
		<path class="st0" d="M28.83,14.27c-0.96,0-1.93,0.01-2.89,0c-0.79-0.01-1.2-0.3-1.22-0.92c-0.03-1.46-0.03-2.92,0-4.39
			C24.74,8.31,25.17,8,25.98,8c1.89-0.01,3.77-0.01,5.66,0c0.85,0,1.22,0.32,1.23,1.01c0.01,1.41,0.01,2.83,0,4.24
			c0,0.73-0.36,1.01-1.27,1.02C30.67,14.28,29.75,14.27,28.83,14.27z M28.79,12.62c0.47,0,0.94-0.01,1.41,0
			c0.35,0.01,0.54-0.09,0.54-0.39c-0.01-0.71-0.01-1.41,0-2.12c0-0.29-0.16-0.42-0.52-0.41c-0.96,0.01-1.92,0-2.88,0
			c-0.32,0-0.5,0.1-0.49,0.38c0.01,0.72,0.01,1.44,0,2.17c0,0.27,0.14,0.39,0.48,0.38C27.81,12.61,28.3,12.62,28.79,12.62z"/>
		<path class="st0" d="M19.13,14.27c-0.96,0-1.93,0.01-2.89,0c-0.75-0.01-1.14-0.31-1.15-0.91c-0.01-1.48-0.01-2.96,0-4.44
			C15.1,8.32,15.5,8,16.25,8c1.93-0.01,3.85-0.01,5.78,0c0.74,0,1.18,0.31,1.19,0.9c0.04,1.49,0.04,2.99-0.01,4.48
			c-0.02,0.62-0.42,0.87-1.19,0.88C21.05,14.28,20.09,14.27,19.13,14.27z M19.13,12.62c0.49,0,0.98-0.01,1.47,0
			c0.37,0.01,0.52-0.1,0.51-0.4c-0.01-0.71-0.01-1.41,0-2.12c0.01-0.3-0.17-0.41-0.52-0.4c-0.94,0.01-1.88,0.01-2.82,0
			c-0.39,0-0.56,0.12-0.55,0.44c0.01,0.69,0.01,1.38,0,2.07c-0.01,0.33,0.19,0.43,0.57,0.42C18.23,12.61,18.68,12.62,19.13,12.62z"
			/>
		<path class="st0" d="M28.77,21.56c-0.94,0-1.88,0.01-2.83,0c-0.78-0.01-1.21-0.3-1.22-0.92c-0.03-1.46-0.03-2.92,0-4.39
			c0.02-0.67,0.45-0.96,1.31-0.96c1.84-0.01,3.69-0.01,5.53,0c0.93,0,1.29,0.3,1.3,1.06c0.01,1.4,0.01,2.79,0,4.19
			c0,0.73-0.37,1.02-1.27,1.02C30.66,21.57,29.71,21.56,28.77,21.56z M28.64,19.91c0.57,0,1.04-0.01,1.51,0
			c0.41,0.01,0.6-0.1,0.59-0.45c-0.02-0.67-0.02-1.34,0-2.02c0.01-0.34-0.19-0.47-0.59-0.46c-0.51,0.01-1.02,0-1.53,0
			c-1.77,0-1.78,0-1.76,1.42c0.01,0.47-0.25,1.07,0.12,1.38C27.38,20.13,28.14,19.85,28.64,19.91z"/>
		<path class="st0" d="M19.18,21.56c-0.94,0-1.88,0-2.83,0c-0.87-0.01-1.26-0.29-1.26-0.98c-0.01-1.45-0.01-2.89,0-4.34
			c0.01-0.63,0.39-0.95,1.17-0.96c1.93-0.01,3.85-0.01,5.78,0c0.71,0,1.15,0.29,1.17,0.86c0.04,1.51,0.04,3.02,0,4.53
			c-0.02,0.61-0.44,0.87-1.2,0.88C21.07,21.57,20.12,21.56,19.18,21.56z M19.13,19.91c0.49,0,0.98-0.01,1.47,0
			c0.36,0.01,0.52-0.09,0.52-0.4c-0.01-0.7-0.01-1.41,0-2.11c0.01-0.3-0.16-0.41-0.52-0.41c-0.94,0.01-1.88,0.01-2.82,0
			c-0.43-0.01-0.57,0.16-0.56,0.48c0.01,0.64,0.03,1.28-0.01,1.92c-0.02,0.42,0.2,0.55,0.69,0.52
			C18.31,19.89,18.72,19.91,19.13,19.91z"/>
		<path class="st0" d="M37.45,19.91c0-0.74-0.01-1.48,0-2.22c0.01-0.64,0.38-0.92,1.18-0.93c1.68-0.01,3.36-0.01,5.04,0
			c0.78,0,1.2,0.31,1.21,0.93c0.03,1.48,0.03,2.96,0,4.43c-0.01,0.59-0.45,0.9-1.18,0.91c-1.7,0.01-3.4,0.01-5.1,0
			c-0.78-0.01-1.14-0.31-1.15-0.96C37.44,21.36,37.45,20.64,37.45,19.91z M39.51,19.9c0,0.33,0.01,0.66,0,0.98
			c-0.02,0.31,0.12,0.46,0.53,0.45c0.73-0.01,1.47-0.01,2.2,0c0.4,0,0.53-0.15,0.53-0.45c-0.01-0.65-0.01-1.31,0-1.96
			c0.01-0.31-0.13-0.46-0.53-0.45c-0.73,0.01-1.47,0.01-2.2,0c-0.41-0.01-0.54,0.15-0.52,0.46C39.53,19.25,39.51,19.58,39.51,19.9z"
			/>
		<path class="st0" d="M10.5,19.9c0,0.74,0.01,1.48,0,2.22c-0.01,0.6-0.38,0.91-1.14,0.92c-1.7,0.01-3.4,0.01-5.1,0
			c-0.75,0-1.17-0.3-1.19-0.9c-0.03-1.49-0.03-2.99,0-4.48c0.01-0.59,0.44-0.89,1.19-0.89c1.7-0.01,3.4-0.01,5.1,0
			c0.76,0,1.12,0.3,1.13,0.92C10.51,18.43,10.5,19.16,10.5,19.9z M8.44,19.9c0-0.33-0.01-0.66,0-0.98c0.02-0.3-0.12-0.46-0.52-0.45
			c-0.73,0.01-1.47,0.01-2.2,0c-0.4,0-0.54,0.15-0.53,0.45c0.01,0.65,0.02,1.31,0,1.96c-0.01,0.35,0.18,0.46,0.59,0.46
			c0.69-0.01,1.39-0.02,2.08,0c0.46,0.01,0.61-0.16,0.59-0.5C8.43,20.53,8.44,20.22,8.44,19.9z"/>
	</g>
</g>
<g id="hotel" class="st1">
	<g class="st2">
		<path class="st0" d="M23.98,48c-7.64,0-15.28,0-22.92,0c-0.9,0-1.05-0.15-1.05-1.05c0-0.59-0.01-1.18,0-1.77
			c0.01-0.57,0.23-0.78,0.79-0.78c0.89-0.01,1.78-0.02,2.67,0.01c0.43,0.01,0.54-0.14,0.53-0.55C3.99,40.31,4,36.76,4,33.21
			c0-5.41,0-10.82-0.01-16.23c0-0.5,0.17-0.79,0.64-0.98c3.59-1.52,7.18-3.05,10.76-4.59c0.42-0.18,0.77-0.17,1.18,0.01
			c1.28,0.57,2.57,1.11,3.86,1.66c0.48,0.2,0.51,0.19,0.51-0.33c0-2.31,0.02-4.62-0.01-6.92c-0.01-0.7,0.22-1.08,0.89-1.37
			c3.41-1.42,6.79-2.89,10.19-4.35c0.31-0.13,0.61-0.15,0.92-0.01c3.51,1.5,7.02,3,10.53,4.5C43.83,4.75,44.02,5,44,5.41
			c-0.02,0.4,0,0.8,0,1.19c0,12.37,0,24.73,0,37.1c0,0.7,0,0.7,0.71,0.7c0.84,0,1.69-0.01,2.53,0c0.51,0.01,0.74,0.21,0.75,0.72
			c0.02,0.72,0.02,1.43,0,2.15C47.97,47.81,47.73,48,47.14,48c-2.8,0-5.6,0-8.4,0C33.82,48,28.9,48,23.98,48z M33.11,22.97
			c0,6.96,0,13.91-0.01,20.87c0,0.43,0.11,0.57,0.56,0.57c2.82-0.02,5.64-0.01,8.45-0.01c0.67,0,0.67,0,0.67-0.69
			c0-12.46,0-24.93,0.01-37.39c0-0.49-0.15-0.73-0.6-0.92C39.36,4.22,36.54,3,33.72,1.79c-0.61-0.26-0.61-0.26-0.61,0.41
			C33.11,9.12,33.11,16.05,33.11,22.97z M31.84,22.99c0-6.94,0-13.88,0-20.82c0-0.61-0.02-0.62-0.57-0.38
			c-2.79,1.19-5.58,2.4-8.39,3.57c-0.5,0.21-0.68,0.45-0.68,1.01c0.02,8.39,0.01,16.77,0.01,25.16c0,4.11,0,8.21-0.01,12.32
			c0,0.41,0.1,0.59,0.53,0.55c0.35-0.03,0.7-0.02,1.05,0c0.34,0.02,0.49-0.09,0.48-0.46c-0.01-2.55-0.01-5.09,0-7.64
			c0-0.29-0.09-0.42-0.38-0.49c-0.29-0.07-0.42-0.32-0.4-0.63c0.02-0.29,0.19-0.47,0.47-0.53c0.15-0.04,0.31-0.06,0.47-0.08
			c0.92-0.09,1.83-0.18,2.75-0.26c0.92-0.08,1.84-0.16,2.76-0.22c0.35-0.02,0.59,0.15,0.66,0.5c0.06,0.3-0.08,0.58-0.37,0.64
			c-0.41,0.1-0.41,0.36-0.41,0.68c0,2.4,0,4.81,0,7.21c0,1.28,0,1.28,1.28,1.28c0.73,0,0.74,0,0.74-0.73
			C31.84,36.78,31.84,29.89,31.84,22.99z M15.31,28.62c0-5.01,0-10.03,0-15.04c0-0.14,0-0.29,0-0.43c0-0.2-0.09-0.3-0.3-0.21
			c-0.12,0.05-0.24,0.09-0.35,0.14c-2.96,1.26-5.91,2.54-8.87,3.78c-0.44,0.19-0.57,0.42-0.57,0.89c0.01,8.66,0.01,17.31,0.01,25.97
			c0,0.1,0.01,0.19,0,0.29c-0.02,0.28,0.09,0.41,0.38,0.4c0.52-0.01,1.05-0.01,1.58,0c0.27,0,0.36-0.12,0.36-0.38
			c0-1.99-0.01-3.98,0-5.97c0-0.26-0.1-0.36-0.35-0.41c-0.29-0.06-0.48-0.28-0.47-0.58c0-0.32,0.19-0.54,0.51-0.6
			c0.19-0.04,0.38-0.06,0.57-0.08c0.51-0.05,1.01-0.1,1.52-0.15c1.28-0.11,2.56-0.23,3.85-0.33c0.37-0.03,0.63,0.15,0.68,0.52
			c0.05,0.35-0.14,0.59-0.48,0.66c-0.26,0.06-0.33,0.2-0.33,0.44c0,2.16,0.01,4.33,0,6.49c0,0.29,0.12,0.39,0.4,0.38
			c0.4-0.01,0.8,0,1.19,0c0.67,0,0.67,0,0.67-0.7C15.31,38.67,15.31,33.65,15.31,28.62z M16.58,28.6c0,0.19,0,0.38,0,0.57
			c0,4.85,0,9.71,0,14.56c0,0.67,0,0.67,0.69,0.67c0.99,0,1.97,0,2.96,0c0.72,0,0.72,0,0.72-0.7c0-3.82,0-7.64,0-11.46
			c0-5.66,0-11.33,0.01-16.99c0-0.45-0.13-0.69-0.56-0.85c-1.05-0.41-2.08-0.88-3.12-1.32c-0.69-0.29-0.69-0.29-0.69,0.48
			C16.58,18.57,16.58,23.59,16.58,28.6z M24.05,45.61c-7.39,0-14.77,0-22.16-0.01c-0.49,0-0.61,0.14-0.62,0.62
			c-0.01,0.54,0.24,0.57,0.67,0.57c14.71-0.01,29.42-0.01,44.13-0.01c0.11,0,0.22,0,0.33,0c0.22,0.01,0.3-0.11,0.32-0.32
			c0.08-0.78,0.03-0.85-0.75-0.85C38.66,45.61,31.36,45.61,24.05,45.61z M28.55,39.99c0-1.34-0.01-2.67,0.01-4.01
			c0.01-0.4-0.13-0.54-0.53-0.5c-0.68,0.08-1.36,0.14-2.04,0.2c-0.3,0.03-0.45,0.15-0.45,0.48c0.01,2.61,0.01,5.22,0,7.83
			c0,0.31,0.13,0.42,0.43,0.41c0.7-0.01,1.4-0.02,2.1,0c0.39,0.01,0.49-0.13,0.49-0.5C28.54,42.6,28.55,41.3,28.55,39.99z
			 M11.77,40.87c0-1.03-0.01-2.06,0.01-3.1c0.01-0.39-0.15-0.51-0.51-0.47c-0.66,0.08-1.33,0.14-1.99,0.19
			c-0.33,0.03-0.47,0.19-0.47,0.52c0.01,1.97,0.01,3.94,0,5.91c0,0.39,0.16,0.49,0.52,0.48c0.65-0.02,1.3-0.02,1.95,0
			c0.37,0.01,0.51-0.11,0.5-0.49C11.75,42.9,11.77,41.88,11.77,40.87z"/>
		<path class="st0" d="M34.58,23.85c0-5.94,0-11.87,0-17.81c0-0.72,0.19-1.05,0.61-1.06c0.44-0.02,0.67,0.35,0.67,1.07
			c0,11.86,0,23.72,0,35.57c0,0.72-0.2,1.03-0.64,1.02c-0.45,0-0.63-0.3-0.63-1.03C34.58,35.69,34.58,29.77,34.58,23.85z"/>
		<path class="st0" d="M41.31,24.99c0,5.52,0,11.04,0,16.56c0,0.22,0.02,0.45-0.06,0.66c-0.1,0.27-0.28,0.42-0.57,0.43
			c-0.31,0.01-0.52-0.15-0.6-0.44c-0.05-0.18-0.05-0.38-0.05-0.57c0-11.11,0-22.21,0-33.32c0-0.11,0-0.22,0.01-0.33
			c0.03-0.38,0.21-0.65,0.61-0.66c0.41-0.01,0.6,0.25,0.65,0.63c0.02,0.19,0.01,0.38,0.01,0.57C41.31,14.01,41.31,19.5,41.31,24.99z
			"/>
		<path class="st0" d="M37.33,24.42c0-5.76,0-11.52,0-17.28c0-0.7,0.18-1,0.61-1c0.42,0,0.61,0.31,0.61,1c0,11.5,0,23.01,0,34.51
			c0,0.05,0,0.1,0,0.14c-0.01,0.57-0.21,0.84-0.61,0.84c-0.41,0-0.6-0.26-0.6-0.84C37.33,36.01,37.33,30.21,37.33,24.42z"/>
		<path class="st0" d="M30.9,14.19c0,0.67-0.01,1.33,0,2c0.01,0.45-0.2,0.72-0.63,0.83c-0.67,0.19-1.34,0.38-2.02,0.56
			c-0.6,0.15-0.93-0.1-0.93-0.72c-0.01-1.3,0-2.6-0.01-3.91c0-0.4,0.18-0.66,0.56-0.79c0.71-0.24,1.41-0.49,2.12-0.72
			c0.51-0.17,0.88,0.09,0.9,0.65C30.92,12.79,30.9,13.49,30.9,14.19C30.9,14.19,30.9,14.19,30.9,14.19z M28.6,14.63
			c0,0.33-0.01,0.67,0,1c0.01,0.18-0.1,0.45,0.23,0.48c0.34,0.04,0.78-0.24,0.79-0.51c0.01-0.78,0.01-1.55,0-2.33
			c0-0.24-0.07-0.35-0.35-0.28c-0.61,0.16-0.68,0.22-0.68,0.87C28.6,14.12,28.6,14.38,28.6,14.63z"/>
		<path class="st0" d="M30.9,21.05c0,0.67,0.01,1.33,0,2c-0.01,0.53-0.19,0.74-0.71,0.85c-0.67,0.13-1.34,0.26-2.01,0.37
			c-0.51,0.09-0.84-0.16-0.85-0.7c-0.02-1.35-0.01-2.7,0-4.05c0-0.38,0.21-0.62,0.58-0.71c0.71-0.17,1.42-0.36,2.13-0.52
			c0.52-0.12,0.85,0.13,0.86,0.66C30.92,19.66,30.9,20.36,30.9,21.05C30.9,21.05,30.9,21.05,30.9,21.05z M29.63,21.26
			c0-0.33,0.02-0.67-0.01-1c-0.01-0.19,0.12-0.54-0.24-0.49c-0.3,0.04-0.77-0.04-0.78,0.49c-0.01,0.78,0,1.55,0,2.33
			c0,0.11,0,0.23,0.13,0.28c0.33,0.15,0.88-0.19,0.89-0.56C29.63,21.96,29.63,21.61,29.63,21.26z"/>
		<path class="st0" d="M30.9,27.99c0,0.65-0.01,1.3,0,1.96c0,0.45-0.19,0.74-0.64,0.8c-0.74,0.09-1.48,0.17-2.23,0.22
			c-0.42,0.03-0.7-0.24-0.7-0.67c-0.02-1.37-0.01-2.74,0-4.1c0-0.38,0.21-0.63,0.59-0.69c0.74-0.12,1.47-0.25,2.21-0.35
			c0.45-0.06,0.75,0.21,0.76,0.7C30.91,26.56,30.9,27.28,30.9,27.99C30.9,27.99,30.9,27.99,30.9,27.99z M29.62,28
			C29.62,28,29.63,28,29.62,28c0-0.32,0.02-0.64,0-0.95c-0.01-0.2,0.12-0.56-0.29-0.5c-0.3,0.04-0.76-0.08-0.74,0.5
			c0.02,0.72,0.01,1.43,0,2.15c0,0.31,0.12,0.44,0.43,0.41c0.28-0.02,0.61,0.04,0.6-0.41C29.62,28.8,29.62,28.4,29.62,28z"/>
		<path class="st0" d="M30.9,7.45c0,0.6-0.01,1.21,0,1.81c0.01,0.44-0.17,0.73-0.58,0.88c-0.69,0.25-1.37,0.52-2.06,0.76
			c-0.54,0.19-0.93-0.08-0.94-0.65c-0.02-1.26-0.01-2.51,0-3.77c0-0.32,0.15-0.55,0.44-0.68c0.74-0.32,1.48-0.66,2.24-0.96
			c0.49-0.2,0.88,0.08,0.9,0.64C30.92,6.15,30.9,6.8,30.9,7.45C30.9,7.45,30.9,7.45,30.9,7.45z M29.63,7.75c0-0.35,0-0.7,0-1.05
			c0-0.1,0.03-0.23-0.13-0.26c-0.32-0.05-0.88,0.41-0.89,0.74c-0.01,0.51-0.01,1.02,0,1.53c0.01,0.21-0.12,0.52,0.09,0.62
			c0.25,0.11,0.51-0.11,0.75-0.21c0.17-0.08,0.18-0.25,0.18-0.41C29.63,8.39,29.62,8.07,29.63,7.75z"/>
		<path class="st0" d="M26.5,15.54c0,0.62-0.01,1.24,0,1.86c0.01,0.46-0.2,0.75-0.65,0.87c-0.57,0.15-1.13,0.33-1.7,0.47
			c-0.64,0.16-0.94-0.08-0.95-0.74c-0.01-1.21,0.01-2.42-0.01-3.63c0-0.43,0.16-0.69,0.57-0.82c0.56-0.18,1.11-0.39,1.67-0.57
			c0.72-0.23,1.06,0.02,1.07,0.79C26.51,14.36,26.5,14.95,26.5,15.54z M25.22,15.79c0-0.29,0.02-0.58-0.01-0.86
			c-0.02-0.16,0.16-0.49-0.2-0.46c-0.26,0.02-0.6,0.06-0.6,0.47c0,0.7,0,1.4,0,2.1c0,0.13,0,0.28,0.2,0.24
			c0.31-0.05,0.65-0.07,0.62-0.55C25.2,16.43,25.22,16.11,25.22,15.79z"/>
		<path class="st0" d="M23.2,22.46c0-0.62,0.01-1.24,0-1.86c-0.01-0.41,0.17-0.66,0.57-0.76c0.62-0.15,1.23-0.32,1.85-0.45
			c0.55-0.11,0.86,0.14,0.87,0.71c0.02,1.29,0.01,2.58,0,3.87c0,0.4-0.2,0.66-0.61,0.73c-0.61,0.11-1.22,0.25-1.83,0.35
			c-0.57,0.09-0.85-0.15-0.86-0.73C23.19,23.7,23.2,23.08,23.2,22.46z M25.22,22.22c0-0.32,0.01-0.63-0.01-0.95
			c-0.01-0.16,0.11-0.45-0.2-0.43c-0.26,0.01-0.61,0-0.61,0.43c0,0.7,0,1.39,0,2.09c0,0.26,0.12,0.32,0.36,0.29
			c0.31-0.05,0.48-0.17,0.45-0.53C25.2,22.82,25.22,22.52,25.22,22.22z"/>
		<path class="st0" d="M26.5,28.53c0,0.62,0.01,1.24,0,1.86c-0.01,0.53-0.22,0.74-0.75,0.79c-0.54,0.05-1.07,0.11-1.61,0.17
			c-0.66,0.07-0.93-0.16-0.93-0.81c-0.01-1.19,0-2.38,0-3.58c0-0.58,0.13-0.75,0.68-0.85c0.61-0.11,1.22-0.2,1.84-0.28
			c0.47-0.06,0.77,0.22,0.78,0.74C26.51,27.22,26.5,27.88,26.5,28.53z M24.41,28.67c0,0.3-0.01,0.6,0,0.9
			c0.01,0.2-0.08,0.47,0.3,0.44c0.3-0.03,0.52-0.05,0.51-0.45c-0.02-0.65-0.02-1.3,0-1.95c0.01-0.34-0.09-0.45-0.45-0.38
			c-0.27,0.06-0.38,0.16-0.37,0.43C24.43,28,24.41,28.34,24.41,28.67z"/>
		<path class="st0" d="M23.2,10.01c0-0.57,0.01-1.15,0-1.72c-0.01-0.37,0.15-0.6,0.48-0.74c0.61-0.26,1.22-0.54,1.84-0.78
			c0.56-0.22,0.96,0.04,0.97,0.64c0.02,1.21,0.01,2.42,0,3.63c0,0.34-0.16,0.58-0.48,0.71c-0.65,0.25-1.31,0.5-1.97,0.72
			c-0.5,0.16-0.84-0.1-0.85-0.64C23.19,11.22,23.2,10.62,23.2,10.01z M24.42,9.71c0,0.32,0,0.63,0,0.95c0,0.13,0,0.29,0.19,0.25
			c0.3-0.07,0.64-0.11,0.62-0.57c-0.02-0.51,0-1.02,0-1.52c0-0.54-0.09-0.59-0.56-0.33c-0.17,0.1-0.26,0.22-0.25,0.42
			C24.42,9.17,24.42,9.44,24.42,9.71z"/>
		<path class="st0" d="M9.82,24.28c0-0.53,0.01-1.05,0-1.58c-0.01-0.41,0.16-0.67,0.55-0.79c0.58-0.18,1.15-0.37,1.73-0.54
			c0.47-0.14,0.82,0.06,0.86,0.54c0.09,1.21,0.07,2.42,0.01,3.62c-0.01,0.32-0.2,0.53-0.52,0.61c-0.59,0.15-1.17,0.31-1.76,0.44
			c-0.6,0.12-0.86-0.11-0.87-0.73C9.82,25.33,9.82,24.8,9.82,24.28z M11.74,23.94c0-0.29,0-0.57,0-0.86c0-0.2-0.08-0.25-0.27-0.2
			c-0.27,0.07-0.46,0.18-0.44,0.51c0.02,0.44-0.01,0.89,0.01,1.33c0.01,0.16-0.12,0.43,0.2,0.42c0.26-0.01,0.51-0.08,0.49-0.44
			C11.73,24.45,11.74,24.19,11.74,23.94z"/>
		<path class="st0" d="M13,29.39c0,0.54,0.02,1.08-0.01,1.62c-0.03,0.56-0.23,0.76-0.78,0.83c-0.55,0.07-1.1,0.16-1.65,0.21
			c-0.49,0.04-0.72-0.17-0.73-0.66c-0.01-1.11,0-2.23,0-3.34c0-0.35,0.16-0.58,0.51-0.66c0.6-0.13,1.21-0.28,1.82-0.38
			c0.53-0.09,0.8,0.12,0.83,0.66C13.02,28.25,12.99,28.82,13,29.39C12.99,29.39,13,29.39,13,29.39z M11.74,29.55
			c0-0.24,0.01-0.48,0-0.71c-0.01-0.18,0.05-0.42-0.25-0.4c-0.25,0.02-0.46,0.1-0.45,0.43c0.02,0.49,0,0.98,0.01,1.47
			c0,0.16-0.06,0.39,0.23,0.37c0.23-0.02,0.49-0.04,0.47-0.39C11.73,30.06,11.74,29.8,11.74,29.55z"/>
		<path class="st0" d="M9.82,18.95c0-0.49,0.01-0.99,0-1.48c-0.01-0.38,0.15-0.64,0.5-0.78c0.57-0.24,1.14-0.49,1.72-0.72
			c0.52-0.2,0.91,0.02,0.94,0.58c0.06,1.1,0.06,2.19,0,3.29c-0.02,0.34-0.21,0.55-0.53,0.66c-0.56,0.19-1.1,0.41-1.67,0.59
			c-0.62,0.2-0.95-0.06-0.96-0.71C9.82,19.91,9.82,19.43,9.82,18.95z M11.74,18.43C11.74,18.43,11.74,18.43,11.74,18.43
			c0-0.16,0.02-0.32,0-0.48c-0.02-0.14,0.1-0.37-0.1-0.41c-0.18-0.04-0.36,0.09-0.51,0.22c-0.1,0.08-0.08,0.2-0.08,0.31
			c0,0.36-0.02,0.73,0.01,1.09c0.01,0.15-0.14,0.44,0.18,0.43c0.25-0.01,0.51-0.1,0.51-0.45C11.73,18.9,11.74,18.67,11.74,18.43z"/>
		<path class="st0" d="M9.32,24.77c0,0.51-0.01,1.02,0,1.53c0.01,0.41-0.17,0.67-0.57,0.77c-0.51,0.13-1.02,0.27-1.53,0.37
			c-0.47,0.09-0.8-0.15-0.81-0.63c-0.02-1.05-0.02-2.1,0-3.15c0-0.31,0.18-0.54,0.48-0.64c0.53-0.17,1.06-0.35,1.6-0.49
			c0.48-0.13,0.81,0.12,0.82,0.63C9.33,23.69,9.32,24.23,9.32,24.77z M8.1,24.97C8.1,24.97,8.1,24.97,8.1,24.97
			c0.01-0.19,0.02-0.38,0-0.57c-0.01-0.14,0.11-0.36-0.14-0.38C7.73,24,7.68,24.19,7.68,24.38c0,0.44,0,0.89,0,1.33
			c0,0.12-0.02,0.27,0.18,0.26c0.15-0.01,0.24-0.09,0.24-0.24C8.1,25.48,8.1,25.23,8.1,24.97z"/>
		<path class="st0" d="M9.32,30.01c0,0.52-0.01,1.05,0,1.57c0.01,0.44-0.21,0.68-0.64,0.74c-0.52,0.07-1.04,0.15-1.56,0.19
			c-0.45,0.04-0.71-0.22-0.71-0.64c-0.02-1.05-0.01-2.09,0-3.14c0-0.34,0.19-0.57,0.53-0.65c0.53-0.12,1.05-0.23,1.58-0.33
			c0.5-0.09,0.78,0.15,0.79,0.68C9.33,28.96,9.32,29.49,9.32,30.01z M7.68,30.18C7.68,30.18,7.68,30.18,7.68,30.18
			c0,0.24-0.01,0.47,0,0.71c0,0.12-0.01,0.27,0.18,0.26c0.15-0.01,0.23-0.09,0.23-0.24c0-0.49,0-0.98,0-1.47
			c0-0.14-0.05-0.26-0.22-0.24c-0.16,0.01-0.2,0.14-0.2,0.27C7.68,29.7,7.68,29.94,7.68,30.18z"/>
		<path class="st0" d="M9.32,19.64c0,0.48-0.01,0.95,0,1.43c0.01,0.37-0.16,0.6-0.5,0.72c-0.51,0.18-1.01,0.37-1.53,0.53
			c-0.49,0.15-0.87-0.1-0.88-0.62c-0.03-0.97-0.01-1.94,0-2.9c0-0.29,0.15-0.52,0.42-0.64c0.52-0.23,1.04-0.47,1.58-0.67
			c0.52-0.19,0.88,0.06,0.9,0.61C9.33,18.63,9.32,19.13,9.32,19.64z M8.1,19.87C8.1,19.87,8.1,19.87,8.1,19.87
			c0.01-0.16,0.02-0.32,0-0.48c-0.01-0.12,0.09-0.33-0.14-0.32c-0.18,0-0.27,0.15-0.27,0.33c0,0.38,0,0.76,0,1.14
			c0,0.11,0.02,0.24,0.17,0.24c0.15,0,0.23-0.1,0.24-0.24C8.1,20.31,8.1,20.09,8.1,19.87z"/>
	</g>
</g>
</svg>
