<?xml version="1.0" encoding="utf-8"?>
<!-- Generator: Adobe Illustrator 26.0.1, SVG Export Plug-In . SVG Version: 6.00 Build 0)  -->
<svg version="1.1" id="Layer_1" xmlns="http://www.w3.org/2000/svg" xmlns:xlink="http://www.w3.org/1999/xlink" x="0px" y="0px"
	 viewBox="0 0 48 48" style="enable-background:new 0 0 48 48;" xml:space="preserve">
<style type="text/css">
	.st0{display:none;}
	.st1{display:inline;}
	.st2{fill:#187BCD;}
</style>
<g id="consultation" class="st0">
	<g class="st1">
		<path class="st2" d="M221.46,192.95c1.09-0.03,2.15,0.1,3.2,0.37c0.37,0.1,0.5,0.05,0.53-0.38c0.39-6.55,4.99-11.91,11.43-13.19
			c8.23-1.63,15.57,3.95,16.86,11.53c0.66,3.89-0.15,7.46-2.4,10.7c-0.2,0.28-0.23,0.49-0.03,0.79c0.81,1.26,1.6,2.53,2.4,3.79
			c0.22,0.35,0.37,0.7,0.11,1.09c-0.27,0.4-0.67,0.39-1.09,0.29c-2.07-0.46-4.14-0.91-6.21-1.37c-0.26-0.06-0.48-0.04-0.72,0.07
			c-3.01,1.38-6.13,1.72-9.35,0.97c-0.38-0.09-0.48-0.01-0.49,0.38c-0.18,5.82-4.5,11.3-10.14,12.9c-3.43,0.97-6.78,0.76-10.03-0.72
			c-0.36-0.16-0.69-0.19-1.08-0.1c-1.97,0.45-3.95,0.88-5.93,1.33c-0.26,0.06-0.53,0.11-0.79,0.03c-0.52-0.16-0.68-0.73-0.35-1.27
			c0.78-1.26,1.56-2.52,2.38-3.75c0.26-0.39,0.26-0.66-0.01-1.06c-4.05-5.89-3.25-13.61,1.93-18.51
			C214.4,194.25,217.69,192.97,221.46,192.95z M209.68,219.48c1.69-0.37,3.22-0.7,4.75-1.06c0.53-0.13,0.99-0.07,1.48,0.18
			c2.45,1.21,5.05,1.57,7.73,1.1c6.61-1.16,11.34-7.39,10.33-14.32c-1-6.85-7.49-11.91-14.75-10.63
			c-6.33,1.11-10.78,6.86-10.42,13.08c0.16,2.63,1,4.99,2.59,7.09c0.6,0.79,0.61,0.89,0.07,1.74
			C210.9,217.55,210.33,218.46,209.68,219.48z M251.07,205.98c0.01-0.23-0.12-0.34-0.2-0.47c-0.54-0.86-1.08-1.71-1.62-2.57
			c-0.33-0.52-0.31-0.81,0.05-1.28c2.26-2.89,3.16-6.15,2.64-9.78c-1.06-7.39-8.38-12.36-15.81-10.39
			c-5.08,1.35-9.15,5.88-9.41,11.88c-0.02,0.42,0.11,0.63,0.5,0.81c4.71,2.21,7.5,5.9,8.34,11.03c0.08,0.49,0.26,0.68,0.72,0.78
			c3.04,0.71,5.97,0.44,8.79-0.93c0.38-0.19,0.75-0.25,1.17-0.15c0.8,0.2,1.61,0.36,2.42,0.54
			C249.45,205.63,250.25,205.8,251.07,205.98z"/>
		<path class="st2" d="M220.67,208.14c0-0.51,0-1.03,0-1.54c0.01-0.6,0.22-0.83,0.82-0.92c1.22-0.17,1.9-0.77,2.11-1.85
			c0.21-1.09-0.5-2.2-1.58-2.47c-1.16-0.29-2.39,0.34-2.64,1.47c-0.13,0.57-0.36,0.71-0.9,0.69c-0.88-0.04-0.91-0.05-0.71-0.91
			c0.43-1.83,2.01-2.98,3.98-2.91c1.67,0.06,3.16,1.43,3.45,3.16c0.3,1.77-0.73,3.56-2.44,4.16c-0.42,0.15-0.55,0.34-0.53,0.76
			c0.03,0.67,0,1.34,0.01,2.01c0.01,0.35-0.13,0.46-0.47,0.46c-1.31-0.03-1.08,0.15-1.1-1.08
			C220.66,208.82,220.67,208.48,220.67,208.14z"/>
		<path class="st2" d="M220.3,212.79c0.01-0.66,0.5-1.13,1.17-1.12c0.68,0.01,1.15,0.51,1.13,1.21c-0.02,0.65-0.52,1.12-1.19,1.1
			C220.75,213.96,220.28,213.46,220.3,212.79z"/>
		<path class="st2" d="M239.42,190.03c-1.82,0-3.65-0.01-5.47,0.01c-0.42,0-0.58-0.12-0.56-0.55c0.04-1.18-0.13-1.01,1.02-1.01
			c3.47-0.01,6.95,0.01,10.42-0.01c0.47,0,0.63,0.12,0.61,0.6c-0.04,1.11,0.12,0.96-0.98,0.97
			C242.78,190.03,241.1,190.03,239.42,190.03z"/>
		<path class="st2" d="M239.38,194.52c-1.81,0-3.62-0.01-5.42,0.01c-0.46,0.01-0.59-0.15-0.57-0.59c0.04-1.12-0.12-0.98,0.97-0.98
			c3.47-0.01,6.95,0,10.42,0c0.66,0,0.66,0,0.66,0.67c-0.01,0.99,0.1,0.88-0.86,0.89C242.84,194.52,241.11,194.52,239.38,194.52z"/>
		<path class="st2" d="M240.91,197.45c1.34,0,2.68,0.01,4.02-0.01c0.38,0,0.52,0.12,0.51,0.51c-0.03,1.24,0.13,1.06-1.02,1.06
			c-2.48,0.01-4.95-0.01-7.43,0.01c-0.47,0-0.63-0.12-0.61-0.6c0.04-1.11-0.12-0.96,0.98-0.97
			C238.54,197.44,239.73,197.45,240.91,197.45z"/>
	</g>
</g>
<g id="execution" class="st0">
	<g class="st1">
		<path class="st2" d="M106.86-2.6c5.96,0,11.93,0.02,17.89-0.02c1.32-0.01,2.41,0.73,2.43,2.27c0.01,0.96,0.06,1.92-0.04,2.88
			c-0.08,0.77-0.46,1.33-1.14,1.69c-0.34,0.18-0.51,0.75-0.35,1.1c0.08,0.17,0.23,0.16,0.38,0.17c0.98,0.09,1.16,0.29,1.19,1.26
			c0.01,0.25-0.12,0.59,0.13,0.75c0.35,0.21,0.75,0.34,1.14,0.49c0.1,0.04,0.18-0.06,0.25-0.13c0.13-0.12,0.26-0.25,0.4-0.38
			c0.7-0.65,0.99-0.64,1.66,0.03c0.56,0.56,1.13,1.12,1.68,1.69c0.43,0.45,0.43,0.84,0.01,1.31c-0.01,0.01-0.02,0.02-0.03,0.04
			c-0.69,0.75-0.71,1-0.2,1.88c0.12,0.2,0.28,0.19,0.46,0.2c1.56,0.06,1.56,0.07,1.56,1.63c0,0.65,0,1.29,0,1.94
			c-0.01,0.65-0.28,0.92-0.94,0.96c-0.02,0-0.03,0-0.05,0c-1.07,0.04-1.07,0.06-1.41,1.1c-0.08,0.26,0.03,0.42,0.19,0.57
			c1.17,1.06,0.8,1.43-0.1,2.28c-0.46,0.43-0.89,0.89-1.34,1.33c-0.47,0.46-0.8,0.46-1.3,0.04c-0.04-0.03-0.07-0.07-0.11-0.1
			c-0.75-0.66-0.91-0.67-1.79-0.16c-0.15,0.09-0.22,0.19-0.22,0.36c0,0.2-0.01,0.4-0.01,0.6c-0.02,0.8-0.27,1.06-1.07,1.12
			c-0.22,0.02-0.48-0.04-0.52,0.3c-0.04,0.32,0.09,0.47,0.4,0.57c0.95,0.31,1.39,0.93,1.4,1.93c0,0.43,0.01,0.86,0,1.29
			c-0.02,1.12-0.8,1.9-1.92,1.9c-2.67,0.01-5.33,0-8,0c-0.62,0-0.62,0-0.34,0.54c0.7,1.32,1.4,2.63,2.11,3.95
			c0.57,1.06,0.39,1.72-0.65,2.29c-0.58,0.32-1.17,0.62-1.75,0.93c-0.94,0.5-1.63,0.29-2.14-0.67c-1.16-2.18-2.33-4.35-3.47-6.54
			c-0.2-0.38-0.42-0.51-0.85-0.51c-2.37,0.02-4.74,0.02-7.11,0c-0.4,0-0.62,0.12-0.81,0.48c-1.18,2.24-2.38,4.48-3.57,6.71
			c-0.28,0.52-0.71,0.89-1.28,0.75c-1.22-0.29-2.31-0.89-3.24-1.72c-0.45-0.4-0.34-1-0.06-1.53c0.74-1.39,1.48-2.78,2.22-4.17
			c0.28-0.53,0.28-0.53-0.3-0.53c-2.63,0-5.27,0-7.9,0c-1.33,0-2.06-0.73-2.06-2.06c0-0.41,0-0.83,0-1.24
			c0.01-0.88,0.47-1.56,1.3-1.79c0.44-0.12,0.52-0.35,0.51-0.74c-0.01-6.51-0.01-13.02,0-19.53c0-0.36-0.09-0.56-0.43-0.73
			c-0.8-0.39-1.12-1.1-1.14-1.95c-0.02-0.88-0.03-1.76,0-2.63c0.05-1.4,0.88-2.2,2.28-2.2C94.84-2.6,100.85-2.6,106.86-2.6z
			 M106.87,25.06c5.53,0,11.07,0,16.6,0c0.17,0,0.33,0,0.5,0c0.23,0,0.31-0.11,0.33-0.34c0.03-0.38-0.18-0.43-0.49-0.44
			c-0.88-0.05-1.09-0.29-1.11-1.17c0-0.18,0-0.36-0.01-0.55c0-0.14-0.05-0.25-0.17-0.33c-0.78-0.52-1.18-0.49-1.88,0.16
			c-0.01,0.01-0.02,0.02-0.04,0.03c-0.5,0.46-0.88,0.46-1.38-0.02c-0.43-0.41-0.85-0.84-1.27-1.26c-1.17-1.17-1.17-1.17-0.09-2.39
			c0.11-0.12,0.23-0.22,0.18-0.43c-0.22-0.93-0.47-1.15-1.41-1.18c-0.73-0.03-1.03-0.31-1.05-1.03c-0.02-0.61-0.01-1.23-0.01-1.84
			c0-1.51,0.09-1.61,1.57-1.66c0.18-0.01,0.35,0.02,0.48-0.17c0.52-0.79,0.49-1.17-0.16-1.88c-0.02-0.02-0.05-0.05-0.07-0.07
			c-0.43-0.48-0.44-0.84,0.01-1.3c0.47-0.49,0.96-0.97,1.44-1.45c0.99-0.99,1.09-0.99,2.14-0.06c0.13,0.12,0.25,0.35,0.43,0.29
			c0.41-0.13,0.83-0.27,1.18-0.5c0.23-0.15,0.1-0.5,0.11-0.75c0.02-0.96,0.2-1.17,1.15-1.22c0.3-0.02,0.45-0.1,0.45-0.43
			c0.01-0.59-0.01-0.63-0.64-0.63c-11.18,0-22.36,0-33.55,0c-0.67,0-0.67,0-0.67,0.7c0,6.39,0,12.79,0,19.18
			c0,0.75,0,0.75,0.77,0.75C95.77,25.06,101.32,25.06,106.87,25.06z M106.82,3.11c3.86,0,7.72,0,11.58,0c2.17,0,4.34,0,6.51,0
			c0.65,0,0.94-0.24,0.96-0.81c0.02-0.93,0.02-1.86,0-2.78c-0.01-0.47-0.3-0.77-0.76-0.83c-0.18-0.02-0.36-0.01-0.55-0.01
			c-11.8,0-23.59,0-35.39,0c-0.13,0-0.27,0-0.4,0c-0.6,0.03-0.9,0.34-0.91,0.95c-0.01,0.76,0,1.52,0,2.29
			c0,1.04,0.17,1.21,1.21,1.21C94.99,3.11,100.9,3.11,106.82,3.11z M106.89,26.39c-6.1,0-12.19,0-18.29,0
			c-0.23,0-0.49-0.06-0.68,0.07c-0.59,0.42-0.29,1.06-0.35,1.61c-0.04,0.34,0.02,0.67,0.38,0.84c0.23,0.11,0.49,0.09,0.73,0.09
			c12.12,0,24.25,0,36.37,0c0.12,0,0.23,0,0.35,0c0.45-0.03,0.71-0.23,0.7-0.71c0-0.3,0-0.6,0-0.89c0-0.9-0.11-1.01-0.99-1.01
			C119.04,26.39,112.97,26.39,106.89,26.39z M119.54,11.26c-0.01,0.05-0.02,0.14-0.06,0.21c-0.33,0.62-0.57,1.27-0.8,1.92
			c-0.13,0.37-0.46,0.48-0.84,0.49c-0.95,0.03-0.96,0.03-0.95,0.97c0.01,1.14-0.11,0.93,0.94,1.03c0.53,0.05,0.82,0.27,0.96,0.76
			c0.14,0.5,0.33,0.97,0.59,1.42c0.26,0.44,0.18,0.81-0.16,1.17c-0.65,0.7-0.64,0.71,0.03,1.38c0.01,0.01,0.02,0.02,0.04,0.04
			c0.63,0.63,0.64,0.64,1.28,0.03c0.41-0.39,0.81-0.46,1.29-0.17c0.44,0.27,0.93,0.44,1.42,0.58c0.41,0.12,0.66,0.38,0.66,0.82
			c0.01,1.3,0.12,1.02,1.12,1.05c0.03,0,0.07,0,0.1,0c0.7,0,0.7,0,0.74-0.69c0.05-0.86,0.16-1,0.98-1.27
			c0.43-0.14,0.84-0.31,1.23-0.54c0.44-0.25,0.81-0.18,1.17,0.15c0.69,0.64,0.7,0.63,1.37-0.05c0.71-0.73,0.76-0.54,0.04-1.34
			c-0.28-0.3-0.45-0.62-0.24-1.03c0.3-0.56,0.53-1.14,0.72-1.74c0.11-0.34,0.36-0.53,0.74-0.57c1.11-0.11,1.11-0.12,1.11-1.22
			c0-0.75-0.02-0.77-0.77-0.8c-0.07,0-0.13,0-0.2,0c-0.48,0.01-0.78-0.21-0.91-0.68c-0.15-0.51-0.33-1.01-0.6-1.47
			c-0.25-0.43-0.2-0.8,0.13-1.18c0.63-0.73,0.62-0.73-0.05-1.4c-0.01-0.01-0.02-0.02-0.04-0.04c-0.61-0.61-0.61-0.61-1.23-0.04
			c-0.49,0.45-0.71,0.49-1.29,0.18c-0.43-0.22-0.86-0.43-1.33-0.55c-0.53-0.13-0.78-0.46-0.8-0.99c-0.01-0.17-0.03-0.33-0.03-0.5
			c0-0.29-0.11-0.43-0.41-0.42c-0.36,0.01-0.73,0.01-1.09,0c-0.3-0.01-0.42,0.15-0.43,0.42c-0.01,0.18-0.01,0.36-0.01,0.55
			c0,0.46-0.21,0.76-0.64,0.89c-0.57,0.17-1.12,0.4-1.65,0.69c-0.33,0.18-0.63,0.11-0.92-0.11c-0.28-0.22-0.49-0.68-0.84-0.64
			c-0.35,0.05-0.56,0.48-0.84,0.74c-0.5,0.49-0.5,0.5,0,1.03C119.3,10.63,119.54,10.86,119.54,11.26z M114.02,30.28
			c-0.35,0-0.7,0.01-1.04,0c-0.36-0.02-0.5,0.06-0.29,0.44c1.06,1.97,2.11,3.94,3.15,5.92c0.15,0.29,0.3,0.28,0.55,0.14
			c0.49-0.28,0.98-0.55,1.49-0.79c0.35-0.16,0.42-0.32,0.22-0.67c-0.69-1.26-1.41-2.52-2.02-3.82
			C115.65,30.57,115.14,29.96,114.02,30.28z M101.16,30.48c0.01-0.23-0.15-0.19-0.27-0.19c-0.76,0-1.52,0-2.28,0
			c-0.24,0-0.35,0.13-0.45,0.32c-0.85,1.61-1.7,3.21-2.57,4.81c-0.16,0.29-0.07,0.4,0.18,0.53c0.53,0.26,1.06,0.54,1.58,0.84
			c0.28,0.16,0.42,0.12,0.58-0.17c1.02-1.95,2.06-3.88,3.09-5.82C101.07,30.68,101.11,30.57,101.16,30.48z"/>
		<path class="st2" d="M107.42,11.61c-1,0.55-1.84,1.11-2.65,1.71c-0.15,0.11-0.2,0.23-0.02,0.35c1.1,0.71,2.12,1.52,3.23,2.45
			c0-0.46-0.01-0.8,0-1.14c0.01-0.45,0.27-0.75,0.64-0.72c0.41,0.04,0.61,0.29,0.61,0.7c0,0.86,0,1.72,0,2.58
			c0,0.47-0.24,0.71-0.7,0.71c-0.86,0-1.72,0-2.58,0c-0.41,0-0.67-0.2-0.71-0.61c-0.04-0.37,0.27-0.63,0.71-0.65
			c0.15-0.01,0.3,0,0.45,0c0.15,0,0.29,0,0.55,0c-0.71-0.67-1.41-1.19-2.11-1.7c-0.28-0.2-0.6-0.37-0.86-0.59
			c-0.4-0.34-0.68-0.24-1.05,0.1c-1.55,1.44-2.94,3.01-4.14,4.75c-0.04,0.05-0.07,0.11-0.11,0.16c-0.3,0.4-0.66,0.5-0.98,0.25
			c-0.35-0.28-0.34-0.63-0.1-0.97c0.53-0.74,1.06-1.49,1.63-2.19c0.81-0.99,1.65-1.95,2.63-2.77c0.34-0.29,0.28-0.42-0.09-0.6
			c-1.56-0.78-3.17-1.42-4.85-1.9c-0.19-0.05-0.39-0.1-0.57-0.16c-0.43-0.15-0.64-0.48-0.52-0.82c0.15-0.41,0.46-0.54,0.87-0.43
			c1.27,0.34,2.51,0.75,3.71,1.26c0.86,0.36,1.69,0.77,2.51,1.2c0.18,0.09,0.35,0.21,0.55,0.06c1.06-0.81,2.19-1.54,3.44-2.27
			c-0.4-0.15-0.7-0.26-1-0.38c-0.38-0.15-0.61-0.41-0.49-0.84c0.11-0.38,0.47-0.53,0.93-0.38c0.79,0.26,1.57,0.53,2.34,0.82
			c0.48,0.18,0.63,0.49,0.47,0.99c-0.26,0.8-0.55,1.6-0.84,2.39c-0.14,0.37-0.41,0.57-0.81,0.46c-0.36-0.09-0.51-0.45-0.4-0.89
			c0.04-0.14,0.1-0.28,0.14-0.42C107.31,11.99,107.34,11.86,107.42,11.61z"/>
		<path class="st2" d="M111.88,17.2c1.32,0,2.41,1.07,2.41,2.39c0.01,1.28-1.14,2.42-2.42,2.4s-2.37-1.1-2.38-2.39
			C109.47,18.29,110.55,17.2,111.88,17.2z M110.82,19.55c-0.01,0.63,0.46,1.12,1.07,1.12c0.59,0,1.06-0.48,1.07-1.08
			s-0.44-1.06-1.06-1.07C111.27,18.51,110.83,18.94,110.82,19.55z"/>
		<path class="st2" d="M112.47,12.29c-1.32-0.01-2.4-1.11-2.38-2.42c0.02-1.28,1.13-2.37,2.41-2.36c1.31,0.01,2.41,1.11,2.4,2.41
			C114.88,11.24,113.81,12.29,112.47,12.29z M113.56,9.9c0-0.6-0.46-1.09-1.05-1.09c-0.61,0-1.1,0.49-1.09,1.11
			c0,0.6,0.47,1.05,1.08,1.04C113.13,10.96,113.56,10.53,113.56,9.9z"/>
		<path class="st2" d="M91.75,12.98c-0.26,0-0.44-0.11-0.57-0.33c-0.14-0.25-0.1-0.49,0.07-0.69c0.25-0.31,0.51-0.61,0.79-0.89
			c0.23-0.23,0.22-0.4,0-0.62c-0.24-0.25-0.46-0.52-0.69-0.78c-0.27-0.32-0.33-0.65-0.01-0.97c0.26-0.26,0.65-0.22,0.96,0.1
			c0.17,0.18,0.35,0.36,0.49,0.56c0.26,0.37,0.49,0.46,0.77,0.02c0.13-0.19,0.3-0.35,0.47-0.51c0.35-0.35,0.71-0.41,1-0.15
			c0.3,0.26,0.28,0.66-0.07,1.05c-0.21,0.24-0.41,0.48-0.63,0.7c-0.25,0.24-0.21,0.44,0.01,0.68c0.24,0.25,0.46,0.52,0.68,0.79
			c0.25,0.32,0.26,0.64-0.03,0.93c-0.27,0.27-0.64,0.22-0.96-0.11c-0.29-0.29-0.49-0.82-0.86-0.85c-0.39-0.03-0.57,0.53-0.87,0.81
			C92.15,12.86,91.99,12.99,91.75,12.98z"/>
		<path class="st2" d="M96.51,21.31c0,0.29-0.1,0.49-0.32,0.61c-0.25,0.14-0.5,0.11-0.69-0.07c-0.25-0.23-0.49-0.49-0.7-0.77
			c-0.22-0.28-0.39-0.36-0.64-0.02c-0.18,0.25-0.42,0.47-0.64,0.69c-0.27,0.27-0.59,0.31-0.89,0.05c-0.32-0.28-0.31-0.61-0.05-0.92
			c0.25-0.31,0.52-0.6,0.79-0.89c0.19-0.2,0.17-0.35-0.01-0.55c-0.26-0.27-0.51-0.57-0.75-0.86c-0.26-0.31-0.27-0.65,0.04-0.93
			c0.31-0.27,0.64-0.22,0.93,0.07c0.2,0.2,0.39,0.41,0.55,0.64c0.26,0.35,0.48,0.32,0.73-0.01c0.16-0.21,0.34-0.41,0.53-0.59
			c0.28-0.27,0.59-0.38,0.93-0.1c0.3,0.25,0.32,0.61,0.03,0.96c-0.23,0.28-0.47,0.56-0.73,0.81c-0.23,0.23-0.22,0.41,0,0.63
			c0.23,0.23,0.44,0.5,0.65,0.75C96.41,20.97,96.52,21.14,96.51,21.31z"/>
		<path class="st2" d="M120.01,14.86c0.01-2.75,2.18-4.93,4.91-4.93c2.83,0,5.01,2.19,5,5c-0.01,2.74-2.22,4.92-4.99,4.91
			C122.17,19.84,120,17.64,120.01,14.86z M128.59,14.88c0-2.05-1.63-3.69-3.64-3.68c-1.99,0.01-3.67,1.7-3.67,3.69
			c0,1.96,1.67,3.65,3.63,3.68C126.95,18.6,128.59,16.95,128.59,14.88z"/>
		<path class="st2" d="M124.34,16.86c-0.33,0.02-0.64-0.09-0.89-0.33c-0.35-0.33-0.69-0.67-1.02-1.02
			c-0.28-0.29-0.32-0.63-0.02-0.92s0.63-0.25,0.93,0.02c0.25,0.22,0.49,0.45,0.7,0.7c0.21,0.24,0.37,0.25,0.6,0.01
			c0.59-0.62,1.21-1.23,1.82-1.83c0.39-0.39,0.74-0.42,1.03-0.11c0.29,0.3,0.25,0.65-0.13,1.04c-0.66,0.67-1.33,1.34-2,2
			C125.09,16.7,124.76,16.88,124.34,16.86z"/>
	</g>
</g>
<g id="plan" class="st0">
	<g class="st1">
		<path class="st2" d="M101,205.85c-0.4,0.49-0.93,0.61-1.53,0.6c-2.3-0.01-4.61,0.01-6.91-0.02c-0.6-0.01-0.79,0.18-0.77,0.78
			c0.04,1.1,0.02,2.21,0.01,3.31c0,0.35,0.11,0.57,0.43,0.75c1.35,0.78,1.97,2.11,1.68,3.53c-0.28,1.4-1.42,2.44-2.93,2.58
			c-1.31,0.12-2.35-0.44-3.03-1.56c-0.24-0.4-0.51-0.51-0.95-0.51c-7.35,0.01-14.7,0.01-22.04,0c-0.45,0-0.71,0.12-0.92,0.54
			c-0.83,1.6-2.19,2.47-3.98,2.54c-1.87,0.07-3.34-0.75-4.24-2.39c-0.31-0.57-0.66-0.72-1.25-0.7c-2.18,0.09-4.27-0.24-6.23-1.27
			c-4.09-2.14-6.46-6.82-5.72-11.32c0.79-4.76,4.41-8.38,9.09-9.11c0.69-0.11,1.37-0.1,2.06-0.11c2.6-0.01,5.2-0.01,7.8,0.01
			c0.45,0,0.65-0.13,0.77-0.59c0.54-2.16,2.39-3.59,4.56-3.59c2.14,0,3.97,1.41,4.52,3.56c0.12,0.47,0.3,0.63,0.79,0.62
			c4-0.02,8,0.01,12-0.02c4.48-0.03,7.94-2.77,8.89-7.01c1.17-5.24-2.86-10.42-8.23-10.53c-1.91-0.04-3.82,0-5.73-0.02
			c-0.41,0-0.63,0.16-0.82,0.52c-0.89,1.65-2.3,2.56-4.16,2.55c-1.88,0-3.31-0.91-4.19-2.6c-0.18-0.35-0.4-0.47-0.78-0.47
			c-6.36,0.01-12.73,0.01-19.09,0c-0.42,0-0.62,0.18-0.81,0.53c-0.89,1.7-2.72,2.72-4.51,2.55c-1.96-0.18-3.57-1.5-4.14-3.37
			c-0.74-2.44,0.67-5.04,3.15-5.8c2.45-0.76,5.09,0.61,5.8,3.11c0.2,0.72,0.51,0.84,1.17,0.84c5.99-0.02,11.98-0.02,17.97,0
			c0.53,0,0.79-0.11,0.93-0.68c0.54-2.08,2.41-3.48,4.53-3.47c2.11,0.01,3.97,1.43,4.5,3.51c0.13,0.52,0.37,0.64,0.86,0.63
			c1.6-0.02,3.19-0.01,4.79-0.01c5.68,0.01,10.25,3.85,11,9.47c0.86,6.44-3.77,11.42-9.12,12.23c-0.61,0.09-1.21,0.12-1.82,0.12
			c-4.14,0-8.27,0.01-12.41-0.01c-0.46,0-0.69,0.14-0.9,0.55c-0.88,1.65-2.27,2.54-4.15,2.54c-1.92,0.01-3.31-0.91-4.2-2.57
			c-0.21-0.39-0.44-0.52-0.86-0.52c-2.82,0.02-5.63-0.01-8.45,0.01c-4.5,0.03-8.26,3.42-8.72,7.83c-0.46,4.49,2.47,8.54,6.89,9.54
			c1.09,0.25,2.19,0.17,3.3,0.17c0.43,0,0.41-0.36,0.49-0.62c0.56-1.84,1.76-3,3.64-3.4c2.37-0.5,4.78,0.97,5.38,3.32
			c0.15,0.59,0.41,0.72,0.97,0.72c7.17-0.02,14.34-0.02,21.51,0c0.52,0,0.84-0.12,1.05-0.62c0.22-0.51,0.62-0.94,1.13-1.17
			c0.53-0.24,0.61-0.61,0.61-1.13c-0.02-4-0.01-8-0.01-12c0-0.22,0-0.44,0.04-0.65c0.11-0.49,0.42-0.81,0.93-0.87
			s0.92,0.18,1.07,0.65c0.15,0.46,0.41,0.53,0.83,0.53c2.32-0.02,4.65,0.01,6.97-0.02c0.61-0.01,1.13,0.13,1.52,0.62
			c0,0.32,0,0.63,0,0.95c-0.55,0.78-1.1,1.57-1.66,2.35c-0.19,0.26-0.18,0.48,0.01,0.74c0.56,0.78,1.11,1.57,1.66,2.35
			C101,205.22,101,205.54,101,205.85z M94.83,204.29c0.87,0,1.73-0.01,2.6,0c0.37,0,0.48-0.09,0.23-0.43
			c-1.28-1.76-1.21-1.64-0.03-3.31c0.24-0.33,0.2-0.47-0.24-0.47c-1.69,0.01-3.38,0.01-5.08,0c-0.38,0-0.52,0.15-0.52,0.53
			c0.01,1.04,0.02,2.09,0,3.13c-0.01,0.41,0.15,0.56,0.55,0.55C93.18,204.27,94,204.29,94.83,204.29z M64.35,194.01
			c0,1.44,1.1,2.57,2.51,2.58c1.4,0.01,2.55-1.13,2.55-2.55s-1.11-2.56-2.53-2.57C65.48,191.46,64.35,192.59,64.35,194.01z
			 M59.89,216.25c1.44-0.01,2.55-1.12,2.54-2.55c-0.01-1.42-1.14-2.52-2.58-2.51c-1.43,0.01-2.56,1.14-2.55,2.55
			C57.32,215.16,58.45,216.26,59.89,216.25z M45.12,176.87c1.43,0,2.54-1.12,2.54-2.55c-0.01-1.42-1.12-2.52-2.57-2.51
			c-1.43,0-2.57,1.13-2.56,2.54C42.54,175.76,43.69,176.87,45.12,176.87z M74.15,171.82c-1.43-0.01-2.54,1.05-2.56,2.45
			c-0.02,1.46,1.06,2.59,2.48,2.6c1.46,0.02,2.57-1.05,2.58-2.49C76.67,172.91,75.61,171.83,74.15,171.82z M90.71,213.07
			c-0.63,0-1.15,0.51-1.13,1.11c0.02,0.57,0.54,1.08,1.11,1.09c0.6,0.01,1.15-0.51,1.16-1.1C91.86,213.56,91.35,213.07,90.71,213.07
			z"/>
	</g>
</g>
<g id="health" class="st0">
	<g class="st1">
		<path class="st2" d="M53.96,29.68c-0.68,0-1.36,0.01-2.03,0c-0.62-0.01-0.87-0.26-0.87-0.89c-0.01-0.99-0.01-1.99,0-2.98
			c0.01-0.35-0.09-0.48-0.46-0.47c-0.99,0.02-1.99,0.01-2.98,0.01c-0.65,0-0.9-0.26-0.9-0.91c0-1.36-0.01-2.71,0-4.07
			c0-0.62,0.26-0.87,0.89-0.87c0.98-0.01,1.96-0.02,2.94,0.01c0.39,0.01,0.53-0.1,0.52-0.51c-0.03-0.98-0.01-1.96-0.01-2.94
			c0-0.65,0.25-0.9,0.91-0.9c1.36,0,2.71-0.01,4.07,0c0.62,0,0.87,0.26,0.87,0.89c0.01,0.98,0.02,1.96-0.01,2.94
			c-0.01,0.39,0.1,0.53,0.51,0.52c0.98-0.03,1.96-0.01,2.94-0.01c0.65,0,0.9,0.25,0.9,0.91c0,1.36,0.01,2.71,0,4.07
			c0,0.62-0.26,0.87-0.89,0.87c-0.98,0.01-1.96,0.02-2.94-0.01c-0.39-0.01-0.53,0.1-0.52,0.51c0.03,0.98,0.01,1.96,0.01,2.94
			c0,0.65-0.26,0.9-0.91,0.9C55.31,29.68,54.64,29.68,53.96,29.68z M52.56,26.19c0,0.53,0.01,1.05,0,1.58
			c-0.01,0.29,0.1,0.4,0.39,0.4c0.68-0.01,1.36-0.02,2.03,0c0.32,0.01,0.42-0.12,0.41-0.43c-0.01-0.98-0.01-1.96,0-2.94
			c0-0.75,0.23-0.98,0.96-0.98c0.99,0,1.99-0.01,2.98,0c0.29,0,0.4-0.1,0.4-0.39c-0.01-0.68-0.02-1.36,0-2.03
			c0.01-0.32-0.12-0.42-0.43-0.41C58.33,21,57.35,21,56.37,21c-0.75,0-0.98-0.23-0.98-0.96c0-0.99-0.01-1.99,0-2.98
			c0-0.29-0.1-0.4-0.39-0.4c-0.68,0.01-1.36,0.02-2.03,0c-0.32-0.01-0.42,0.12-0.41,0.43c0.01,0.98,0.01,1.96,0,2.94
			c0,0.75-0.23,0.98-0.96,0.98c-0.99,0-1.99,0.01-2.98,0c-0.29,0-0.4,0.1-0.4,0.39c0.01,0.68,0.02,1.36,0,2.03
			c-0.01,0.32,0.12,0.42,0.43,0.41c1.01-0.01,2.02-0.01,3.03,0c0.63,0,0.88,0.26,0.89,0.87C52.56,25.2,52.56,25.7,52.56,26.19z"/>
		<path class="st2" d="M52.84,42.7c-1.12,0-2.23-0.01-3.35,0c-1.49,0.02-2.89-0.34-4.23-0.98c-1.62-0.78-3.23-1.55-4.84-2.35
			c-1.39-0.69-2.87-0.99-4.41-1.01c-0.96-0.02-1.93,0-2.89-0.01c-0.56,0-0.88-0.28-0.88-0.75s0.31-0.77,0.86-0.76
			c1.52,0.03,3.04-0.1,4.56,0.08c1.23,0.14,2.38,0.54,3.48,1.07c1.7,0.82,3.39,1.64,5.09,2.46c1.08,0.52,2.24,0.71,3.42,0.72
			c2.28,0.02,4.55,0,6.83,0.01c0.24,0,0.47-0.04,0.7-0.13c1.86-0.77,3.73-1.55,5.6-2.31c0.33-0.13,0.42-0.33,0.39-0.66
			c-0.07-0.69-0.57-1.14-1.36-1.2c-0.91-0.06-1.76,0.17-2.62,0.42c-0.45,0.13-0.89,0.29-1.34,0.42c-0.44,0.12-0.83-0.1-0.97-0.51
			c-0.12-0.36,0.05-0.77,0.45-0.92c1.4-0.52,2.82-0.99,4.34-0.99c1.63,0.01,2.77,0.99,3.03,2.55c0.18,1.07-0.25,1.86-1.25,2.27
			c-1.93,0.8-3.87,1.6-5.81,2.4c-0.26,0.11-0.51,0.16-0.79,0.16C55.52,42.7,54.18,42.7,52.84,42.7z"/>
		<path class="st2" d="M55.08,2.12c1.13,0,2.26,0.01,3.39,0c1.46-0.02,2.84,0.32,4.15,0.95c1.63,0.78,3.26,1.56,4.88,2.37
			c1.39,0.69,2.87,0.99,4.41,1.02c0.96,0.02,1.93,0,2.89,0.01c0.59,0,0.91,0.28,0.9,0.77c-0.01,0.47-0.32,0.75-0.89,0.74
			C73.3,7.95,71.8,8.07,70.29,7.9c-1.23-0.14-2.38-0.53-3.48-1.06c-1.68-0.81-3.36-1.63-5.05-2.44c-1.09-0.53-2.26-0.74-3.46-0.74
			c-2.29-0.02-4.58,0-6.87-0.01c-0.25,0-0.47,0.04-0.7,0.14c-1.85,0.77-3.7,1.54-5.56,2.29c-0.34,0.14-0.45,0.33-0.41,0.69
			c0.08,0.67,0.57,1.12,1.33,1.18c0.92,0.07,1.79-0.17,2.66-0.42c0.43-0.12,0.86-0.28,1.29-0.41c0.45-0.13,0.83,0.07,0.98,0.48
			C51.15,7.96,51,8.38,50.6,8.53c-1.43,0.53-2.88,1.02-4.43,0.99c-1.59-0.03-2.69-1-2.96-2.52c-0.19-1.1,0.25-1.87,1.27-2.3
			c1.89-0.78,3.79-1.56,5.68-2.35c0.33-0.14,0.65-0.2,1.01-0.2C52.49,2.13,53.79,2.12,55.08,2.12z"/>
		<path class="st2" d="M72.13,16.65c-1.66-0.12-3.31,0.24-4.99,0.54c-2.91,0.52-5.76-0.59-7.28-3.16c-0.12-0.2-0.27-0.3-0.48-0.39
			c-1.23-0.51-2.45-1.01-3.67-1.53c-1.05-0.45-2.02-1.03-2.69-1.99C52.1,8.81,52.13,7.42,52.75,6c0.2-0.45,0.61-0.55,1.16-0.33
			c1.62,0.66,3.23,1.34,4.84,2.01c1,0.42,2,0.83,3,1.25c0.11,0.05,0.22,0.09,0.33,0.16c0.36,0.21,0.5,0.57,0.36,0.92
			c-0.15,0.4-0.46,0.55-0.87,0.48c-0.19-0.03-0.37-0.11-0.55-0.19c-2.23-0.92-4.46-1.84-6.68-2.78c-0.4-0.17-0.45-0.04-0.45,0.32
			c-0.02,1.08,0.57,1.78,1.41,2.31c0.95,0.6,2.03,0.92,3.04,1.37c0.69,0.3,1.39,0.58,2.09,0.86c0.3,0.12,0.5,0.31,0.64,0.6
			c0.87,1.72,2.32,2.55,4.19,2.71c1.14,0.1,2.26-0.02,3.33-0.45c0.2-0.08,0.41-0.1,0.62-0.1c1.87,0,3.74,0,5.61,0
			c0.06,0,0.12,0,0.18,0c0.42,0.04,0.7,0.33,0.7,0.74c0.01,0.42-0.28,0.75-0.72,0.76C74.05,16.66,73.11,16.65,72.13,16.65z"/>
		<path class="st2" d="M35.76,28.17c0.14,0,0.27-0.01,0.41,0c1.6,0.16,3.12-0.3,4.67-0.56c2.82-0.47,5.71,0.57,7.24,3.17
			c0.12,0.21,0.3,0.32,0.51,0.41c1.23,0.51,2.45,1.01,3.67,1.53c1.04,0.44,1.99,1.02,2.66,1.96c0.93,1.31,0.9,2.71,0.29,4.12
			c-0.19,0.46-0.61,0.56-1.15,0.34c-1.46-0.6-2.92-1.21-4.38-1.82c-1.18-0.49-2.36-0.98-3.55-1.47c-0.24-0.1-0.47-0.21-0.58-0.47
			c-0.14-0.29-0.1-0.56,0.1-0.8c0.26-0.3,0.6-0.34,0.95-0.2c0.84,0.34,1.67,0.68,2.51,1.03c1.49,0.62,2.98,1.24,4.47,1.86
			c0.47,0.2,0.49,0.18,0.49-0.34c0.02-1.08-0.6-1.77-1.44-2.29c-0.94-0.59-2-0.91-3.01-1.35c-0.69-0.3-1.39-0.58-2.09-0.86
			c-0.3-0.12-0.5-0.31-0.64-0.59c-0.87-1.72-2.32-2.54-4.19-2.72c-1.15-0.11-2.25,0.05-3.33,0.45c-0.17,0.06-0.35,0.1-0.53,0.1
			c-1.93,0.01-3.86,0-5.79,0c-0.42,0-0.7-0.19-0.79-0.6c-0.08-0.38,0.08-0.68,0.44-0.85c0.16-0.08,0.32-0.06,0.49-0.06
			C34.04,28.17,34.9,28.17,35.76,28.17z"/>
		<path class="st2" d="M38.74,22.77c0-3.55,0.91-6.45,2.73-9.08c0.1-0.15,0.21-0.3,0.33-0.43c0.3-0.32,0.69-0.36,1.02-0.13
			c0.34,0.24,0.43,0.66,0.2,1.04c-0.24,0.4-0.53,0.77-0.77,1.17c-1.14,1.9-1.78,3.96-1.93,6.19c-0.08,1.23,0.04,2.43,0.23,3.64
			c0.09,0.55-0.15,0.94-0.62,1.02c-0.44,0.07-0.79-0.22-0.9-0.75C38.84,24.44,38.71,23.44,38.74,22.77z"/>
		<path class="st2" d="M69.21,22.03c0,3.55-0.91,6.45-2.71,9.07c-0.11,0.16-0.22,0.32-0.35,0.47c-0.3,0.33-0.74,0.38-1.05,0.13
			c-0.32-0.25-0.39-0.68-0.16-1.05c0.29-0.47,0.63-0.92,0.91-1.4c1.07-1.84,1.65-3.83,1.8-5.95c0.08-1.21-0.05-2.4-0.22-3.59
			c-0.08-0.53,0.15-0.9,0.6-0.99c0.42-0.09,0.81,0.22,0.91,0.74C69.11,20.42,69.24,21.4,69.21,22.03z"/>
		<path class="st2" d="M45.46,11.48c0.01,0.42-0.43,0.89-0.85,0.9c-0.42,0.01-0.78-0.35-0.78-0.77c0-0.43,0.44-0.87,0.87-0.87
			C45.08,10.74,45.45,11.1,45.46,11.48z"/>
		<path class="st2" d="M63.41,34.09c-0.42,0-0.78-0.36-0.77-0.78s0.4-0.78,0.84-0.78c0.42,0,0.75,0.33,0.75,0.75
			C64.23,33.68,63.82,34.09,63.41,34.09z"/>
	</g>
</g>
<g id="school" class="st0">
	<g class="st1">
		<path class="st2" d="M73.2,96.93c-11.9,0-23.81,0-35.71,0c-0.13-0.04-0.26-0.07-0.39-0.11c-2.18-0.58-3.62-2.45-3.61-4.71
			c0-1.2,0.44-2.24,1.23-3.14c0.14-0.16,0.3-0.3-0.04-0.44c-0.82-0.34-1.22-0.97-1.18-1.85c0.04-0.86,0.51-1.43,1.34-1.69
			c0.23-0.07,0.33-0.21,0.36-0.43c0.02-0.17,0.05-0.35,0.06-0.52c0.02-0.37,0-0.74-0.12-1.08c-0.1-0.28-0.43-0.24-0.65-0.36
			c-0.73-0.39-1.12-1.24-0.94-2.06c0.2-0.9,0.91-1.46,1.88-1.48c0.62-0.01,1.23,0,1.86,0c-0.02-0.22-0.16-0.31-0.25-0.42
			c-2.05-2.52-1.14-6.21,1.85-7.49c0.9-0.39,1.84-0.41,2.79-0.37c0.39,0.02,0.58-0.11,0.69-0.5c0.46-1.61,0.94-3.22,1.43-4.82
			c0.11-0.36,0.03-0.5-0.33-0.59c-2.55-0.66-5.1-1.33-7.65-2c-0.83-0.22-1.25-0.73-1.26-1.52c0-0.79,0.42-1.3,1.25-1.52
			c2.2-0.58,4.39-1.15,6.59-1.73c0.66-0.17,0.97-0.05,1.08,0.4c0.11,0.44-0.12,0.7-0.77,0.87c-1.9,0.5-3.79,0.99-5.69,1.49
			c-0.27,0.07-0.55,0.15-0.82,0.22c-0.14,0.04-0.32,0.07-0.33,0.25c-0.01,0.21,0.19,0.23,0.34,0.28c0.03,0.01,0.05,0.01,0.08,0.02
			c5.27,1.38,10.53,2.77,15.8,4.15c0.79,0.21,1.59,0.28,2.41,0.24c1.15-0.06,2.22-0.45,3.33-0.7c0.35-0.08,0.3-0.21,0.07-0.41
			c-0.83-0.74-1.65-1.48-2.46-2.23c-0.2-0.19-0.4-0.22-0.66-0.15c-0.76,0.22-1.5,0.12-2.19-0.26c-0.27-0.15-0.42-0.36-0.42-0.69
			c0.01-0.6-0.01-1.19,0.01-1.79c0.03-0.95,0.74-1.65,1.71-1.74c0.87-0.07,1.69,0.52,1.91,1.38c0.12,0.45,0.09,0.91,0.07,1.37
			c-0.01,0.34,0.09,0.58,0.35,0.81c1.03,0.92,2.06,1.84,3.06,2.78c0.34,0.32,0.65,0.37,1.09,0.25c2.88-0.78,5.77-1.53,8.66-2.29
			c0.97-0.25,1.93-0.51,2.9-0.76c0.14-0.04,0.32-0.07,0.33-0.25c0.01-0.19-0.17-0.22-0.31-0.27c-0.05-0.02-0.1-0.03-0.16-0.04
			c-5.07-1.33-10.15-2.65-15.21-4.01c-1.72-0.46-3.4-0.47-5.11,0.03c-1.72,0.5-3.47,0.92-5.21,1.37c-0.6,0.16-1.04-0.24-0.89-0.8
			c0.09-0.33,0.36-0.41,0.64-0.48c1.92-0.51,3.84-1.02,5.76-1.52c1.54-0.4,3.08-0.4,4.61,0.01c3.29,0.86,6.59,1.73,9.88,2.59
			c2.01,0.53,4.03,1.06,6.04,1.59c0.74,0.19,1.18,0.65,1.25,1.27c0.11,0.9-0.33,1.53-1.23,1.77c-2.55,0.67-5.1,1.35-7.65,2.01
			c-0.35,0.09-0.47,0.21-0.35,0.58c0.5,1.61,0.98,3.24,1.44,4.86c0.1,0.34,0.26,0.47,0.63,0.47c1.34-0.02,2.68-0.02,4.02,0
			c0.85,0.01,1.52,0.57,1.66,1.39c0.23,1.33-0.55,2.24-1.5,2.34c-0.29,0.03-0.4,0.19-0.44,0.48c-0.05,0.39-0.04,0.78,0,1.17
			c0.03,0.31,0.15,0.43,0.46,0.49c1.18,0.21,1.87,1.41,1.45,2.52c-0.11,0.29-0.07,0.41,0.2,0.57c2.63,1.57,3.17,5.01,1.16,7.31
			c-0.23,0.26-0.28,0.35,0.1,0.5c0.73,0.29,1.08,0.88,1.11,1.65c0.02,0.77-0.31,1.36-1,1.72c-0.68,0.35-0.81,0.58-0.75,1.38
			c0.01,0.16,0.05,0.32,0.05,0.48c0,0.3,0.14,0.46,0.43,0.55c0.61,0.19,1.01,0.6,1.2,1.22C74.83,95.58,74.33,96.48,73.2,96.93z
			 M52.81,80.39c-5.63,0-11.25,0-16.88,0c-0.18,0-0.35,0-0.53,0.01c-0.35,0.01-0.57,0.17-0.58,0.54c-0.01,0.34,0.2,0.54,0.6,0.56
			c0.19,0.01,0.38,0.01,0.57,0.01c11.08,0,22.15,0,33.23,0c0.2,0,0.41-0.01,0.61,0.01c1.31,0.09,2.28,1.04,2.34,2.26
			c0.05,1.23-0.84,2.27-2.13,2.45c-0.23,0.03-0.46,0.02-0.69,0.02c-8.13,0-16.26,0-24.38,0c-0.53,0-0.57,0.04-0.58,0.53
			c0,0.53,0.04,0.57,0.58,0.57c0.14,0,0.27,0,0.41,0c5.82,0,11.63,0,17.45,0c0.22,0,0.43,0,0.65,0.04c0.36,0.07,0.53,0.31,0.51,0.67
			c-0.02,0.37-0.23,0.57-0.58,0.61c-0.17,0.02-0.35,0.01-0.53,0.01c-5.9,0-11.79,0-17.69,0c-0.15,0-0.3,0-0.45,0
			c-0.11,0-0.24,0.01-0.28,0.13c-0.1,0.29-0.11,0.59-0.01,0.87c0.08,0.22,0.32,0.15,0.51,0.15c9.13,0,18.26,0,27.39,0
			c0.19,0,0.38,0,0.56-0.06c0.28-0.1,0.4-0.31,0.37-0.6c-0.03-0.28-0.2-0.44-0.47-0.48c-0.15-0.02-0.3-0.01-0.45-0.01
			c-1.81,0-3.62,0-5.44,0c-0.15,0-0.3,0.01-0.44-0.02c-0.32-0.06-0.5-0.27-0.51-0.59s0.12-0.56,0.43-0.65
			c0.18-0.05,0.37-0.06,0.56-0.07c1-0.01,2,0.01,3-0.01c2.19-0.06,3.78-2.18,3.24-4.3c-0.4-1.59-1.77-2.64-3.46-2.64
			C64.09,80.39,58.45,80.39,52.81,80.39z M54.74,93.2c5.34,0,10.68,0,16.02,0c0.14,0,0.27-0.01,0.41,0c0.3,0.02,0.44-0.07,0.4-0.42
			c-0.04-0.39-0.06-0.79,0-1.17c0.07-0.43-0.09-0.5-0.47-0.5c-8.92,0.01-17.85,0.01-26.77,0c-0.29,0-0.55,0.06-0.81,0.2
			c-0.77,0.42-1.55,0.83-2.34,1.22c-0.52,0.25-0.95-0.01-1.02-0.58c-0.02-0.17-0.01-0.35-0.02-0.53c0-0.15-0.05-0.3-0.21-0.3
			c-0.67,0-1.36-0.12-2.02,0.08c-0.47,0.14-0.71,0.61-0.64,1.13c0.06,0.45,0.43,0.79,0.91,0.83c0.22,0.02,0.43,0.02,0.65,0.02
			C44.14,93.2,49.44,93.2,54.74,93.2z M55.31,79.05c4.8,0,9.6,0,14.4,0c0.16,0,0.32,0,0.49,0c0.42-0.01,0.61-0.18,0.62-0.54
			c0.01-0.37-0.19-0.55-0.63-0.57c-0.19-0.01-0.38,0-0.57,0c-9.41,0-18.82,0-28.24,0c-0.34,0-0.68-0.02-1.01-0.06
			c-1.29-0.15-2.23-1.47-1.97-2.74c0.24-1.18,1.17-1.93,2.41-1.94c4.44,0,8.87,0,13.31,0c0.89,0,1.79,0,2.68,0
			c0.14,0,0.35,0.05,0.4-0.11c0.11-0.29,0.22-0.61,0.1-0.9c-0.1-0.24-0.39-0.14-0.59-0.14c-5.04,0-10.09,0-15.13,0
			c-0.41,0-0.81,0.02-1.21,0.06c-2.08,0.2-3.53,2.22-3.05,4.26c0.37,1.58,1.74,2.68,3.39,2.68C45.58,79.06,50.44,79.05,55.31,79.05z
			 M50.68,70.77c2.2,0,4.41,0,6.61,0.01c0.3,0,0.47-0.09,0.58-0.38c0.17-0.45,0.43-0.84,0.83-1.13c0.15-0.11,0.19-0.25,0.19-0.42
			c0-0.7-0.01-1.41,0-2.11c0-0.26-0.09-0.34-0.34-0.27c-0.62,0.17-1.25,0.33-1.88,0.5c-1.58,0.44-3.17,0.52-4.77,0.11
			c-2.07-0.53-4.13-1.08-6.19-1.62c-0.51-0.13-0.54-0.12-0.69,0.38c-0.44,1.46-0.87,2.93-1.3,4.39c-0.15,0.51-0.13,0.53,0.39,0.53
			C46.3,70.77,48.49,70.77,50.68,70.77z M54.59,76.61c4.52,0,9.03,0,13.55,0c0.12,0,0.24-0.01,0.37,0c0.25,0.02,0.33-0.08,0.31-0.34
			c-0.03-0.46-0.03-0.92,0-1.38c0.02-0.27-0.07-0.36-0.33-0.36c-2.04,0.01-4.08,0-6.13,0c-0.26,0-0.39,0.09-0.41,0.37
			c-0.03,0.4-0.24,0.68-0.66,0.68c-1.15,0.01-2.3,0.01-3.45,0c-0.34,0-0.6-0.2-0.61-0.53c-0.01-0.48-0.26-0.53-0.65-0.53
			c-5.18,0.01-10.36,0.01-15.54,0.01c-0.12,0-0.24,0-0.36,0.01c-0.5,0.03-0.88,0.38-0.95,0.84c-0.07,0.54,0.19,0.97,0.68,1.15
			c0.22,0.08,0.45,0.07,0.68,0.07C45.58,76.61,50.08,76.61,54.59,76.61z M55.41,94.52c-2.77,0-5.55,0-8.32,0
			c-2.91,0-5.82,0.01-8.72,0c-1.42,0-2.43-0.99-2.44-2.34c-0.01-1.34,1.01-2.33,2.42-2.34c0.47-0.01,0.95-0.01,1.42,0
			c0.25,0,0.38-0.1,0.37-0.36c-0.01-0.14-0.01-0.27,0-0.41c0.01-0.27-0.1-0.4-0.38-0.39c-0.55,0.01-1.11-0.02-1.66,0.01
			c-2.18,0.11-3.74,2.24-3.2,4.35c0.41,1.6,1.78,2.64,3.56,2.64c11.32,0.01,22.64,0,33.96,0c0.15,0,0.3-0.01,0.44-0.05
			c0.29-0.08,0.42-0.28,0.4-0.58c-0.02-0.31-0.21-0.46-0.49-0.51c-0.17-0.03-0.35-0.02-0.53-0.02
			C66.64,94.52,61.02,94.52,55.41,94.52z M57.33,84.9c4.02,0,8.03,0,12.05,0c0.18,0,0.35,0.01,0.53-0.01
			c0.54-0.05,0.91-0.46,0.91-1.01s-0.35-0.97-0.89-1.03c-0.19-0.02-0.38-0.01-0.57-0.01c-8.07,0-16.15,0-24.22,0
			c-0.12,0-0.24,0.01-0.37,0c-0.28-0.01-0.39,0.12-0.39,0.39c0,0.35,0,0.7,0,1.05c0,0.6,0.02,0.62,0.61,0.62
			C49.11,84.9,53.22,84.9,57.33,84.9z M62.91,70.77c0.39,0,0.78-0.01,1.17,0c0.36,0.02,0.42-0.13,0.32-0.44
			c-0.46-1.54-0.92-3.07-1.37-4.61c-0.08-0.28-0.22-0.37-0.51-0.29c-0.64,0.18-1.27,0.35-1.92,0.5c-0.27,0.06-0.38,0.2-0.38,0.48
			c0.01,0.81,0,1.62,0,2.43c0,0.17,0.03,0.32,0.18,0.43c0.42,0.3,0.67,0.73,0.86,1.2c0.09,0.22,0.23,0.31,0.46,0.31
			C62.13,70.76,62.52,70.77,62.91,70.77z M41.49,86.86c0,1.2,0.01,2.4,0,3.6c0,0.35,0.11,0.4,0.39,0.23
			c0.25-0.15,0.52-0.3,0.79-0.42c0.3-0.13,0.41-0.33,0.4-0.66c-0.01-1.9,0-3.81-0.01-5.71c-0.01-1.24,0.19-1.06-1.1-1.08
			c-0.35-0.01-0.48,0.12-0.47,0.47C41.5,84.49,41.49,85.68,41.49,86.86z M66.22,73.21c0.09,0,0.19,0,0.28,0c1.23,0,2.46,0,3.69,0
			c0.46,0,0.71-0.29,0.63-0.69c-0.08-0.39-0.4-0.46-0.72-0.46c-2.68-0.01-5.35-0.01-8.03,0c-0.11,0-0.26-0.02-0.28,0.1
			c-0.06,0.31,0,0.62,0.11,0.91c0.08,0.2,0.3,0.14,0.47,0.14C63.65,73.21,64.94,73.21,66.22,73.21z M38.3,82.83
			c-0.49,0-0.97,0-1.46,0c-0.19,0-0.35,0.02-0.32,0.29c0.05,0.5,0.05,1,0,1.5c-0.02,0.23,0.09,0.28,0.29,0.28c1,0,2,0,3,0
			c0.24,0,0.35-0.11,0.34-0.34c0-0.45-0.01-0.89,0-1.34c0.01-0.28-0.12-0.39-0.39-0.38C39.27,82.84,38.78,82.83,38.3,82.83z
			 M59.5,74.27c0.22,0,0.43-0.01,0.65,0c0.36,0.03,0.48-0.13,0.46-0.48c-0.07-0.92-0.19-1.83-0.49-2.7
			c-0.06-0.19-0.15-0.38-0.26-0.54c-0.18-0.27-0.38-0.27-0.58,0c-0.16,0.22-0.25,0.48-0.33,0.74c-0.21,0.66-0.34,1.34-0.38,2.03
			c-0.06,1.11-0.26,0.94,0.86,0.96C59.44,74.27,59.47,74.27,59.5,74.27z M37.53,87.34c0.73,0,1.46-0.01,2.19,0.01
			c0.43,0.01,0.44-0.24,0.43-0.55c0-0.3,0.01-0.57-0.42-0.56c-1.42,0.01-2.84,0-4.25,0.01c-0.45,0-0.65,0.18-0.65,0.55
			c0,0.36,0.2,0.55,0.64,0.55C36.15,87.35,36.84,87.34,37.53,87.34z M54.52,60.42L54.52,60.42c0-0.13,0-0.27,0-0.4
			C54.5,59.6,54.33,59.4,54,59.39c-0.32-0.01-0.54,0.22-0.56,0.61c-0.02,0.28,0.01,0.56-0.01,0.85c-0.02,0.34,0.14,0.45,0.45,0.46
			c0.54,0.02,0.63-0.06,0.64-0.6C54.52,60.6,54.52,60.51,54.52,60.42z"/>
	</g>
</g>
<g id="corporate">
	<g>
		<path class="st2" d="M30.81,33.22c0.61,0.33,1.1,0.66,1.51,1.07c0.94,0.93,1.38,2.01,1.39,3.23c0.01,1.15,0,2.29,0,3.45
			c0,0.02,0,0.05,0,0.08c-0.02,0.58-0.28,0.87-0.77,0.87s-0.74-0.29-0.74-0.87c0-1.17,0-2.35,0-3.52c-0.01-1.97-1.83-3.61-4.14-3.69
			c-0.6-0.02-1.19-0.01-1.79-0.01c-0.11,0-0.31-0.02-0.32,0.05c-0.08,0.47-0.63,0.8-0.51,1.34c0.32,1.44,0.59,2.87,0.91,4.31
			c0.11,0.51,0.02,0.89-0.5,1.2c-0.48,0.28-0.9,0.63-1.36,0.94c-0.51,0.35-0.8,0.35-1.32-0.01c-0.48-0.33-0.93-0.68-1.42-0.99
			c-0.42-0.27-0.54-0.59-0.46-1.01c0.22-1.02,0.43-2.04,0.64-3.05c0.1-0.49,0.2-0.98,0.31-1.47c0.04-0.19,0.04-0.36-0.14-0.52
			c-0.1-0.08-0.18-0.21-0.2-0.33c-0.04-0.41-0.31-0.49-0.74-0.47c-0.81,0.04-1.63-0.05-2.43,0.14c-2,0.46-3.26,1.84-3.26,3.62
			c0,1.15,0,2.29,0,3.45c0,0.14,0.01,0.28-0.03,0.41c-0.09,0.3-0.31,0.47-0.68,0.49c-0.37,0.02-0.61-0.14-0.73-0.43
			c-0.04-0.08-0.06-0.17-0.06-0.26c0.01-1.41-0.09-2.82,0.04-4.23c0.14-1.55,1.05-2.72,2.53-3.58c0.08-0.05,0.16-0.1,0.26-0.15
			c-0.18-0.13-0.38-0.11-0.55-0.11c-1.66,0-3.32-0.01-4.98,0c-1.46,0.01-2.59,0.71-2.91,1.77c-0.06,0.2-0.06,0.39-0.06,0.59
			c0,1.18,0,2.37,0,3.55c0,0.17,0,0.35-0.09,0.52c-0.14,0.25-0.37,0.38-0.7,0.37c-0.31-0.01-0.53-0.13-0.65-0.37
			c-0.09-0.17-0.09-0.34-0.09-0.52c0-7.43,0-14.85,0-22.28c0-0.59,0.16-0.77,0.82-0.93c2.28-0.52,4.55-1.06,6.84-1.56
			c0.41-0.09,0.56-0.24,0.55-0.62c-0.03-1.42-0.01-2.85-0.01-4.27c0-0.81,0.18-0.97,1.11-0.97c0.35,0,0.7-0.01,1.05,0
			c0.29,0.01,0.38-0.09,0.38-0.33c-0.01-0.62-0.01-1.25,0-1.87c0-0.58,0.24-0.79,0.92-0.79c3.6,0,7.2,0,10.79,0
			c0.67,0,0.92,0.22,0.92,0.8c0.01,0.62,0.01,1.25,0,1.87c-0.01,0.24,0.09,0.34,0.38,0.33c0.39-0.02,0.79-0.01,1.18,0
			c0.73,0,0.97,0.21,0.97,0.83c0,1.47,0.01,2.95-0.01,4.42c-0.01,0.35,0.11,0.51,0.51,0.6c2.23,0.49,4.44,1.01,6.67,1.51
			c0.92,0.21,1.03,0.33,1.03,1.14c0,7.33,0,14.65,0,21.98c0,0.18-0.01,0.38-0.05,0.55c-0.08,0.3-0.33,0.46-0.69,0.47
			c-0.38,0.01-0.64-0.17-0.73-0.49c-0.04-0.14-0.04-0.3-0.04-0.45c0-1.09-0.06-2.17,0.01-3.26c0.11-1.53-1.12-2.56-2.82-2.61
			c-1.79-0.05-3.58-0.02-5.38-0.01C31.1,33.15,31.01,33.19,30.81,33.22z M20.2,32.48c-0.11-0.13-0.16-0.2-0.22-0.27
			c-1.4-1.56-2-3.35-1.76-5.3c0.43-3.36,4.93-5.29,8.38-3.61c2.2,1.08,3.27,3.14,2.82,5.41c-0.26,1.31-0.77,2.53-1.78,3.56
			c-0.06,0.06-0.21,0.21-0.01,0.21c0.36,0.02,0.75,0.19,1.07,0.04c0.7-0.32,1.41-0.57,2.25-0.65c-0.49-0.57-0.79-1.15-0.97-1.77
			c-0.43-1.47-0.28-2.83,1.04-3.96c0.16-0.14,0.16-0.31,0.16-0.49c0-1.06,0-2.12,0-3.18c0-4.09,0-8.19,0-12.28
			c0-0.28,0.01-0.5-0.46-0.5c-4.59,0.02-9.18,0.01-13.76,0c-0.37,0-0.48,0.11-0.48,0.42c0.01,5.19,0.01,10.38,0,15.57
			c0,0.23,0.09,0.39,0.28,0.56c0.48,0.42,0.81,0.92,0.98,1.48c0.41,1.37,0,2.64-0.79,3.84c-0.06,0.09-0.18,0.17-0.15,0.31
			c0.56,0.06,1.15,0.14,1.61,0.41C18.98,32.64,19.54,32.54,20.2,32.48z M23.82,23.99c-2.03,0.01-3.73,1.18-4.07,2.91
			c-0.27,1.37,0.12,2.65,0.87,3.86c1.46,2.36,4.97,2.34,6.45,0.01c0.51-0.81,0.77-1.69,0.92-2.6
			C28.35,25.91,26.42,23.98,23.82,23.99z M39.35,32.7c0.01-0.15,0.03-0.23,0.03-0.3c0-5,0-10,0.01-15c0-0.3-0.14-0.41-0.46-0.48
			c-1.91-0.43-3.83-0.87-5.74-1.31c-0.48-0.11-0.5-0.09-0.5,0.33c0,2.99,0.01,5.99-0.01,8.98c0,0.3,0.1,0.35,0.43,0.3
			c2.16-0.36,4.28,0.81,4.78,2.64c0.21,0.76,0.11,1.51-0.1,2.26c-0.18,0.63-0.51,1.21-0.95,1.77C37.79,31.97,38.58,32.23,39.35,32.7
			z M10.83,31.88c-0.66-0.8-0.97-1.64-1.14-2.54c-0.45-2.51,1.98-4.57,4.9-4.12c0.33,0.05,0.39-0.05,0.38-0.3
			c-0.01-2.99-0.01-5.99-0.01-8.98c0-0.43-0.02-0.43-0.5-0.33c-1.88,0.43-3.76,0.87-5.65,1.28c-0.42,0.09-0.55,0.25-0.55,0.62
			c0.01,4.91,0.01,9.83,0.01,14.74c0,0.13-0.06,0.27,0.09,0.41C9.1,32.23,9.89,31.97,10.83,31.88z M16.39,29.02
			c0.01-1.53-0.94-2.45-2.42-2.61c-1.19-0.12-2.5,0.68-2.73,1.75c-0.23,1.12,0.05,2.17,0.92,3.05c0.97,0.98,2.52,0.89,3.4-0.16
			C16.13,30.37,16.37,29.6,16.39,29.02z M36.49,29.08c0.02-1.59-0.92-2.5-2.42-2.66c-1.19-0.13-2.48,0.65-2.73,1.74
			c-0.24,1.05,0.04,2.04,0.77,2.9c0.91,1.09,2.52,1.1,3.48,0.05C36.23,30.43,36.48,29.63,36.49,29.08z M23.84,8.46
			c1.46,0,2.92-0.01,4.37,0.01c0.31,0,0.46-0.08,0.44-0.36c-0.01-0.35-0.01-0.7,0-1.05c0.01-0.23-0.09-0.34-0.38-0.34
			c-2.96,0.01-5.91,0.01-8.87,0c-0.3,0-0.38,0.11-0.38,0.34c0.01,0.33,0.02,0.65-0.01,0.97c-0.03,0.36,0.14,0.44,0.53,0.44
			C20.99,8.44,22.41,8.46,23.84,8.46z M23.89,35.02c-0.04,0-0.07,0-0.11,0c-0.32,1.5-0.63,3.01-0.95,4.52
			c-0.03,0.12,0.02,0.21,0.12,0.3c0.74,0.66,0.86,0.66,1.67,0.07c0.18-0.13,0.24-0.25,0.19-0.45c-0.09-0.35-0.15-0.71-0.22-1.06
			C24.36,37.27,24.12,36.14,23.89,35.02z"/>
		<path class="st2" d="M19.67,39.71c0,0.49,0.01,0.97,0,1.46c-0.01,0.46-0.28,0.73-0.73,0.74c-0.46,0.02-0.77-0.26-0.78-0.74
			c-0.01-0.97-0.01-1.94,0-2.92c0.01-0.48,0.31-0.74,0.77-0.74s0.73,0.27,0.73,0.77C19.67,38.76,19.67,39.23,19.67,39.71z"/>
		<path class="st2" d="M28.01,39.7c0-0.49-0.01-0.97,0-1.46c0.01-0.46,0.28-0.72,0.73-0.73c0.46-0.01,0.77,0.24,0.77,0.69
			c0.02,1.01,0.02,2.01,0,3.02c-0.01,0.44-0.35,0.7-0.8,0.68c-0.43-0.02-0.7-0.28-0.7-0.71C28,40.69,28.01,40.19,28.01,39.7z"/>
		<path class="st2" d="M27.29,16.3c-0.68,0-1.37,0.01-2.05,0c-0.56-0.01-0.85-0.23-0.87-0.7c-0.02-1.11-0.02-2.22,0-3.33
			c0.01-0.49,0.32-0.73,0.9-0.73c1.34-0.01,2.68-0.01,4.02,0c0.6,0,0.87,0.24,0.87,0.77c0.01,1.07,0.01,2.15,0,3.22
			c0,0.55-0.26,0.77-0.9,0.77C28.6,16.31,27.94,16.3,27.29,16.3z M27.26,15.05c0.33,0,0.67-0.01,1,0c0.25,0.01,0.38-0.07,0.38-0.3
			c-0.01-0.54-0.01-1.07,0-1.61c0-0.22-0.11-0.32-0.37-0.31c-0.68,0.01-1.37,0-2.05,0c-0.23,0-0.36,0.08-0.35,0.29
			c0.01,0.55,0.01,1.09,0,1.65c0,0.21,0.1,0.3,0.34,0.29C26.56,15.04,26.91,15.05,27.26,15.05z"/>
		<path class="st2" d="M20.39,16.3c-0.68,0-1.37,0.01-2.05,0c-0.53-0.01-0.81-0.24-0.82-0.69c-0.01-1.12-0.01-2.25,0-3.37
			c0.01-0.46,0.29-0.7,0.82-0.7c1.37-0.01,2.74-0.01,4.11,0c0.53,0,0.84,0.24,0.85,0.68c0.03,1.13,0.03,2.27-0.01,3.4
			c-0.01,0.47-0.3,0.66-0.85,0.67C21.76,16.31,21.07,16.3,20.39,16.3z M20.39,15.05c0.35,0,0.7-0.01,1.05,0
			c0.26,0.01,0.37-0.08,0.36-0.3c-0.01-0.54-0.01-1.07,0-1.61c0.01-0.23-0.12-0.31-0.37-0.3c-0.67,0.01-1.34,0.01-2,0
			c-0.28,0-0.4,0.09-0.39,0.33c0.01,0.52,0.01,1.05,0,1.57c-0.01,0.25,0.14,0.33,0.41,0.32C19.75,15.04,20.07,15.05,20.39,15.05z"/>
		<path class="st2" d="M27.24,21.84c-0.67,0-1.34,0.01-2.01,0c-0.55-0.01-0.86-0.23-0.87-0.7c-0.02-1.11-0.02-2.22,0-3.33
			c0.01-0.51,0.32-0.73,0.93-0.73c1.31-0.01,2.62-0.01,3.93,0c0.66,0,0.92,0.23,0.92,0.81c0.01,1.06,0.01,2.12,0,3.18
			c0,0.55-0.26,0.77-0.9,0.77C28.59,21.84,27.91,21.84,27.24,21.84z M27.15,20.58c0.41,0,0.74-0.01,1.07,0
			c0.29,0.01,0.43-0.08,0.42-0.34c-0.01-0.51-0.01-1.02,0-1.53c0.01-0.26-0.14-0.36-0.42-0.35c-0.36,0.01-0.73,0-1.09,0
			c-1.26,0-1.27,0-1.25,1.08c0.01,0.36-0.18,0.81,0.09,1.05C26.26,20.75,26.8,20.54,27.15,20.58z"/>
		<path class="st2" d="M20.43,21.84c-0.67,0-1.34,0-2.01,0c-0.62-0.01-0.9-0.22-0.9-0.74c-0.01-1.1-0.01-2.2,0-3.3
			c0.01-0.48,0.28-0.72,0.83-0.73c1.37-0.01,2.74-0.01,4.11,0c0.5,0,0.82,0.22,0.83,0.65c0.03,1.15,0.03,2.29,0,3.44
			c-0.01,0.46-0.31,0.66-0.85,0.67C21.77,21.84,21.09,21.84,20.43,21.84z M20.39,20.58c0.35,0,0.7-0.01,1.05,0
			c0.26,0.01,0.37-0.07,0.37-0.3c-0.01-0.53-0.01-1.07,0-1.6c0.01-0.23-0.11-0.31-0.37-0.31c-0.67,0.01-1.34,0.01-2,0
			c-0.31-0.01-0.41,0.12-0.4,0.36c0.01,0.49,0.02,0.97-0.01,1.46c-0.01,0.32,0.14,0.42,0.49,0.39
			C19.81,20.57,20.1,20.58,20.39,20.58z"/>
		<path class="st2" d="M33.42,20.58c0-0.56-0.01-1.12,0-1.69c0.01-0.49,0.27-0.7,0.84-0.71c1.19-0.01,2.39-0.01,3.58,0
			c0.55,0,0.85,0.24,0.86,0.71c0.02,1.12,0.02,2.25,0,3.36c-0.01,0.45-0.32,0.68-0.84,0.69c-1.21,0.01-2.42,0.01-3.63,0
			c-0.55-0.01-0.81-0.24-0.82-0.73C33.41,21.68,33.42,21.14,33.42,20.58z M34.88,20.57c0,0.25,0.01,0.5,0,0.74
			c-0.01,0.24,0.09,0.35,0.38,0.34c0.52-0.01,1.05-0.01,1.56,0c0.28,0,0.38-0.11,0.38-0.34c-0.01-0.49-0.01-0.99,0-1.49
			c0.01-0.24-0.09-0.35-0.38-0.34c-0.52,0.01-1.05,0.01-1.56,0c-0.29-0.01-0.38,0.11-0.37,0.35C34.89,20.08,34.88,20.33,34.88,20.57
			z"/>
		<path class="st2" d="M14.25,20.57c0,0.56,0.01,1.12,0,1.69c-0.01,0.46-0.27,0.69-0.81,0.7c-1.21,0.01-2.42,0.01-3.63,0
			c-0.53,0-0.83-0.23-0.85-0.68c-0.02-1.13-0.02-2.27,0-3.4c0.01-0.45,0.31-0.68,0.85-0.68c1.21-0.01,2.42-0.01,3.63,0
			c0.54,0,0.8,0.23,0.8,0.7C14.26,19.46,14.25,20.01,14.25,20.57z M12.79,20.57c0-0.25-0.01-0.5,0-0.74
			c0.01-0.23-0.09-0.35-0.37-0.34c-0.52,0.01-1.05,0.01-1.56,0c-0.28,0-0.38,0.11-0.38,0.34c0.01,0.49,0.01,0.99,0,1.49
			c-0.01,0.27,0.13,0.35,0.42,0.35c0.49-0.01,0.99-0.02,1.48,0c0.33,0.01,0.43-0.12,0.42-0.38C12.78,21.05,12.79,20.82,12.79,20.57z
			"/>
	</g>
</g>
<g id="hotel" class="st0">
	<g class="st1">
		<path class="st2" d="M23.98,48c-7.64,0-15.28,0-22.92,0c-0.9,0-1.05-0.15-1.05-1.05c0-0.59-0.01-1.18,0-1.77
			c0.01-0.57,0.23-0.78,0.79-0.78c0.89-0.01,1.78-0.02,2.67,0.01C3.9,44.42,4.01,44.27,4,43.86c-0.01-3.55,0-7.1,0-10.65
			c0-5.41,0-10.82-0.01-16.23c0-0.5,0.17-0.79,0.64-0.98c3.59-1.52,7.18-3.05,10.76-4.59c0.42-0.18,0.77-0.17,1.18,0.01
			c1.28,0.57,2.57,1.11,3.86,1.66c0.48,0.2,0.51,0.19,0.51-0.33c0-2.31,0.02-4.62-0.01-6.92c-0.01-0.7,0.22-1.08,0.89-1.37
			c3.41-1.42,6.79-2.89,10.19-4.35c0.31-0.13,0.61-0.15,0.92-0.01c3.51,1.5,7.02,3,10.53,4.5C43.83,4.75,44.02,5,44,5.41
			c-0.02,0.4,0,0.8,0,1.19c0,12.37,0,24.73,0,37.1c0,0.7,0,0.7,0.71,0.7c0.84,0,1.69-0.01,2.53,0c0.51,0.01,0.74,0.21,0.75,0.72
			c0.02,0.72,0.02,1.43,0,2.15C47.97,47.81,47.73,48,47.14,48c-2.8,0-5.6,0-8.4,0C33.82,48,28.9,48,23.98,48z M33.11,22.97
			c0,6.96,0,13.91-0.01,20.87c0,0.43,0.11,0.57,0.56,0.57c2.82-0.02,5.64-0.01,8.45-0.01c0.67,0,0.67,0,0.67-0.69
			c0-12.46,0-24.93,0.01-37.39c0-0.49-0.15-0.73-0.6-0.92c-2.83-1.18-5.65-2.4-8.47-3.61c-0.61-0.26-0.61-0.26-0.61,0.41
			C33.11,9.12,33.11,16.05,33.11,22.97z M31.84,22.99c0-6.94,0-13.88,0-20.82c0-0.61-0.02-0.62-0.57-0.38
			c-2.79,1.19-5.58,2.4-8.39,3.57c-0.5,0.21-0.68,0.45-0.68,1.01c0.02,8.39,0.01,16.77,0.01,25.16c0,4.11,0,8.21-0.01,12.32
			c0,0.41,0.1,0.59,0.53,0.55c0.35-0.03,0.7-0.02,1.05,0c0.34,0.02,0.49-0.09,0.48-0.46c-0.01-2.55-0.01-5.09,0-7.64
			c0-0.29-0.09-0.42-0.38-0.49c-0.29-0.07-0.42-0.32-0.4-0.63c0.02-0.29,0.19-0.47,0.47-0.53c0.15-0.04,0.31-0.06,0.47-0.08
			c0.92-0.09,1.83-0.18,2.75-0.26c0.92-0.08,1.84-0.16,2.76-0.22c0.35-0.02,0.59,0.15,0.66,0.5c0.06,0.3-0.08,0.58-0.37,0.64
			c-0.41,0.1-0.41,0.36-0.41,0.68c0,2.4,0,4.81,0,7.21c0,1.28,0,1.28,1.28,1.28c0.73,0,0.74,0,0.74-0.73
			C31.84,36.78,31.84,29.89,31.84,22.99z M15.31,28.62c0-5.01,0-10.03,0-15.04c0-0.14,0-0.29,0-0.43c0-0.2-0.09-0.3-0.3-0.21
			c-0.12,0.05-0.24,0.09-0.35,0.14c-2.96,1.26-5.91,2.54-8.87,3.78c-0.44,0.19-0.57,0.42-0.57,0.89c0.01,8.66,0.01,17.31,0.01,25.97
			c0,0.1,0.01,0.19,0,0.29c-0.02,0.28,0.09,0.41,0.38,0.4c0.52-0.01,1.05-0.01,1.58,0c0.27,0,0.36-0.12,0.36-0.38
			c0-1.99-0.01-3.98,0-5.97c0-0.26-0.1-0.36-0.35-0.41c-0.29-0.06-0.48-0.28-0.47-0.58c0-0.32,0.19-0.54,0.51-0.6
			c0.19-0.04,0.38-0.06,0.57-0.08c0.51-0.05,1.01-0.1,1.52-0.15c1.28-0.11,2.56-0.23,3.85-0.33c0.37-0.03,0.63,0.15,0.68,0.52
			c0.05,0.35-0.14,0.59-0.48,0.66c-0.26,0.06-0.33,0.2-0.33,0.44c0,2.16,0.01,4.33,0,6.49c0,0.29,0.12,0.39,0.4,0.38
			c0.4-0.01,0.8,0,1.19,0c0.67,0,0.67,0,0.67-0.7C15.31,38.67,15.31,33.65,15.31,28.62z M16.58,28.6c0,0.19,0,0.38,0,0.57
			c0,4.85,0,9.71,0,14.56c0,0.67,0,0.67,0.69,0.67c0.99,0,1.97,0,2.96,0c0.72,0,0.72,0,0.72-0.7c0-3.82,0-7.64,0-11.46
			c0-5.66,0-11.33,0.01-16.99c0-0.45-0.13-0.69-0.56-0.85c-1.05-0.41-2.08-0.88-3.12-1.32c-0.69-0.29-0.69-0.29-0.69,0.48
			C16.58,18.57,16.58,23.59,16.58,28.6z M24.05,45.61c-7.39,0-14.77,0-22.16-0.01c-0.49,0-0.61,0.14-0.62,0.62
			c-0.01,0.54,0.24,0.57,0.67,0.57c14.71-0.01,29.42-0.01,44.13-0.01c0.11,0,0.22,0,0.33,0c0.22,0.01,0.3-0.11,0.32-0.32
			c0.08-0.78,0.03-0.85-0.75-0.85C38.66,45.61,31.36,45.61,24.05,45.61z M28.55,39.99c0-1.34-0.01-2.67,0.01-4.01
			c0.01-0.4-0.13-0.54-0.53-0.5c-0.68,0.08-1.36,0.14-2.04,0.2c-0.3,0.03-0.45,0.15-0.45,0.48c0.01,2.61,0.01,5.22,0,7.83
			c0,0.31,0.13,0.42,0.43,0.41c0.7-0.01,1.4-0.02,2.1,0c0.39,0.01,0.49-0.13,0.49-0.5C28.54,42.6,28.55,41.3,28.55,39.99z
			 M11.77,40.87c0-1.03-0.01-2.06,0.01-3.1c0.01-0.39-0.15-0.51-0.51-0.47c-0.66,0.08-1.33,0.14-1.99,0.19
			c-0.33,0.03-0.47,0.19-0.47,0.52c0.01,1.97,0.01,3.94,0,5.91c0,0.39,0.16,0.49,0.52,0.48c0.65-0.02,1.3-0.02,1.95,0
			c0.37,0.01,0.51-0.11,0.5-0.49C11.75,42.9,11.77,41.88,11.77,40.87z"/>
		<path class="st2" d="M34.58,23.85c0-5.94,0-11.87,0-17.81c0-0.72,0.19-1.05,0.61-1.06c0.44-0.02,0.67,0.35,0.67,1.07
			c0,11.86,0,23.72,0,35.57c0,0.72-0.2,1.03-0.64,1.02c-0.45,0-0.63-0.3-0.63-1.03C34.58,35.69,34.58,29.77,34.58,23.85z"/>
		<path class="st2" d="M41.31,24.99c0,5.52,0,11.04,0,16.56c0,0.22,0.02,0.45-0.06,0.66c-0.1,0.27-0.28,0.42-0.57,0.43
			c-0.31,0.01-0.52-0.15-0.6-0.44c-0.05-0.18-0.05-0.38-0.05-0.57c0-11.11,0-22.21,0-33.32c0-0.11,0-0.22,0.01-0.33
			c0.03-0.38,0.21-0.65,0.61-0.66c0.41-0.01,0.6,0.25,0.65,0.63c0.02,0.19,0.01,0.38,0.01,0.57C41.31,14.01,41.31,19.5,41.31,24.99z
			"/>
		<path class="st2" d="M37.33,24.42c0-5.76,0-11.52,0-17.28c0-0.7,0.18-1,0.61-1c0.42,0,0.61,0.31,0.61,1c0,11.5,0,23.01,0,34.51
			c0,0.05,0,0.1,0,0.14c-0.01,0.57-0.21,0.84-0.61,0.84c-0.41,0-0.6-0.26-0.6-0.84C37.33,36.01,37.33,30.21,37.33,24.42z"/>
		<path class="st2" d="M30.9,14.19c0,0.67-0.01,1.33,0,2c0.01,0.45-0.2,0.72-0.63,0.83c-0.67,0.19-1.34,0.38-2.02,0.56
			c-0.6,0.15-0.93-0.1-0.93-0.72c-0.01-1.3,0-2.6-0.01-3.91c0-0.4,0.18-0.66,0.56-0.79c0.71-0.24,1.41-0.49,2.12-0.72
			c0.51-0.17,0.88,0.09,0.9,0.65C30.92,12.79,30.9,13.49,30.9,14.19L30.9,14.19z M28.6,14.63c0,0.33-0.01,0.67,0,1
			c0.01,0.18-0.1,0.45,0.23,0.48c0.34,0.04,0.78-0.24,0.79-0.51c0.01-0.78,0.01-1.55,0-2.33c0-0.24-0.07-0.35-0.35-0.28
			c-0.61,0.16-0.68,0.22-0.68,0.87C28.6,14.12,28.6,14.38,28.6,14.63z"/>
		<path class="st2" d="M30.9,21.05c0,0.67,0.01,1.33,0,2c-0.01,0.53-0.19,0.74-0.71,0.85c-0.67,0.13-1.34,0.26-2.01,0.37
			c-0.51,0.09-0.84-0.16-0.85-0.7c-0.02-1.35-0.01-2.7,0-4.05c0-0.38,0.21-0.62,0.58-0.71c0.71-0.17,1.42-0.36,2.13-0.52
			c0.52-0.12,0.85,0.13,0.86,0.66C30.92,19.66,30.9,20.36,30.9,21.05L30.9,21.05z M29.63,21.26c0-0.33,0.02-0.67-0.01-1
			c-0.01-0.19,0.12-0.54-0.24-0.49c-0.3,0.04-0.77-0.04-0.78,0.49c-0.01,0.78,0,1.55,0,2.33c0,0.11,0,0.23,0.13,0.28
			c0.33,0.15,0.88-0.19,0.89-0.56C29.63,21.96,29.63,21.61,29.63,21.26z"/>
		<path class="st2" d="M30.9,27.99c0,0.65-0.01,1.3,0,1.96c0,0.45-0.19,0.74-0.64,0.8c-0.74,0.09-1.48,0.17-2.23,0.22
			c-0.42,0.03-0.7-0.24-0.7-0.67c-0.02-1.37-0.01-2.74,0-4.1c0-0.38,0.21-0.63,0.59-0.69c0.74-0.12,1.47-0.25,2.21-0.35
			c0.45-0.06,0.75,0.21,0.76,0.7C30.91,26.56,30.9,27.28,30.9,27.99L30.9,27.99z M29.62,28C29.62,28,29.63,28,29.62,28
			c0-0.32,0.02-0.64,0-0.95c-0.01-0.2,0.12-0.56-0.29-0.5c-0.3,0.04-0.76-0.08-0.74,0.5c0.02,0.72,0.01,1.43,0,2.15
			c0,0.31,0.12,0.44,0.43,0.41c0.28-0.02,0.61,0.04,0.6-0.41C29.62,28.8,29.62,28.4,29.62,28z"/>
		<path class="st2" d="M30.9,7.45c0,0.6-0.01,1.21,0,1.81c0.01,0.44-0.17,0.73-0.58,0.88c-0.69,0.25-1.37,0.52-2.06,0.76
			c-0.54,0.19-0.93-0.08-0.94-0.65c-0.02-1.26-0.01-2.51,0-3.77c0-0.32,0.15-0.55,0.44-0.68C28.5,5.48,29.24,5.14,30,4.84
			c0.49-0.2,0.88,0.08,0.9,0.64C30.92,6.15,30.9,6.8,30.9,7.45L30.9,7.45z M29.63,7.75c0-0.35,0-0.7,0-1.05
			c0-0.1,0.03-0.23-0.13-0.26c-0.32-0.05-0.88,0.41-0.89,0.74c-0.01,0.51-0.01,1.02,0,1.53c0.01,0.21-0.12,0.52,0.09,0.62
			c0.25,0.11,0.51-0.11,0.75-0.21c0.17-0.08,0.18-0.25,0.18-0.41C29.63,8.39,29.62,8.07,29.63,7.75z"/>
		<path class="st2" d="M26.5,15.54c0,0.62-0.01,1.24,0,1.86c0.01,0.46-0.2,0.75-0.65,0.87c-0.57,0.15-1.13,0.33-1.7,0.47
			c-0.64,0.16-0.94-0.08-0.95-0.74c-0.01-1.21,0.01-2.42-0.01-3.63c0-0.43,0.16-0.69,0.57-0.82c0.56-0.18,1.11-0.39,1.67-0.57
			c0.72-0.23,1.06,0.02,1.07,0.79C26.51,14.36,26.5,14.95,26.5,15.54z M25.22,15.79c0-0.29,0.02-0.58-0.01-0.86
			c-0.02-0.16,0.16-0.49-0.2-0.46c-0.26,0.02-0.6,0.06-0.6,0.47c0,0.7,0,1.4,0,2.1c0,0.13,0,0.28,0.2,0.24
			c0.31-0.05,0.65-0.07,0.62-0.55C25.2,16.43,25.22,16.11,25.22,15.79z"/>
		<path class="st2" d="M23.2,22.46c0-0.62,0.01-1.24,0-1.86c-0.01-0.41,0.17-0.66,0.57-0.76c0.62-0.15,1.23-0.32,1.85-0.45
			c0.55-0.11,0.86,0.14,0.87,0.71c0.02,1.29,0.01,2.58,0,3.87c0,0.4-0.2,0.66-0.61,0.73c-0.61,0.11-1.22,0.25-1.83,0.35
			c-0.57,0.09-0.85-0.15-0.86-0.73C23.19,23.7,23.2,23.08,23.2,22.46z M25.22,22.22c0-0.32,0.01-0.63-0.01-0.95
			c-0.01-0.16,0.11-0.45-0.2-0.43c-0.26,0.01-0.61,0-0.61,0.43c0,0.7,0,1.39,0,2.09c0,0.26,0.12,0.32,0.36,0.29
			c0.31-0.05,0.48-0.17,0.45-0.53C25.2,22.82,25.22,22.52,25.22,22.22z"/>
		<path class="st2" d="M26.5,28.53c0,0.62,0.01,1.24,0,1.86c-0.01,0.53-0.22,0.74-0.75,0.79c-0.54,0.05-1.07,0.11-1.61,0.17
			c-0.66,0.07-0.93-0.16-0.93-0.81c-0.01-1.19,0-2.38,0-3.58c0-0.58,0.13-0.75,0.68-0.85c0.61-0.11,1.22-0.2,1.84-0.28
			c0.47-0.06,0.77,0.22,0.78,0.74C26.51,27.22,26.5,27.88,26.5,28.53z M24.41,28.67c0,0.3-0.01,0.6,0,0.9
			c0.01,0.2-0.08,0.47,0.3,0.44c0.3-0.03,0.52-0.05,0.51-0.45c-0.02-0.65-0.02-1.3,0-1.95c0.01-0.34-0.09-0.45-0.45-0.38
			c-0.27,0.06-0.38,0.16-0.37,0.43C24.43,28,24.41,28.34,24.41,28.67z"/>
		<path class="st2" d="M23.2,10.01c0-0.57,0.01-1.15,0-1.72c-0.01-0.37,0.15-0.6,0.48-0.74c0.61-0.26,1.22-0.54,1.84-0.78
			c0.56-0.22,0.96,0.04,0.97,0.64c0.02,1.21,0.01,2.42,0,3.63c0,0.34-0.16,0.58-0.48,0.71c-0.65,0.25-1.31,0.5-1.97,0.72
			c-0.5,0.16-0.84-0.1-0.85-0.64C23.19,11.22,23.2,10.62,23.2,10.01z M24.42,9.71c0,0.32,0,0.63,0,0.95c0,0.13,0,0.29,0.19,0.25
			c0.3-0.07,0.64-0.11,0.62-0.57c-0.02-0.51,0-1.02,0-1.52c0-0.54-0.09-0.59-0.56-0.33c-0.17,0.1-0.26,0.22-0.25,0.42
			C24.42,9.17,24.42,9.44,24.42,9.71z"/>
		<path class="st2" d="M9.82,24.28c0-0.53,0.01-1.05,0-1.58c-0.01-0.41,0.16-0.67,0.55-0.79c0.58-0.18,1.15-0.37,1.73-0.54
			c0.47-0.14,0.82,0.06,0.86,0.54c0.09,1.21,0.07,2.42,0.01,3.62c-0.01,0.32-0.2,0.53-0.52,0.61c-0.59,0.15-1.17,0.31-1.76,0.44
			c-0.6,0.12-0.86-0.11-0.87-0.73C9.82,25.33,9.82,24.8,9.82,24.28z M11.74,23.94c0-0.29,0-0.57,0-0.86c0-0.2-0.08-0.25-0.27-0.2
			c-0.27,0.07-0.46,0.18-0.44,0.51c0.02,0.44-0.01,0.89,0.01,1.33c0.01,0.16-0.12,0.43,0.2,0.42c0.26-0.01,0.51-0.08,0.49-0.44
			C11.73,24.45,11.74,24.19,11.74,23.94z"/>
		<path class="st2" d="M13,29.39c0,0.54,0.02,1.08-0.01,1.62c-0.03,0.56-0.23,0.76-0.78,0.83s-1.1,0.16-1.65,0.21
			c-0.49,0.04-0.72-0.17-0.73-0.66c-0.01-1.11,0-2.23,0-3.34c0-0.35,0.16-0.58,0.51-0.66c0.6-0.13,1.21-0.28,1.82-0.38
			c0.53-0.09,0.8,0.12,0.83,0.66C13.02,28.25,12.99,28.82,13,29.39C12.99,29.39,13,29.39,13,29.39z M11.74,29.55
			c0-0.24,0.01-0.48,0-0.71c-0.01-0.18,0.05-0.42-0.25-0.4c-0.25,0.02-0.46,0.1-0.45,0.43c0.02,0.49,0,0.98,0.01,1.47
			c0,0.16-0.06,0.39,0.23,0.37c0.23-0.02,0.49-0.04,0.47-0.39C11.73,30.06,11.74,29.8,11.74,29.55z"/>
		<path class="st2" d="M9.82,18.95c0-0.49,0.01-0.99,0-1.48c-0.01-0.38,0.15-0.64,0.5-0.78c0.57-0.24,1.14-0.49,1.72-0.72
			c0.52-0.2,0.91,0.02,0.94,0.58c0.06,1.1,0.06,2.19,0,3.29c-0.02,0.34-0.21,0.55-0.53,0.66c-0.56,0.19-1.1,0.41-1.67,0.59
			c-0.62,0.2-0.95-0.06-0.96-0.71C9.82,19.91,9.82,19.43,9.82,18.95z M11.74,18.43L11.74,18.43c0-0.16,0.02-0.32,0-0.48
			c-0.02-0.14,0.1-0.37-0.1-0.41c-0.18-0.04-0.36,0.09-0.51,0.22c-0.1,0.08-0.08,0.2-0.08,0.31c0,0.36-0.02,0.73,0.01,1.09
			c0.01,0.15-0.14,0.44,0.18,0.43c0.25-0.01,0.51-0.1,0.51-0.45C11.73,18.9,11.74,18.67,11.74,18.43z"/>
		<path class="st2" d="M9.32,24.77c0,0.51-0.01,1.02,0,1.53c0.01,0.41-0.17,0.67-0.57,0.77c-0.51,0.13-1.02,0.27-1.53,0.37
			c-0.47,0.09-0.8-0.15-0.81-0.63c-0.02-1.05-0.02-2.1,0-3.15c0-0.31,0.18-0.54,0.48-0.64c0.53-0.17,1.06-0.35,1.6-0.49
			c0.48-0.13,0.81,0.12,0.82,0.63C9.33,23.69,9.32,24.23,9.32,24.77z M8.1,24.97L8.1,24.97c0.01-0.19,0.02-0.38,0-0.57
			c-0.01-0.14,0.11-0.36-0.14-0.38C7.73,24,7.68,24.19,7.68,24.38c0,0.44,0,0.89,0,1.33c0,0.12-0.02,0.27,0.18,0.26
			c0.15-0.01,0.24-0.09,0.24-0.24C8.1,25.48,8.1,25.23,8.1,24.97z"/>
		<path class="st2" d="M9.32,30.01c0,0.52-0.01,1.05,0,1.57c0.01,0.44-0.21,0.68-0.64,0.74c-0.52,0.07-1.04,0.15-1.56,0.19
			c-0.45,0.04-0.71-0.22-0.71-0.64c-0.02-1.05-0.01-2.09,0-3.14c0-0.34,0.19-0.57,0.53-0.65c0.53-0.12,1.05-0.23,1.58-0.33
			c0.5-0.09,0.78,0.15,0.79,0.68C9.33,28.96,9.32,29.49,9.32,30.01z M7.68,30.18L7.68,30.18c0,0.24-0.01,0.47,0,0.71
			c0,0.12-0.01,0.27,0.18,0.26c0.15-0.01,0.23-0.09,0.23-0.24c0-0.49,0-0.98,0-1.47c0-0.14-0.05-0.26-0.22-0.24
			c-0.16,0.01-0.2,0.14-0.2,0.27C7.68,29.7,7.68,29.94,7.68,30.18z"/>
		<path class="st2" d="M9.32,19.64c0,0.48-0.01,0.95,0,1.43c0.01,0.37-0.16,0.6-0.5,0.72c-0.51,0.18-1.01,0.37-1.53,0.53
			c-0.49,0.15-0.87-0.1-0.88-0.62c-0.03-0.97-0.01-1.94,0-2.9c0-0.29,0.15-0.52,0.42-0.64c0.52-0.23,1.04-0.47,1.58-0.67
			c0.52-0.19,0.88,0.06,0.9,0.61C9.33,18.63,9.32,19.13,9.32,19.64z M8.1,19.87L8.1,19.87c0.01-0.16,0.02-0.32,0-0.48
			c-0.01-0.12,0.09-0.33-0.14-0.32c-0.18,0-0.27,0.15-0.27,0.33c0,0.38,0,0.76,0,1.14c0,0.11,0.02,0.24,0.17,0.24
			c0.15,0,0.23-0.1,0.24-0.24C8.1,20.31,8.1,20.09,8.1,19.87z"/>
	</g>
</g>
</svg>
