<?xml version="1.0" encoding="utf-8"?>
<!-- Generator: Adobe Illustrator 26.0.1, SVG Export Plug-In . SVG Version: 6.00 Build 0)  -->
<svg version="1.1" id="Layer_1" xmlns="http://www.w3.org/2000/svg" xmlns:xlink="http://www.w3.org/1999/xlink" x="0px" y="0px"
	 viewBox="0 0 99.66 99.46" style="enable-background:new 0 0 99.66 99.46;" xml:space="preserve">
<style type="text/css">
	.st0{display:none;}
	.st1{display:inline;}
	.st2{fill:#187BCD;}
</style>
<g id="consultation" class="st0">
	<g class="st1">
		<path class="st2" d="M247.29,218.68c1.09-0.03,2.15,0.1,3.2,0.37c0.37,0.1,0.5,0.05,0.53-0.38c0.39-6.55,4.99-11.91,11.43-13.19
			c8.23-1.63,15.57,3.95,16.86,11.53c0.66,3.89-0.15,7.46-2.4,10.7c-0.2,0.28-0.23,0.49-0.03,0.79c0.81,1.26,1.6,2.53,2.4,3.79
			c0.22,0.35,0.37,0.7,0.11,1.09c-0.27,0.4-0.67,0.39-1.09,0.29c-2.07-0.46-4.14-0.91-6.21-1.37c-0.26-0.06-0.48-0.04-0.72,0.07
			c-3.01,1.38-6.13,1.72-9.35,0.97c-0.38-0.09-0.48-0.01-0.49,0.38c-0.18,5.82-4.5,11.3-10.14,12.9c-3.43,0.97-6.78,0.76-10.03-0.72
			c-0.36-0.16-0.69-0.19-1.08-0.1c-1.97,0.45-3.95,0.88-5.93,1.33c-0.26,0.06-0.53,0.11-0.79,0.03c-0.52-0.16-0.68-0.73-0.35-1.27
			c0.78-1.26,1.56-2.52,2.38-3.75c0.26-0.39,0.26-0.66-0.01-1.06c-4.05-5.89-3.25-13.61,1.93-18.51
			C240.23,219.98,243.52,218.7,247.29,218.68z M235.51,245.21c1.69-0.37,3.22-0.7,4.75-1.06c0.53-0.13,0.99-0.07,1.48,0.18
			c2.45,1.21,5.05,1.57,7.73,1.1c6.61-1.16,11.34-7.39,10.33-14.32c-1-6.85-7.49-11.91-14.75-10.63
			c-6.33,1.11-10.78,6.86-10.42,13.08c0.16,2.63,1,4.99,2.59,7.09c0.6,0.79,0.61,0.89,0.07,1.74
			C236.73,243.29,236.16,244.19,235.51,245.21z M276.89,231.71c0.01-0.23-0.12-0.34-0.2-0.47c-0.54-0.86-1.08-1.71-1.62-2.57
			c-0.33-0.52-0.31-0.81,0.05-1.28c2.26-2.89,3.16-6.15,2.64-9.78c-1.06-7.39-8.38-12.36-15.81-10.39
			c-5.08,1.35-9.15,5.88-9.41,11.88c-0.02,0.42,0.11,0.63,0.5,0.81c4.71,2.21,7.5,5.9,8.34,11.03c0.08,0.49,0.26,0.68,0.72,0.78
			c3.04,0.71,5.97,0.44,8.79-0.93c0.38-0.19,0.75-0.25,1.17-0.15c0.8,0.2,1.61,0.36,2.42,0.54
			C275.28,231.36,276.08,231.53,276.89,231.71z"/>
		<path class="st2" d="M246.5,233.87c0-0.51,0-1.03,0-1.54c0.01-0.6,0.22-0.83,0.82-0.92c1.22-0.17,1.9-0.77,2.11-1.85
			c0.21-1.09-0.5-2.2-1.58-2.47c-1.16-0.29-2.39,0.34-2.64,1.47c-0.13,0.57-0.36,0.71-0.9,0.69c-0.88-0.04-0.91-0.05-0.71-0.91
			c0.43-1.83,2.01-2.98,3.98-2.91c1.67,0.06,3.16,1.43,3.45,3.16c0.3,1.77-0.73,3.56-2.44,4.16c-0.42,0.15-0.55,0.34-0.53,0.76
			c0.03,0.67,0,1.34,0.01,2.01c0.01,0.35-0.13,0.46-0.47,0.46c-1.31-0.03-1.08,0.15-1.1-1.08
			C246.49,234.55,246.5,234.21,246.5,233.87z"/>
		<path class="st2" d="M246.13,238.52c0.01-0.66,0.5-1.13,1.17-1.12c0.68,0.01,1.15,0.51,1.13,1.21c-0.02,0.65-0.52,1.12-1.19,1.1
			C246.58,239.69,246.11,239.19,246.13,238.52z"/>
		<path class="st2" d="M265.25,215.76c-1.82,0-3.65-0.01-5.47,0.01c-0.42,0-0.58-0.12-0.56-0.55c0.04-1.18-0.13-1.01,1.02-1.01
			c3.47-0.01,6.95,0.01,10.42-0.01c0.47,0,0.63,0.12,0.61,0.6c-0.04,1.11,0.12,0.96-0.98,0.97
			C268.61,215.77,266.93,215.76,265.25,215.76z"/>
		<path class="st2" d="M265.21,220.25c-1.81,0-3.62-0.01-5.42,0.01c-0.46,0.01-0.59-0.15-0.57-0.59c0.04-1.12-0.12-0.98,0.97-0.98
			c3.47-0.01,6.95,0,10.42,0c0.66,0,0.66,0,0.66,0.67c-0.01,0.99,0.1,0.88-0.86,0.89C268.67,220.25,266.94,220.25,265.21,220.25z"/>
		<path class="st2" d="M266.74,223.18c1.34,0,2.68,0.01,4.02-0.01c0.38,0,0.52,0.12,0.51,0.51c-0.03,1.24,0.13,1.06-1.02,1.06
			c-2.48,0.01-4.95-0.01-7.43,0.01c-0.47,0-0.63-0.12-0.61-0.6c0.04-1.11-0.12-0.96,0.98-0.97
			C264.37,223.17,265.55,223.18,266.74,223.18z"/>
	</g>
</g>
<g id="execution" class="st0">
	<g class="st1">
		<path class="st2" d="M132.69,23.13c5.96,0,11.93,0.02,17.89-0.02c1.32-0.01,2.41,0.73,2.43,2.27c0.01,0.96,0.06,1.92-0.04,2.88
			c-0.08,0.77-0.46,1.33-1.14,1.69c-0.34,0.18-0.51,0.75-0.35,1.1c0.08,0.17,0.23,0.16,0.38,0.17c0.98,0.09,1.16,0.29,1.19,1.26
			c0.01,0.25-0.12,0.59,0.13,0.75c0.35,0.21,0.75,0.34,1.14,0.49c0.1,0.04,0.18-0.06,0.25-0.13c0.13-0.12,0.26-0.25,0.4-0.38
			c0.7-0.65,0.99-0.64,1.66,0.03c0.56,0.56,1.13,1.12,1.68,1.69c0.43,0.45,0.43,0.84,0.01,1.31c-0.01,0.01-0.02,0.02-0.03,0.04
			c-0.69,0.75-0.71,1-0.2,1.88c0.12,0.2,0.28,0.19,0.46,0.2c1.56,0.06,1.56,0.07,1.56,1.63c0,0.65,0,1.29,0,1.94
			c-0.01,0.65-0.28,0.92-0.94,0.96c-0.02,0-0.03,0-0.05,0c-1.07,0.04-1.07,0.06-1.41,1.1c-0.08,0.26,0.03,0.42,0.19,0.57
			c1.17,1.06,0.8,1.43-0.1,2.28c-0.46,0.43-0.89,0.89-1.34,1.33c-0.47,0.46-0.8,0.46-1.3,0.04c-0.04-0.03-0.07-0.07-0.11-0.1
			c-0.75-0.66-0.91-0.67-1.79-0.16c-0.15,0.09-0.22,0.19-0.22,0.36c0,0.2-0.01,0.4-0.01,0.6c-0.02,0.8-0.27,1.06-1.07,1.12
			c-0.22,0.02-0.48-0.04-0.52,0.3c-0.04,0.32,0.09,0.47,0.4,0.57c0.95,0.31,1.39,0.93,1.4,1.93c0,0.43,0.01,0.86,0,1.29
			c-0.02,1.12-0.8,1.9-1.92,1.9c-2.67,0.01-5.33,0-8,0c-0.62,0-0.62,0-0.34,0.54c0.7,1.32,1.4,2.63,2.11,3.95
			c0.57,1.06,0.39,1.72-0.65,2.29c-0.58,0.32-1.17,0.62-1.75,0.93c-0.94,0.5-1.63,0.29-2.14-0.67c-1.16-2.18-2.33-4.35-3.47-6.54
			c-0.2-0.38-0.42-0.51-0.85-0.51c-2.37,0.02-4.74,0.02-7.11,0c-0.4,0-0.62,0.12-0.81,0.48c-1.18,2.24-2.38,4.48-3.57,6.71
			c-0.28,0.52-0.71,0.89-1.28,0.75c-1.22-0.29-2.31-0.89-3.24-1.72c-0.45-0.4-0.34-1-0.06-1.53c0.74-1.39,1.48-2.78,2.22-4.17
			c0.28-0.53,0.28-0.53-0.3-0.53c-2.63,0-5.27,0-7.9,0c-1.33,0-2.06-0.73-2.06-2.06c0-0.41,0-0.83,0-1.24
			c0.01-0.88,0.47-1.56,1.3-1.79c0.44-0.12,0.52-0.35,0.51-0.74c-0.01-6.51-0.01-13.02,0-19.53c0-0.36-0.09-0.56-0.43-0.73
			c-0.8-0.39-1.12-1.1-1.14-1.95c-0.02-0.88-0.03-1.76,0-2.63c0.05-1.4,0.88-2.2,2.28-2.2C120.67,23.13,126.68,23.13,132.69,23.13z
			 M132.69,50.79c5.53,0,11.07,0,16.6,0c0.17,0,0.33,0,0.5,0c0.23,0,0.31-0.11,0.33-0.34c0.03-0.38-0.18-0.43-0.49-0.44
			c-0.88-0.05-1.09-0.29-1.11-1.17c0-0.18,0-0.36-0.01-0.55c0-0.14-0.05-0.25-0.17-0.33c-0.78-0.52-1.18-0.49-1.88,0.16
			c-0.01,0.01-0.02,0.02-0.04,0.03c-0.5,0.46-0.88,0.46-1.38-0.02c-0.43-0.41-0.85-0.84-1.27-1.26c-1.17-1.17-1.17-1.17-0.09-2.39
			c0.11-0.12,0.23-0.22,0.18-0.43c-0.22-0.93-0.47-1.15-1.41-1.18c-0.73-0.03-1.03-0.31-1.05-1.03c-0.02-0.61-0.01-1.23-0.01-1.84
			c0-1.51,0.09-1.61,1.57-1.66c0.18-0.01,0.35,0.02,0.48-0.17c0.52-0.79,0.49-1.17-0.16-1.88c-0.02-0.02-0.05-0.05-0.07-0.07
			c-0.43-0.48-0.44-0.84,0.01-1.3c0.47-0.49,0.96-0.97,1.44-1.45c0.99-0.99,1.09-0.99,2.14-0.06c0.13,0.12,0.25,0.35,0.43,0.29
			c0.41-0.13,0.83-0.27,1.18-0.5c0.23-0.15,0.1-0.5,0.11-0.75c0.02-0.96,0.2-1.17,1.15-1.22c0.3-0.02,0.45-0.1,0.45-0.43
			c0.01-0.59-0.01-0.63-0.64-0.63c-11.18,0-22.36,0-33.55,0c-0.67,0-0.67,0-0.67,0.7c0,6.39,0,12.79,0,19.18
			c0,0.75,0,0.75,0.77,0.75C121.59,50.79,127.14,50.79,132.69,50.79z M132.65,28.85c3.86,0,7.72,0,11.58,0c2.17,0,4.34,0,6.51,0
			c0.65,0,0.94-0.24,0.96-0.81c0.02-0.93,0.02-1.86,0-2.78c-0.01-0.47-0.3-0.77-0.76-0.83c-0.18-0.02-0.36-0.01-0.55-0.01
			c-11.8,0-23.59,0-35.39,0c-0.13,0-0.27,0-0.4,0c-0.6,0.03-0.9,0.34-0.91,0.95c-0.01,0.76,0,1.52,0,2.29
			c0,1.04,0.17,1.21,1.21,1.21C120.82,28.85,126.73,28.85,132.65,28.85z M132.72,52.13c-6.1,0-12.19,0-18.29,0
			c-0.23,0-0.49-0.06-0.68,0.07c-0.59,0.42-0.29,1.06-0.35,1.61c-0.04,0.34,0.02,0.67,0.38,0.84c0.23,0.11,0.49,0.09,0.73,0.09
			c12.12,0,24.25,0,36.37,0c0.12,0,0.23,0,0.35,0c0.45-0.03,0.71-0.23,0.7-0.71c0-0.3,0-0.6,0-0.89c0-0.9-0.11-1.01-0.99-1.01
			C144.87,52.12,138.79,52.13,132.72,52.13z M145.37,37c-0.01,0.05-0.02,0.14-0.06,0.21c-0.33,0.62-0.57,1.27-0.8,1.92
			c-0.13,0.37-0.46,0.48-0.84,0.49c-0.95,0.03-0.96,0.03-0.95,0.97c0.01,1.14-0.11,0.93,0.94,1.03c0.53,0.05,0.82,0.27,0.96,0.76
			c0.14,0.5,0.33,0.97,0.59,1.42c0.26,0.44,0.18,0.81-0.16,1.17c-0.65,0.7-0.64,0.71,0.03,1.38c0.01,0.01,0.02,0.02,0.04,0.04
			c0.63,0.63,0.64,0.64,1.28,0.03c0.41-0.39,0.81-0.46,1.29-0.17c0.44,0.27,0.93,0.44,1.42,0.58c0.41,0.12,0.66,0.38,0.66,0.82
			c0.01,1.3,0.12,1.02,1.12,1.05c0.03,0,0.07,0,0.1,0c0.7,0,0.7,0,0.74-0.69c0.05-0.86,0.16-1,0.98-1.27
			c0.43-0.14,0.84-0.31,1.23-0.54c0.44-0.25,0.81-0.18,1.17,0.15c0.69,0.64,0.7,0.63,1.37-0.05c0.71-0.73,0.76-0.54,0.04-1.34
			c-0.28-0.3-0.45-0.62-0.24-1.03c0.3-0.56,0.53-1.14,0.72-1.74c0.11-0.34,0.36-0.53,0.74-0.57c1.11-0.11,1.11-0.12,1.11-1.22
			c0-0.75-0.02-0.77-0.77-0.8c-0.07,0-0.13,0-0.2,0c-0.48,0.01-0.78-0.21-0.91-0.68c-0.15-0.51-0.33-1.01-0.6-1.47
			c-0.25-0.43-0.2-0.8,0.13-1.18c0.63-0.73,0.62-0.73-0.05-1.4c-0.01-0.01-0.02-0.02-0.04-0.04c-0.61-0.61-0.61-0.61-1.23-0.04
			c-0.49,0.45-0.71,0.49-1.29,0.18c-0.43-0.22-0.86-0.43-1.33-0.55c-0.53-0.13-0.78-0.46-0.8-0.99c-0.01-0.17-0.03-0.33-0.03-0.5
			c0-0.29-0.11-0.43-0.41-0.42c-0.36,0.01-0.73,0.01-1.09,0c-0.3-0.01-0.42,0.15-0.43,0.42c-0.01,0.18-0.01,0.36-0.01,0.55
			c0,0.46-0.21,0.76-0.64,0.89c-0.57,0.17-1.12,0.4-1.65,0.69c-0.33,0.18-0.63,0.11-0.92-0.11c-0.28-0.22-0.49-0.68-0.84-0.64
			c-0.35,0.05-0.56,0.48-0.84,0.74c-0.5,0.49-0.5,0.5,0,1.03C145.12,36.37,145.37,36.59,145.37,37z M139.85,56.02
			c-0.35,0-0.7,0.01-1.04,0c-0.36-0.02-0.5,0.06-0.29,0.44c1.06,1.97,2.11,3.94,3.15,5.92c0.15,0.29,0.3,0.28,0.55,0.14
			c0.49-0.28,0.98-0.55,1.49-0.79c0.35-0.16,0.42-0.32,0.22-0.67c-0.69-1.26-1.41-2.52-2.02-3.82
			C141.48,56.3,140.97,55.69,139.85,56.02z M126.99,56.21c0.01-0.23-0.15-0.19-0.27-0.19c-0.76,0-1.52,0-2.28,0
			c-0.24,0-0.35,0.13-0.45,0.32c-0.85,1.61-1.7,3.21-2.57,4.81c-0.16,0.29-0.07,0.4,0.18,0.53c0.53,0.26,1.06,0.54,1.58,0.84
			c0.28,0.16,0.42,0.12,0.58-0.17c1.02-1.95,2.06-3.88,3.09-5.82C126.9,56.41,126.94,56.31,126.99,56.21z"/>
		<path class="st2" d="M133.25,37.34c-1,0.55-1.84,1.11-2.65,1.71c-0.15,0.11-0.2,0.23-0.02,0.35c1.1,0.71,2.12,1.52,3.23,2.45
			c0-0.46-0.01-0.8,0-1.14c0.01-0.45,0.27-0.75,0.64-0.72c0.41,0.04,0.61,0.29,0.61,0.7c0,0.86,0,1.72,0,2.58
			c0,0.47-0.24,0.71-0.7,0.71c-0.86,0-1.72,0-2.58,0c-0.41,0-0.67-0.2-0.71-0.61c-0.04-0.37,0.27-0.63,0.71-0.65
			c0.15-0.01,0.3,0,0.45,0s0.29,0,0.55,0c-0.71-0.67-1.41-1.19-2.11-1.7c-0.28-0.2-0.6-0.37-0.86-0.59c-0.4-0.34-0.68-0.24-1.05,0.1
			c-1.55,1.44-2.94,3.01-4.14,4.75c-0.04,0.05-0.07,0.11-0.11,0.16c-0.3,0.4-0.66,0.5-0.98,0.25c-0.35-0.28-0.34-0.63-0.1-0.97
			c0.53-0.74,1.06-1.49,1.63-2.19c0.81-0.99,1.65-1.95,2.63-2.77c0.34-0.29,0.28-0.42-0.09-0.6c-1.56-0.78-3.17-1.42-4.85-1.9
			c-0.19-0.05-0.39-0.1-0.57-0.16c-0.43-0.15-0.64-0.48-0.52-0.82c0.15-0.41,0.46-0.54,0.87-0.43c1.27,0.34,2.51,0.75,3.71,1.26
			c0.86,0.36,1.69,0.77,2.51,1.2c0.18,0.09,0.35,0.21,0.55,0.06c1.06-0.81,2.19-1.54,3.44-2.27c-0.4-0.15-0.7-0.26-1-0.38
			c-0.38-0.15-0.61-0.41-0.49-0.84c0.11-0.38,0.47-0.53,0.93-0.38c0.79,0.26,1.57,0.53,2.34,0.82c0.48,0.18,0.63,0.49,0.47,0.99
			c-0.26,0.8-0.55,1.6-0.84,2.39c-0.14,0.37-0.41,0.57-0.81,0.46c-0.36-0.09-0.51-0.45-0.4-0.89c0.04-0.14,0.1-0.28,0.14-0.42
			C133.14,37.72,133.17,37.59,133.25,37.34z"/>
		<path class="st2" d="M137.7,42.93c1.32,0,2.41,1.07,2.41,2.39c0.01,1.28-1.14,2.42-2.42,2.4c-1.28-0.02-2.37-1.1-2.38-2.39
			C135.29,44.02,136.38,42.93,137.7,42.93z M136.65,45.29c-0.01,0.63,0.46,1.12,1.07,1.12c0.59,0,1.06-0.48,1.07-1.08
			c0.01-0.6-0.44-1.06-1.06-1.07C137.1,44.25,136.66,44.67,136.65,45.29z"/>
		<path class="st2" d="M138.3,38.02c-1.32-0.01-2.4-1.11-2.38-2.42c0.02-1.28,1.13-2.37,2.41-2.36c1.31,0.01,2.41,1.11,2.4,2.41
			C140.71,36.98,139.63,38.03,138.3,38.02z M139.39,35.64c0-0.6-0.46-1.09-1.05-1.09c-0.61,0-1.1,0.49-1.09,1.1
			c0,0.6,0.47,1.05,1.08,1.04C138.96,36.69,139.38,36.26,139.39,35.64z"/>
		<path class="st2" d="M117.58,38.71c-0.26,0-0.44-0.11-0.57-0.33c-0.14-0.25-0.1-0.49,0.07-0.69c0.25-0.31,0.51-0.61,0.79-0.89
			c0.23-0.23,0.22-0.4,0-0.62c-0.24-0.25-0.46-0.52-0.69-0.78c-0.27-0.32-0.33-0.65-0.01-0.97c0.26-0.26,0.65-0.22,0.96,0.1
			c0.17,0.18,0.35,0.36,0.49,0.56c0.26,0.37,0.49,0.46,0.77,0.02c0.13-0.19,0.3-0.35,0.47-0.51c0.35-0.35,0.71-0.41,1-0.15
			c0.3,0.26,0.28,0.66-0.07,1.05c-0.21,0.24-0.41,0.48-0.63,0.7c-0.25,0.24-0.21,0.44,0.01,0.68c0.24,0.25,0.46,0.52,0.68,0.79
			c0.25,0.32,0.26,0.64-0.03,0.93c-0.27,0.27-0.64,0.22-0.96-0.11c-0.29-0.29-0.49-0.82-0.86-0.85c-0.39-0.03-0.57,0.53-0.87,0.81
			C117.98,38.59,117.81,38.72,117.58,38.71z"/>
		<path class="st2" d="M122.34,47.04c0,0.29-0.1,0.49-0.32,0.61c-0.25,0.14-0.5,0.11-0.69-0.07c-0.25-0.23-0.49-0.49-0.7-0.77
			c-0.22-0.28-0.39-0.36-0.64-0.02c-0.18,0.25-0.42,0.47-0.64,0.69c-0.27,0.27-0.59,0.31-0.89,0.05c-0.32-0.28-0.31-0.61-0.05-0.92
			c0.25-0.31,0.52-0.6,0.79-0.89c0.19-0.2,0.17-0.35-0.01-0.55c-0.26-0.27-0.51-0.57-0.75-0.86c-0.26-0.31-0.27-0.65,0.04-0.93
			c0.31-0.27,0.64-0.22,0.93,0.07c0.2,0.2,0.39,0.41,0.55,0.64c0.26,0.35,0.48,0.32,0.73-0.01c0.16-0.21,0.34-0.41,0.53-0.59
			c0.28-0.27,0.59-0.38,0.93-0.1c0.3,0.25,0.32,0.61,0.03,0.96c-0.23,0.28-0.47,0.56-0.73,0.81c-0.23,0.23-0.22,0.41,0,0.63
			c0.23,0.23,0.44,0.5,0.65,0.75C122.24,46.71,122.35,46.87,122.34,47.04z"/>
		<path class="st2" d="M145.84,40.59c0.01-2.75,2.18-4.93,4.91-4.93c2.83,0,5.01,2.19,5,5c-0.01,2.74-2.22,4.92-4.99,4.91
			C148,45.57,145.83,43.37,145.84,40.59z M154.42,40.61c0-2.05-1.63-3.69-3.64-3.68c-1.99,0.01-3.67,1.7-3.67,3.69
			c0,1.96,1.67,3.65,3.63,3.68C152.78,44.33,154.42,42.69,154.42,40.61z"/>
		<path class="st2" d="M150.17,42.59c-0.33,0.02-0.64-0.09-0.89-0.33c-0.35-0.33-0.69-0.67-1.02-1.02
			c-0.28-0.29-0.32-0.63-0.02-0.92c0.3-0.29,0.63-0.25,0.93,0.02c0.25,0.22,0.49,0.45,0.7,0.7c0.21,0.24,0.37,0.25,0.6,0.01
			c0.59-0.62,1.21-1.23,1.82-1.83c0.39-0.39,0.74-0.42,1.03-0.11c0.29,0.3,0.25,0.65-0.13,1.04c-0.66,0.67-1.33,1.34-2,2
			C150.92,42.43,150.59,42.61,150.17,42.59z"/>
	</g>
</g>
<g id="plan" class="st0">
	<g class="st1">
		<path class="st2" d="M126.83,231.59c-0.4,0.49-0.93,0.61-1.53,0.6c-2.3-0.01-4.61,0.01-6.91-0.02c-0.6-0.01-0.79,0.18-0.77,0.78
			c0.04,1.1,0.02,2.21,0.01,3.31c0,0.35,0.11,0.57,0.43,0.75c1.35,0.78,1.97,2.11,1.68,3.53c-0.28,1.4-1.42,2.44-2.93,2.58
			c-1.31,0.12-2.35-0.44-3.03-1.56c-0.24-0.4-0.51-0.51-0.95-0.51c-7.35,0.01-14.7,0.01-22.04,0c-0.45,0-0.71,0.12-0.92,0.54
			c-0.83,1.6-2.19,2.47-3.98,2.54c-1.87,0.07-3.34-0.75-4.24-2.39c-0.31-0.57-0.66-0.72-1.25-0.7c-2.18,0.09-4.27-0.24-6.23-1.27
			c-4.09-2.14-6.46-6.82-5.72-11.32c0.79-4.76,4.41-8.38,9.09-9.11c0.69-0.11,1.37-0.1,2.06-0.11c2.6-0.01,5.2-0.01,7.8,0.01
			c0.45,0,0.65-0.13,0.77-0.59c0.54-2.16,2.39-3.59,4.56-3.59c2.14,0,3.97,1.41,4.52,3.56c0.12,0.47,0.3,0.63,0.79,0.62
			c4-0.02,8,0.01,12-0.02c4.48-0.03,7.94-2.77,8.89-7.01c1.17-5.24-2.86-10.42-8.23-10.53c-1.91-0.04-3.82,0-5.73-0.02
			c-0.41,0-0.63,0.16-0.82,0.52c-0.89,1.65-2.3,2.56-4.16,2.55c-1.88,0-3.31-0.91-4.19-2.6c-0.18-0.35-0.4-0.47-0.78-0.47
			c-6.36,0.01-12.73,0.01-19.09,0c-0.42,0-0.62,0.18-0.81,0.53c-0.89,1.7-2.72,2.72-4.51,2.55c-1.96-0.18-3.57-1.5-4.14-3.37
			c-0.74-2.44,0.67-5.04,3.15-5.8c2.45-0.76,5.09,0.61,5.8,3.11c0.2,0.72,0.51,0.84,1.17,0.84c5.99-0.02,11.98-0.02,17.97,0
			c0.53,0,0.79-0.11,0.93-0.68c0.54-2.08,2.41-3.48,4.53-3.47c2.11,0.01,3.97,1.43,4.5,3.51c0.13,0.52,0.37,0.64,0.86,0.63
			c1.6-0.02,3.19-0.01,4.79-0.01c5.68,0.01,10.25,3.85,11,9.47c0.86,6.44-3.77,11.42-9.12,12.23c-0.61,0.09-1.21,0.12-1.82,0.12
			c-4.14,0-8.27,0.01-12.41-0.01c-0.46,0-0.69,0.14-0.9,0.55c-0.88,1.65-2.27,2.54-4.15,2.54c-1.92,0.01-3.31-0.91-4.2-2.57
			c-0.21-0.39-0.44-0.52-0.86-0.52c-2.82,0.02-5.63-0.01-8.45,0.01c-4.5,0.03-8.26,3.42-8.72,7.83c-0.46,4.49,2.47,8.54,6.89,9.54
			c1.09,0.25,2.19,0.17,3.3,0.17c0.43,0,0.41-0.36,0.49-0.62c0.56-1.84,1.76-3,3.64-3.4c2.37-0.5,4.78,0.97,5.38,3.32
			c0.15,0.59,0.41,0.72,0.97,0.72c7.17-0.02,14.34-0.02,21.51,0c0.52,0,0.84-0.12,1.05-0.62c0.22-0.51,0.62-0.94,1.13-1.17
			c0.53-0.24,0.61-0.61,0.61-1.13c-0.02-4-0.01-8-0.01-12c0-0.22,0-0.44,0.04-0.65c0.11-0.49,0.42-0.81,0.93-0.87
			s0.92,0.18,1.07,0.65c0.15,0.46,0.41,0.53,0.83,0.53c2.32-0.02,4.65,0.01,6.97-0.02c0.61-0.01,1.13,0.13,1.52,0.62
			c0,0.32,0,0.63,0,0.95c-0.55,0.78-1.1,1.57-1.66,2.35c-0.19,0.26-0.18,0.48,0.01,0.74c0.56,0.78,1.11,1.57,1.66,2.35
			C126.83,230.96,126.83,231.27,126.83,231.59z M120.66,230.02c0.87,0,1.73-0.01,2.6,0c0.37,0,0.48-0.09,0.23-0.43
			c-1.28-1.76-1.21-1.64-0.03-3.31c0.24-0.33,0.2-0.47-0.24-0.47c-1.69,0.01-3.38,0.01-5.08,0c-0.38,0-0.52,0.15-0.52,0.53
			c0.01,1.04,0.02,2.09,0,3.13c-0.01,0.41,0.15,0.56,0.55,0.55C119.01,230,119.83,230.02,120.66,230.02z M90.18,219.75
			c0,1.44,1.1,2.57,2.51,2.58c1.4,0.01,2.55-1.13,2.55-2.55s-1.11-2.56-2.53-2.57C91.31,217.19,90.18,218.32,90.18,219.75z
			 M85.72,241.98c1.44-0.01,2.55-1.12,2.54-2.55c-0.01-1.42-1.14-2.52-2.58-2.51c-1.43,0.01-2.56,1.14-2.55,2.55
			C83.15,240.89,84.28,241.99,85.72,241.98z M70.95,202.61c1.43,0,2.54-1.12,2.54-2.55c-0.01-1.42-1.12-2.52-2.57-2.51
			c-1.43,0-2.57,1.13-2.56,2.54C68.37,201.49,69.52,202.61,70.95,202.61z M99.98,197.55c-1.43-0.01-2.54,1.05-2.56,2.45
			c-0.02,1.46,1.06,2.59,2.48,2.6c1.46,0.02,2.57-1.05,2.58-2.49C102.5,198.64,101.44,197.56,99.98,197.55z M116.54,238.8
			c-0.63,0-1.15,0.51-1.13,1.11c0.02,0.57,0.54,1.08,1.11,1.09c0.6,0.01,1.15-0.51,1.16-1.1
			C117.69,239.29,117.18,238.8,116.54,238.8z"/>
	</g>
</g>
<g id="health" class="st0">
	<g class="st1">
		<path class="st2" d="M79.79,55.41c-0.68,0-1.36,0.01-2.03,0c-0.62-0.01-0.87-0.26-0.87-0.89c-0.01-0.99-0.01-1.99,0-2.98
			c0.01-0.35-0.09-0.48-0.46-0.47c-0.99,0.02-1.99,0.01-2.98,0.01c-0.65,0-0.9-0.26-0.9-0.91c0-1.36-0.01-2.71,0-4.07
			c0-0.62,0.26-0.87,0.89-0.87c0.98-0.01,1.96-0.02,2.94,0.01c0.39,0.01,0.53-0.1,0.52-0.51c-0.03-0.98-0.01-1.96-0.01-2.94
			c0-0.65,0.25-0.9,0.91-0.9c1.36,0,2.71-0.01,4.07,0c0.62,0,0.87,0.26,0.87,0.89c0.01,0.98,0.02,1.96-0.01,2.94
			c-0.01,0.39,0.1,0.53,0.51,0.52c0.98-0.03,1.96-0.01,2.94-0.01c0.65,0,0.9,0.25,0.9,0.91c0,1.36,0.01,2.71,0,4.07
			c0,0.62-0.26,0.87-0.89,0.87c-0.98,0.01-1.96,0.02-2.94-0.01c-0.39-0.01-0.53,0.1-0.52,0.51c0.03,0.98,0.01,1.96,0.01,2.94
			c0,0.65-0.26,0.9-0.91,0.9C81.14,55.41,80.46,55.41,79.79,55.41z M78.39,51.93c0,0.53,0.01,1.05,0,1.58
			c-0.01,0.29,0.1,0.4,0.39,0.4c0.68-0.01,1.36-0.02,2.03,0c0.32,0.01,0.42-0.12,0.41-0.43c-0.01-0.98-0.01-1.96,0-2.94
			c0-0.75,0.23-0.98,0.96-0.98c0.99,0,1.99-0.01,2.98,0c0.29,0,0.4-0.1,0.4-0.39c-0.01-0.68-0.02-1.36,0-2.03
			c0.01-0.32-0.12-0.42-0.43-0.41c-0.98,0.01-1.96,0.01-2.94,0c-0.75,0-0.98-0.23-0.98-0.96c0-0.99-0.01-1.99,0-2.98
			c0-0.29-0.1-0.4-0.39-0.4c-0.68,0.01-1.36,0.02-2.03,0c-0.32-0.01-0.42,0.12-0.41,0.43c0.01,0.98,0.01,1.96,0,2.94
			c0,0.75-0.23,0.98-0.96,0.98c-0.99,0-1.99,0.01-2.98,0c-0.29,0-0.4,0.1-0.4,0.39c0.01,0.68,0.02,1.36,0,2.03
			c-0.01,0.32,0.12,0.42,0.43,0.41c1.01-0.01,2.02-0.01,3.03,0c0.63,0,0.88,0.26,0.89,0.87C78.39,50.93,78.39,51.43,78.39,51.93z"/>
		<path class="st2" d="M78.67,68.43c-1.12,0-2.23-0.01-3.35,0c-1.49,0.02-2.89-0.34-4.23-0.98c-1.62-0.78-3.23-1.55-4.84-2.35
			c-1.39-0.69-2.87-0.99-4.41-1.01c-0.96-0.02-1.93,0-2.89-0.01c-0.56,0-0.88-0.28-0.88-0.75s0.31-0.77,0.86-0.76
			c1.52,0.03,3.04-0.1,4.56,0.08c1.23,0.14,2.38,0.54,3.48,1.07c1.7,0.82,3.39,1.64,5.09,2.46c1.08,0.52,2.24,0.71,3.42,0.72
			c2.28,0.02,4.55,0,6.83,0.01c0.24,0,0.47-0.04,0.7-0.13c1.86-0.77,3.73-1.55,5.6-2.31c0.33-0.13,0.42-0.33,0.39-0.66
			c-0.07-0.69-0.57-1.14-1.36-1.2c-0.91-0.06-1.76,0.17-2.62,0.42c-0.45,0.13-0.89,0.29-1.34,0.42c-0.44,0.12-0.83-0.1-0.97-0.51
			c-0.12-0.36,0.05-0.77,0.45-0.92c1.4-0.52,2.82-0.99,4.34-0.99c1.63,0.01,2.77,0.99,3.03,2.55c0.18,1.07-0.25,1.86-1.25,2.27
			c-1.93,0.8-3.87,1.6-5.81,2.4c-0.26,0.11-0.51,0.16-0.79,0.16C81.35,68.43,80.01,68.43,78.67,68.43z"/>
		<path class="st2" d="M80.91,27.85c1.13,0,2.26,0.01,3.39,0c1.46-0.02,2.84,0.32,4.15,0.95c1.63,0.78,3.26,1.56,4.88,2.37
			c1.39,0.69,2.87,0.99,4.41,1.02c0.96,0.02,1.93,0,2.89,0.01c0.59,0,0.91,0.28,0.9,0.77c-0.01,0.47-0.32,0.75-0.89,0.74
			c-1.51-0.03-3.01,0.09-4.52-0.08c-1.23-0.14-2.38-0.53-3.48-1.06c-1.68-0.81-3.36-1.63-5.05-2.44c-1.09-0.53-2.26-0.74-3.46-0.74
			c-2.29-0.02-4.58,0-6.87-0.01c-0.25,0-0.47,0.04-0.7,0.14c-1.85,0.77-3.7,1.54-5.56,2.29c-0.34,0.14-0.45,0.33-0.41,0.69
			c0.08,0.67,0.57,1.12,1.33,1.18c0.92,0.07,1.79-0.17,2.66-0.42c0.43-0.12,0.86-0.28,1.29-0.41c0.45-0.13,0.83,0.07,0.98,0.48
			c0.13,0.36-0.02,0.78-0.42,0.93C75,34.79,73.55,35.28,72,35.25c-1.59-0.03-2.69-1-2.96-2.52c-0.19-1.1,0.25-1.87,1.27-2.3
			c1.89-0.78,3.79-1.56,5.68-2.35c0.33-0.14,0.65-0.2,1.01-0.2C78.32,27.86,79.62,27.85,80.91,27.85z"/>
		<path class="st2" d="M97.96,42.38c-1.66-0.12-3.31,0.24-4.99,0.54c-2.91,0.52-5.76-0.59-7.28-3.16c-0.12-0.2-0.27-0.3-0.48-0.39
			c-1.23-0.51-2.45-1.01-3.67-1.53c-1.05-0.45-2.02-1.03-2.69-1.99c-0.92-1.31-0.89-2.71-0.28-4.12c0.2-0.45,0.61-0.55,1.16-0.33
			c1.62,0.66,3.23,1.34,4.84,2.01c1,0.42,2,0.83,3,1.25c0.11,0.05,0.22,0.09,0.33,0.16c0.36,0.21,0.5,0.57,0.36,0.92
			c-0.15,0.4-0.46,0.55-0.87,0.48c-0.19-0.03-0.37-0.11-0.55-0.19c-2.23-0.92-4.46-1.84-6.68-2.78c-0.4-0.17-0.45-0.04-0.45,0.32
			c-0.02,1.08,0.57,1.78,1.41,2.31c0.95,0.6,2.03,0.92,3.04,1.37c0.69,0.3,1.39,0.58,2.09,0.86c0.3,0.12,0.5,0.31,0.64,0.6
			c0.87,1.72,2.32,2.55,4.19,2.71c1.14,0.1,2.26-0.02,3.33-0.45c0.2-0.08,0.41-0.1,0.62-0.1c1.87,0,3.74,0,5.61,0
			c0.06,0,0.12,0,0.18,0c0.42,0.04,0.7,0.33,0.7,0.74c0.01,0.42-0.28,0.75-0.72,0.76C99.88,42.4,98.94,42.38,97.96,42.38z"/>
		<path class="st2" d="M61.59,53.9c0.14,0,0.27-0.01,0.41,0c1.6,0.16,3.12-0.3,4.67-0.56c2.82-0.47,5.71,0.57,7.24,3.17
			c0.12,0.21,0.3,0.32,0.51,0.41c1.23,0.51,2.45,1.01,3.67,1.53c1.04,0.44,1.99,1.02,2.66,1.96c0.93,1.31,0.9,2.71,0.29,4.12
			c-0.19,0.46-0.61,0.56-1.15,0.34c-1.46-0.6-2.92-1.21-4.38-1.82c-1.18-0.49-2.36-0.98-3.55-1.47c-0.24-0.1-0.47-0.21-0.58-0.47
			c-0.14-0.29-0.1-0.56,0.1-0.8c0.26-0.3,0.6-0.34,0.95-0.2c0.84,0.34,1.67,0.68,2.51,1.03c1.49,0.62,2.98,1.24,4.47,1.86
			c0.47,0.2,0.49,0.18,0.49-0.34c0.02-1.08-0.6-1.77-1.44-2.29c-0.94-0.59-2-0.91-3.01-1.35c-0.69-0.3-1.39-0.58-2.09-0.86
			c-0.3-0.12-0.5-0.31-0.64-0.59c-0.87-1.72-2.32-2.54-4.19-2.72c-1.15-0.11-2.25,0.05-3.33,0.45c-0.17,0.06-0.35,0.1-0.53,0.1
			c-1.93,0.01-3.86,0-5.79,0c-0.42,0-0.7-0.19-0.79-0.6c-0.08-0.38,0.08-0.68,0.44-0.85c0.16-0.08,0.32-0.06,0.49-0.06
			C59.87,53.9,60.73,53.9,61.59,53.9z"/>
		<path class="st2" d="M64.57,48.5c0-3.55,0.91-6.45,2.73-9.08c0.1-0.15,0.21-0.3,0.33-0.43c0.3-0.32,0.69-0.36,1.02-0.13
			c0.34,0.24,0.43,0.66,0.2,1.04c-0.24,0.4-0.53,0.77-0.77,1.17c-1.14,1.9-1.78,3.96-1.93,6.19c-0.08,1.23,0.04,2.43,0.23,3.64
			c0.09,0.55-0.15,0.94-0.62,1.02c-0.44,0.07-0.79-0.22-0.9-0.75C64.67,50.17,64.54,49.17,64.57,48.5z"/>
		<path class="st2" d="M95.04,47.77c0,3.55-0.91,6.45-2.71,9.07c-0.11,0.16-0.22,0.32-0.35,0.47c-0.3,0.33-0.74,0.38-1.05,0.13
			c-0.32-0.25-0.39-0.68-0.16-1.05c0.29-0.47,0.63-0.92,0.91-1.4c1.07-1.84,1.65-3.83,1.8-5.95c0.08-1.21-0.05-2.4-0.22-3.59
			c-0.08-0.53,0.15-0.9,0.6-0.99c0.42-0.09,0.81,0.22,0.91,0.74C94.94,46.15,95.07,47.13,95.04,47.77z"/>
		<path class="st2" d="M71.29,37.22c0.01,0.42-0.43,0.89-0.85,0.9c-0.42,0.01-0.78-0.35-0.78-0.77c0-0.43,0.44-0.87,0.87-0.87
			C70.91,36.47,71.28,36.83,71.29,37.22z"/>
		<path class="st2" d="M89.24,59.82c-0.42,0-0.78-0.36-0.77-0.78s0.4-0.78,0.84-0.78c0.42,0,0.75,0.33,0.75,0.75
			C90.05,59.41,89.65,59.82,89.24,59.82z"/>
	</g>
</g>
<g id="school" class="st0">
	<g class="st1">
		<path class="st2" d="M99.03,122.66c-11.9,0-23.81,0-35.71,0c-0.13-0.04-0.26-0.07-0.39-0.11c-2.18-0.58-3.62-2.45-3.61-4.71
			c0-1.2,0.44-2.24,1.23-3.14c0.14-0.16,0.3-0.3-0.04-0.44c-0.82-0.34-1.22-0.97-1.18-1.85c0.04-0.86,0.51-1.43,1.34-1.69
			c0.23-0.07,0.33-0.21,0.36-0.43c0.02-0.17,0.05-0.35,0.06-0.52c0.02-0.37,0-0.74-0.12-1.08c-0.1-0.28-0.43-0.24-0.65-0.36
			c-0.73-0.39-1.12-1.24-0.94-2.06c0.2-0.9,0.91-1.46,1.88-1.48c0.62-0.01,1.23,0,1.86,0c-0.02-0.22-0.16-0.31-0.25-0.42
			c-2.05-2.52-1.14-6.21,1.85-7.49c0.9-0.39,1.84-0.41,2.79-0.37c0.39,0.02,0.58-0.11,0.69-0.5c0.46-1.61,0.94-3.22,1.43-4.82
			c0.11-0.36,0.03-0.5-0.33-0.59c-2.55-0.66-5.1-1.33-7.65-2c-0.83-0.22-1.25-0.73-1.26-1.52c0-0.79,0.42-1.3,1.25-1.52
			c2.2-0.58,4.39-1.15,6.59-1.73c0.66-0.17,0.97-0.05,1.08,0.4c0.11,0.44-0.12,0.7-0.77,0.87c-1.9,0.5-3.79,0.99-5.69,1.49
			c-0.27,0.07-0.55,0.15-0.82,0.22c-0.14,0.04-0.32,0.07-0.33,0.25c-0.01,0.21,0.19,0.23,0.34,0.28c0.03,0.01,0.05,0.01,0.08,0.02
			c5.27,1.38,10.53,2.77,15.8,4.15c0.79,0.21,1.59,0.28,2.41,0.24c1.15-0.06,2.22-0.45,3.33-0.7c0.35-0.08,0.3-0.21,0.07-0.41
			c-0.83-0.74-1.65-1.48-2.46-2.23c-0.2-0.19-0.4-0.22-0.66-0.15c-0.76,0.22-1.5,0.12-2.19-0.26C78.15,87.85,78,87.64,78,87.31
			c0.01-0.6-0.01-1.19,0.01-1.79c0.03-0.95,0.74-1.65,1.71-1.74c0.87-0.07,1.69,0.52,1.91,1.38c0.12,0.45,0.09,0.91,0.07,1.37
			c-0.01,0.34,0.09,0.58,0.35,0.81c1.03,0.92,2.06,1.84,3.06,2.78c0.34,0.32,0.65,0.37,1.09,0.25c2.88-0.78,5.77-1.53,8.66-2.29
			c0.97-0.25,1.93-0.51,2.9-0.76c0.14-0.04,0.32-0.07,0.33-0.25c0.01-0.19-0.17-0.22-0.31-0.27c-0.05-0.02-0.1-0.03-0.16-0.04
			c-5.07-1.33-10.15-2.65-15.21-4.01c-1.72-0.46-3.4-0.47-5.11,0.03c-1.72,0.5-3.47,0.92-5.21,1.37c-0.6,0.16-1.04-0.24-0.89-0.8
			c0.09-0.33,0.36-0.41,0.64-0.48c1.92-0.51,3.84-1.02,5.76-1.52c1.54-0.4,3.08-0.4,4.61,0.01c3.29,0.86,6.59,1.73,9.88,2.59
			c2.01,0.53,4.03,1.06,6.04,1.59c0.74,0.19,1.18,0.65,1.25,1.27c0.11,0.9-0.33,1.53-1.23,1.77c-2.55,0.67-5.1,1.35-7.65,2.01
			c-0.35,0.09-0.47,0.21-0.35,0.58c0.5,1.61,0.98,3.24,1.44,4.86c0.1,0.34,0.26,0.47,0.63,0.47c1.34-0.02,2.68-0.02,4.02,0
			c0.85,0.01,1.52,0.57,1.66,1.39c0.23,1.33-0.55,2.24-1.5,2.34c-0.29,0.03-0.4,0.19-0.44,0.48c-0.05,0.39-0.04,0.78,0,1.17
			c0.03,0.31,0.15,0.43,0.46,0.49c1.18,0.21,1.87,1.41,1.45,2.52c-0.11,0.29-0.07,0.41,0.2,0.57c2.63,1.57,3.17,5.01,1.16,7.31
			c-0.23,0.26-0.28,0.35,0.1,0.5c0.73,0.29,1.08,0.88,1.11,1.65c0.02,0.77-0.31,1.36-1,1.72c-0.68,0.35-0.81,0.58-0.75,1.38
			c0.01,0.16,0.05,0.32,0.05,0.48c0,0.3,0.14,0.46,0.43,0.55c0.61,0.19,1.01,0.6,1.2,1.22C100.66,121.31,100.16,122.21,99.03,122.66
			z M78.64,106.12c-5.63,0-11.25,0-16.88,0c-0.18,0-0.35,0-0.53,0.01c-0.35,0.01-0.57,0.17-0.58,0.54c-0.01,0.34,0.2,0.54,0.6,0.56
			c0.19,0.01,0.38,0.01,0.57,0.01c11.08,0,22.15,0,33.23,0c0.2,0,0.41-0.01,0.61,0.01c1.31,0.09,2.28,1.04,2.34,2.26
			c0.05,1.23-0.84,2.27-2.13,2.45c-0.23,0.03-0.46,0.02-0.69,0.02c-8.13,0-16.26,0-24.38,0c-0.53,0-0.57,0.04-0.58,0.53
			c0,0.53,0.04,0.57,0.58,0.57c0.14,0,0.27,0,0.41,0c5.82,0,11.63,0,17.45,0c0.22,0,0.43,0,0.65,0.04c0.36,0.07,0.53,0.31,0.51,0.67
			c-0.02,0.37-0.23,0.57-0.58,0.61c-0.17,0.02-0.35,0.01-0.53,0.01c-5.9,0-11.79,0-17.69,0c-0.15,0-0.3,0-0.45,0
			c-0.11,0-0.24,0.01-0.28,0.13c-0.1,0.29-0.11,0.59-0.01,0.87c0.08,0.22,0.32,0.15,0.51,0.15c9.13,0,18.26,0,27.39,0
			c0.19,0,0.38,0,0.56-0.06c0.28-0.1,0.4-0.31,0.37-0.6c-0.03-0.28-0.2-0.44-0.47-0.48c-0.15-0.02-0.3-0.01-0.45-0.01
			c-1.81,0-3.62,0-5.44,0c-0.15,0-0.3,0.01-0.44-0.02c-0.32-0.06-0.5-0.27-0.51-0.59s0.12-0.56,0.43-0.65
			c0.18-0.05,0.37-0.06,0.56-0.07c1-0.01,2,0.01,3-0.01c2.19-0.06,3.78-2.18,3.24-4.3c-0.4-1.59-1.77-2.64-3.46-2.64
			C89.92,106.12,84.28,106.12,78.64,106.12z M80.57,118.93c5.34,0,10.68,0,16.02,0c0.14,0,0.27-0.01,0.41,0
			c0.3,0.02,0.44-0.07,0.4-0.42c-0.04-0.39-0.06-0.79,0-1.17c0.07-0.43-0.09-0.5-0.47-0.5c-8.92,0.01-17.85,0.01-26.77,0
			c-0.29,0-0.55,0.06-0.81,0.2c-0.77,0.42-1.55,0.83-2.34,1.22c-0.52,0.25-0.95-0.01-1.02-0.58c-0.02-0.17-0.01-0.35-0.02-0.53
			c0-0.15-0.05-0.3-0.21-0.3c-0.67,0-1.36-0.12-2.02,0.08c-0.47,0.14-0.71,0.61-0.64,1.13c0.06,0.45,0.43,0.79,0.91,0.83
			c0.22,0.02,0.43,0.02,0.65,0.02C69.96,118.93,75.26,118.93,80.57,118.93z M81.14,104.78c4.8,0,9.6,0,14.4,0c0.16,0,0.32,0,0.49,0
			c0.42-0.01,0.61-0.18,0.62-0.54c0.01-0.37-0.19-0.55-0.63-0.57c-0.19-0.01-0.38,0-0.57,0c-9.41,0-18.82,0-28.24,0
			c-0.34,0-0.68-0.02-1.01-0.06c-1.29-0.15-2.23-1.47-1.97-2.74c0.24-1.18,1.17-1.93,2.41-1.94c4.44,0,8.87,0,13.31,0
			c0.89,0,1.79,0,2.68,0c0.14,0,0.35,0.05,0.4-0.11c0.11-0.29,0.22-0.61,0.1-0.9c-0.1-0.24-0.39-0.14-0.59-0.14
			c-5.04,0-10.09,0-15.13,0c-0.41,0-0.81,0.02-1.21,0.06c-2.08,0.2-3.53,2.22-3.05,4.26c0.37,1.58,1.74,2.68,3.39,2.68
			C71.4,104.79,76.27,104.78,81.14,104.78z M76.51,96.5c2.2,0,4.41,0,6.61,0.01c0.3,0,0.47-0.09,0.58-0.38
			c0.17-0.45,0.43-0.84,0.83-1.13c0.15-0.11,0.19-0.25,0.19-0.42c0-0.7-0.01-1.41,0-2.11c0-0.26-0.09-0.34-0.34-0.27
			c-0.62,0.17-1.25,0.33-1.88,0.5c-1.58,0.44-3.17,0.52-4.77,0.11c-2.07-0.53-4.13-1.08-6.19-1.62c-0.51-0.13-0.54-0.12-0.69,0.38
			c-0.44,1.46-0.87,2.93-1.3,4.39c-0.15,0.51-0.13,0.53,0.39,0.53C72.13,96.5,74.32,96.5,76.51,96.5z M80.41,102.35
			c4.52,0,9.03,0,13.55,0c0.12,0,0.24-0.01,0.37,0c0.25,0.02,0.33-0.08,0.31-0.34c-0.03-0.46-0.03-0.92,0-1.38
			c0.02-0.27-0.07-0.36-0.33-0.36c-2.04,0.01-4.08,0-6.13,0c-0.26,0-0.39,0.09-0.41,0.37c-0.03,0.4-0.24,0.68-0.66,0.68
			c-1.15,0.01-2.3,0.01-3.45,0c-0.34,0-0.6-0.2-0.61-0.53c-0.01-0.48-0.26-0.53-0.65-0.53c-5.18,0.01-10.36,0.01-15.54,0.01
			c-0.12,0-0.24,0-0.36,0.01c-0.5,0.03-0.88,0.38-0.95,0.84c-0.07,0.54,0.19,0.97,0.68,1.15c0.22,0.08,0.45,0.07,0.68,0.07
			C71.41,102.35,75.91,102.35,80.41,102.35z M81.24,120.26c-2.77,0-5.55,0-8.32,0c-2.91,0-5.82,0.01-8.72,0
			c-1.42,0-2.43-0.99-2.44-2.34c-0.01-1.34,1.01-2.33,2.42-2.34c0.47-0.01,0.95-0.01,1.42,0c0.25,0,0.38-0.1,0.37-0.36
			c-0.01-0.14-0.01-0.27,0-0.41c0.01-0.27-0.1-0.4-0.38-0.39c-0.55,0.01-1.11-0.02-1.66,0.01c-2.18,0.11-3.74,2.24-3.2,4.35
			c0.41,1.6,1.78,2.64,3.56,2.64c11.32,0.01,22.64,0,33.96,0c0.15,0,0.3-0.01,0.44-0.05c0.29-0.08,0.42-0.28,0.4-0.58
			c-0.02-0.31-0.21-0.46-0.49-0.51c-0.17-0.03-0.35-0.02-0.53-0.02C92.47,120.26,86.85,120.26,81.24,120.26z M83.16,110.63
			c4.02,0,8.03,0,12.05,0c0.18,0,0.35,0.01,0.53-0.01c0.54-0.05,0.91-0.46,0.91-1.01s-0.35-0.97-0.89-1.03
			c-0.19-0.02-0.38-0.01-0.57-0.01c-8.07,0-16.15,0-24.22,0c-0.12,0-0.24,0.01-0.37,0c-0.28-0.01-0.39,0.12-0.39,0.39
			c0,0.35,0,0.7,0,1.05c0,0.6,0.02,0.62,0.61,0.62C74.94,110.63,79.05,110.63,83.16,110.63z M88.74,96.5c0.39,0,0.78-0.01,1.17,0
			c0.36,0.02,0.42-0.13,0.32-0.44c-0.46-1.54-0.92-3.07-1.37-4.61c-0.08-0.28-0.22-0.37-0.51-0.29c-0.64,0.18-1.27,0.35-1.92,0.5
			c-0.27,0.06-0.38,0.2-0.38,0.48c0.01,0.81,0,1.62,0,2.43c0,0.17,0.03,0.32,0.18,0.43c0.42,0.3,0.67,0.73,0.86,1.2
			c0.09,0.22,0.23,0.31,0.46,0.31C87.96,96.49,88.35,96.5,88.74,96.5z M67.32,112.6c0,1.2,0.01,2.4,0,3.6c0,0.35,0.11,0.4,0.39,0.23
			c0.25-0.15,0.52-0.3,0.79-0.42c0.3-0.13,0.41-0.33,0.4-0.66c-0.01-1.9,0-3.81-0.01-5.71c-0.01-1.24,0.19-1.06-1.1-1.08
			c-0.35-0.01-0.48,0.12-0.47,0.47C67.32,110.22,67.32,111.41,67.32,112.6z M92.05,98.94c0.09,0,0.19,0,0.28,0c1.23,0,2.46,0,3.69,0
			c0.46,0,0.71-0.29,0.63-0.69c-0.08-0.39-0.4-0.46-0.72-0.46c-2.68-0.01-5.35-0.01-8.03,0c-0.11,0-0.26-0.02-0.28,0.1
			c-0.06,0.31,0,0.62,0.11,0.91c0.08,0.2,0.3,0.14,0.47,0.14C89.48,98.94,90.76,98.94,92.05,98.94z M64.13,108.57
			c-0.49,0-0.97,0-1.46,0c-0.19,0-0.35,0.02-0.32,0.29c0.05,0.5,0.05,1,0,1.5c-0.02,0.23,0.09,0.28,0.29,0.28c1,0,2,0,3,0
			c0.24,0,0.35-0.11,0.34-0.34c0-0.45-0.01-0.89,0-1.34c0.01-0.28-0.12-0.39-0.39-0.38C65.1,108.57,64.61,108.57,64.13,108.57z
			 M85.32,100c0.22,0,0.43-0.01,0.65,0c0.36,0.03,0.48-0.13,0.46-0.48c-0.07-0.92-0.19-1.83-0.49-2.7
			c-0.06-0.19-0.15-0.38-0.26-0.54c-0.18-0.27-0.38-0.27-0.58,0c-0.16,0.22-0.25,0.48-0.33,0.74c-0.21,0.66-0.34,1.34-0.38,2.03
			c-0.06,1.11-0.26,0.94,0.86,0.96C85.27,100,85.3,100,85.32,100z M63.36,113.07c0.73,0,1.46-0.01,2.19,0.01
			c0.43,0.01,0.44-0.24,0.43-0.55c0-0.3,0.01-0.57-0.42-0.56c-1.42,0.01-2.84,0-4.25,0.01c-0.45,0-0.65,0.18-0.65,0.55
			c0,0.36,0.2,0.55,0.64,0.55C61.98,113.08,62.67,113.07,63.36,113.07z M80.35,86.15C80.35,86.15,80.34,86.15,80.35,86.15
			c0-0.13,0-0.27,0-0.4c-0.02-0.42-0.19-0.62-0.52-0.63c-0.32-0.01-0.54,0.22-0.56,0.61c-0.02,0.28,0.01,0.56-0.01,0.85
			c-0.02,0.34,0.14,0.45,0.45,0.46c0.54,0.02,0.63-0.06,0.64-0.6C80.35,86.34,80.35,86.24,80.35,86.15z"/>
	</g>
</g>
<g id="corporate" class="st0">
	<g class="st1">
		<path class="st2" d="M39.86,57.01c0.57,0.37,1.04,0.73,1.43,1.18c0.89,1.02,1.3,2.22,1.31,3.56c0.01,1.27,0,2.53,0,3.8
			c0,0.03,0,0.06,0,0.08c-0.02,0.64-0.26,0.96-0.73,0.95c-0.47,0-0.7-0.32-0.7-0.96c0-1.29,0-2.59,0-3.88
			c0-2.17-1.73-3.97-3.91-4.07c-0.56-0.02-1.13-0.01-1.69-0.01c-0.11,0-0.29-0.03-0.31,0.06c-0.08,0.52-0.6,0.88-0.48,1.48
			c0.3,1.58,0.56,3.17,0.86,4.74c0.11,0.56,0.02,0.98-0.48,1.32c-0.45,0.31-0.85,0.69-1.28,1.04c-0.48,0.39-0.76,0.38-1.25-0.01
			c-0.45-0.36-0.88-0.75-1.34-1.09c-0.4-0.29-0.51-0.65-0.43-1.11c0.21-1.12,0.41-2.24,0.61-3.37c0.1-0.54,0.19-1.08,0.29-1.62
			c0.04-0.21,0.04-0.4-0.13-0.57c-0.09-0.09-0.18-0.23-0.19-0.36c-0.04-0.45-0.29-0.54-0.7-0.52c-0.77,0.05-1.54-0.05-2.3,0.16
			c-1.89,0.51-3.08,2.03-3.08,3.98c0,1.27,0,2.53,0,3.8c0,0.15,0.01,0.31-0.03,0.45c-0.08,0.33-0.3,0.52-0.64,0.54
			c-0.35,0.02-0.58-0.15-0.69-0.47c-0.03-0.09-0.06-0.19-0.06-0.28c0.01-1.55-0.08-3.11,0.04-4.66c0.14-1.7,1-2.99,2.39-3.95
			c0.08-0.05,0.15-0.11,0.25-0.17c-0.17-0.14-0.35-0.12-0.52-0.12c-1.57,0-3.14-0.01-4.7,0c-1.38,0.01-2.45,0.78-2.74,1.95
			c-0.06,0.22-0.06,0.44-0.06,0.66c0,1.31,0,2.61,0,3.92c0,0.19,0,0.39-0.08,0.57c-0.13,0.28-0.35,0.42-0.65,0.41
			c-0.29-0.01-0.5-0.14-0.62-0.41c-0.08-0.18-0.08-0.37-0.08-0.57c0-8.18,0-16.36,0-24.55c0-0.66,0.15-0.85,0.78-1.02
			c2.15-0.58,4.3-1.16,6.45-1.72c0.39-0.1,0.53-0.26,0.52-0.67c-0.03-1.57-0.01-3.14-0.01-4.7c0-0.89,0.17-1.07,1.05-1.07
			c0.33,0,0.66-0.01,0.99,0c0.27,0.01,0.36-0.1,0.36-0.37c-0.01-0.69-0.01-1.38,0-2.06c0-0.64,0.24-0.87,0.87-0.88
			c3.4,0,6.79,0,10.19,0c0.63,0,0.87,0.24,0.87,0.88c0,0.69,0.01,1.38,0,2.06c0,0.27,0.09,0.37,0.36,0.36c0.37-0.01,0.74,0,1.11,0
			c0.69,0,0.92,0.23,0.92,0.91c0,1.62,0.01,3.25-0.01,4.87c0,0.38,0.11,0.56,0.49,0.66c2.1,0.54,4.2,1.11,6.3,1.67
			c0.86,0.23,0.97,0.37,0.97,1.25c0,8.07,0,16.14,0,24.22c0,0.2,0,0.42-0.05,0.61c-0.08,0.33-0.31,0.51-0.65,0.52
			c-0.36,0.01-0.6-0.18-0.69-0.53c-0.04-0.16-0.04-0.33-0.04-0.49c0-1.2-0.06-2.4,0.01-3.59c0.1-1.68-1.06-2.82-2.66-2.87
			c-1.69-0.05-3.38-0.01-5.07-0.01C40.14,56.94,40.05,56.97,39.86,57.01z M29.85,56.19c-0.1-0.14-0.15-0.22-0.21-0.3
			c-1.32-1.73-1.89-3.69-1.66-5.84c0.41-3.71,4.66-5.83,7.91-3.98c2.08,1.19,3.09,3.46,2.66,5.95c-0.25,1.45-0.72,2.79-1.69,3.93
			c-0.06,0.07-0.2,0.22-0.01,0.24c0.34,0.03,0.71,0.21,1.01,0.05c0.66-0.35,1.33-0.63,2.13-0.72c-0.46-0.63-0.74-1.26-0.92-1.95
			c-0.41-1.62-0.26-3.11,0.98-4.36c0.16-0.16,0.15-0.34,0.15-0.54c0-1.17,0-2.34,0-3.51c0-4.51,0-9.02,0-13.53
			c0-0.31,0.01-0.55-0.44-0.55c-4.33,0.01-8.66,0.01-12.99,0c-0.35,0-0.45,0.13-0.45,0.46c0.01,5.72,0.01,11.44,0,17.16
			c0,0.25,0.09,0.44,0.27,0.62c0.46,0.46,0.76,1.01,0.92,1.63c0.39,1.52,0,2.91-0.74,4.23c-0.06,0.1-0.17,0.18-0.14,0.34
			c0.53,0.06,1.08,0.15,1.52,0.46C28.69,56.36,29.22,56.26,29.85,56.19z M33.26,46.84c-1.92,0.01-3.51,1.31-3.84,3.2
			c-0.26,1.51,0.12,2.92,0.82,4.25c1.38,2.6,4.69,2.58,6.08,0c0.49-0.9,0.73-1.86,0.87-2.86C37.53,48.96,35.72,46.83,33.26,46.84z
			 M47.92,56.44c0.01-0.17,0.03-0.25,0.03-0.33c0-5.51,0-11.02,0.01-16.53c0-0.33-0.14-0.45-0.43-0.53
			c-1.81-0.47-3.61-0.96-5.41-1.44c-0.45-0.12-0.47-0.1-0.47,0.36c0,3.3,0,6.6-0.01,9.89c0,0.33,0.09,0.39,0.4,0.32
			c2.04-0.4,4.04,0.9,4.52,2.91c0.2,0.84,0.11,1.66-0.09,2.49c-0.17,0.7-0.48,1.33-0.9,1.95C46.44,55.63,47.19,55.93,47.92,56.44z
			 M21,55.53c-0.63-0.88-0.92-1.81-1.07-2.8c-0.42-2.77,1.87-5.04,4.63-4.54c0.32,0.06,0.37-0.05,0.37-0.33
			c-0.01-3.3,0-6.6-0.01-9.89c0-0.47-0.02-0.48-0.47-0.36c-1.78,0.47-3.55,0.96-5.33,1.42c-0.4,0.1-0.52,0.28-0.51,0.68
			c0.01,5.41,0.01,10.83,0.01,16.24c0,0.14-0.05,0.3,0.08,0.45C19.37,55.92,20.11,55.63,21,55.53z M26.25,52.39
			c0.01-1.69-0.88-2.7-2.29-2.87c-1.13-0.14-2.37,0.74-2.57,1.92c-0.22,1.23,0.05,2.39,0.87,3.36c0.92,1.08,2.37,0.98,3.21-0.18
			C26.01,53.87,26.23,53.02,26.25,52.39z M45.23,52.45c0.02-1.75-0.86-2.75-2.28-2.93c-1.12-0.14-2.34,0.71-2.58,1.91
			c-0.23,1.15,0.04,2.24,0.73,3.2c0.86,1.19,2.39,1.22,3.29,0.06C44.98,53.93,45.21,53.06,45.23,52.45z M33.28,29.72
			c1.37,0,2.75-0.01,4.12,0c0.3,0,0.43-0.09,0.42-0.4c-0.02-0.38-0.01-0.77,0-1.15c0.01-0.25-0.08-0.38-0.35-0.38
			c-2.79,0.01-5.58,0.01-8.37,0c-0.28,0-0.36,0.13-0.35,0.38c0.01,0.36,0.02,0.72,0,1.07c-0.03,0.39,0.14,0.49,0.5,0.48
			C30.59,29.71,31.93,29.72,33.28,29.72z M33.33,58.99c-0.03,0-0.07,0-0.1,0c-0.3,1.66-0.6,3.32-0.9,4.98
			c-0.02,0.13,0.02,0.23,0.11,0.33c0.7,0.73,0.81,0.73,1.58,0.08c0.17-0.14,0.23-0.27,0.18-0.49c-0.09-0.39-0.14-0.78-0.21-1.17
			C33.77,61.47,33.55,60.23,33.33,58.99z"/>
		<path class="st2" d="M29.34,64.15c0,0.54,0.01,1.07,0,1.61c-0.01,0.51-0.26,0.8-0.68,0.81c-0.44,0.01-0.73-0.28-0.74-0.81
			c-0.01-1.07-0.01-2.15,0-3.22c0.01-0.53,0.29-0.82,0.73-0.81c0.44,0.01,0.68,0.3,0.69,0.85C29.34,63.11,29.34,63.63,29.34,64.15z"
			/>
		<path class="st2" d="M37.22,64.15c0-0.53-0.01-1.07,0-1.6c0.01-0.51,0.26-0.8,0.68-0.8c0.43-0.01,0.73,0.27,0.73,0.76
			c0.02,1.11,0.02,2.22,0,3.33c-0.01,0.49-0.33,0.77-0.75,0.75c-0.4-0.02-0.66-0.31-0.67-0.79C37.21,65.24,37.22,64.7,37.22,64.15z"
			/>
		<path class="st2" d="M36.53,38.37c-0.65,0-1.29,0.01-1.94,0c-0.53-0.01-0.81-0.25-0.82-0.77c-0.02-1.22-0.02-2.45,0-3.67
			c0.01-0.54,0.3-0.8,0.84-0.8c1.27-0.01,2.53-0.01,3.8,0c0.57,0,0.82,0.27,0.82,0.85c0.01,1.18,0.01,2.37,0,3.55
			c0,0.61-0.24,0.85-0.85,0.85C37.77,38.37,37.15,38.37,36.53,38.37z M36.51,36.98c0.32,0,0.63-0.01,0.95,0
			c0.24,0.01,0.36-0.07,0.36-0.33c-0.01-0.59-0.01-1.18,0-1.77c0-0.24-0.11-0.35-0.35-0.35c-0.65,0-1.29,0-1.94,0
			c-0.22,0-0.33,0.08-0.33,0.31c0.01,0.6,0.01,1.21,0,1.81c0,0.23,0.09,0.32,0.32,0.32C35.85,36.98,36.18,36.98,36.51,36.98z"/>
		<path class="st2" d="M30.02,38.37c-0.65,0-1.29,0.01-1.94,0c-0.51-0.01-0.76-0.26-0.77-0.77c-0.01-1.24-0.01-2.47,0-3.71
			c0-0.5,0.27-0.76,0.77-0.77c1.29-0.01,2.58-0.01,3.88,0c0.5,0,0.79,0.26,0.8,0.76c0.02,1.25,0.03,2.5,0,3.75
			c-0.01,0.52-0.28,0.73-0.8,0.74C31.32,38.37,30.67,38.37,30.02,38.37z M30.03,36.98c0.33,0,0.66-0.01,0.99,0
			c0.25,0.01,0.35-0.09,0.34-0.34c-0.01-0.59-0.01-1.18,0-1.77c0-0.25-0.11-0.34-0.35-0.34c-0.63,0.01-1.26,0.01-1.89,0
			c-0.26,0-0.38,0.1-0.37,0.37c0.01,0.58,0.01,1.15,0,1.73c0,0.27,0.13,0.36,0.38,0.35C29.42,36.98,29.72,36.99,30.03,36.98z"/>
		<path class="st2" d="M36.49,44.47c-0.63,0-1.26,0-1.9,0c-0.52-0.01-0.81-0.25-0.82-0.77c-0.02-1.22-0.02-2.45,0-3.67
			c0.01-0.56,0.3-0.8,0.88-0.8c1.24,0,2.47,0,3.71,0c0.62,0,0.87,0.25,0.87,0.88c0,1.17,0.01,2.34,0,3.51
			c0,0.61-0.25,0.85-0.85,0.86C37.76,44.47,37.13,44.47,36.49,44.47z M36.4,43.09c0.38,0,0.7-0.01,1.01,0
			c0.28,0.01,0.4-0.08,0.4-0.38c-0.01-0.56-0.01-1.13,0-1.69c0.01-0.29-0.13-0.39-0.4-0.38c-0.34,0.01-0.69,0-1.03,0
			c-1.19,0-1.2,0-1.18,1.19c0,0.39-0.17,0.89,0.08,1.15C35.56,43.27,36.07,43.03,36.4,43.09z"/>
		<path class="st2" d="M30.06,44.47c-0.63,0-1.26,0-1.9,0c-0.59,0-0.84-0.25-0.85-0.82c-0.01-1.21-0.01-2.42,0-3.63
			c0-0.53,0.26-0.8,0.78-0.8c1.29-0.01,2.58-0.01,3.88,0c0.48,0,0.77,0.24,0.79,0.72c0.03,1.26,0.03,2.53,0,3.79
			c-0.01,0.51-0.29,0.73-0.81,0.73C31.32,44.47,30.69,44.47,30.06,44.47z M30.02,43.09c0.33,0,0.66-0.01,0.99,0
			c0.24,0.01,0.35-0.08,0.35-0.33c-0.01-0.59-0.01-1.18,0-1.77c0-0.25-0.11-0.34-0.35-0.34c-0.63,0.01-1.26,0.01-1.89,0
			c-0.29,0-0.38,0.14-0.38,0.41c0.01,0.53,0.02,1.07,0,1.61c-0.01,0.35,0.13,0.46,0.46,0.44C29.47,43.07,29.75,43.09,30.02,43.09z"
			/>
		<path class="st2" d="M42.32,43.09c0-0.62-0.01-1.24,0-1.85c0.01-0.53,0.25-0.77,0.79-0.78c1.13-0.01,2.25-0.01,3.38,0
			c0.52,0,0.81,0.26,0.81,0.78c0.02,1.24,0.02,2.47,0,3.71c-0.01,0.49-0.3,0.76-0.79,0.76c-1.14,0.01-2.28,0.01-3.42,0
			c-0.53,0-0.77-0.26-0.77-0.8C42.32,44.3,42.32,43.69,42.32,43.09z M43.7,43.08c0,0.27,0.01,0.55,0,0.82
			c-0.01,0.26,0.08,0.38,0.35,0.38c0.49-0.01,0.99-0.01,1.48,0c0.27,0,0.36-0.13,0.35-0.38c-0.01-0.55-0.01-1.1,0-1.64
			c0-0.26-0.09-0.38-0.36-0.38c-0.49,0.01-0.99,0.01-1.48,0c-0.27,0-0.36,0.13-0.35,0.38C43.71,42.53,43.7,42.81,43.7,43.08z"/>
		<path class="st2" d="M24.23,43.08c0,0.62,0.01,1.24,0,1.85c-0.01,0.51-0.26,0.76-0.76,0.77c-1.14,0.01-2.28,0.01-3.42,0
			c-0.5,0-0.79-0.25-0.8-0.75c-0.02-1.25-0.02-2.5,0-3.75c0.01-0.49,0.3-0.74,0.8-0.74c1.14-0.01,2.28-0.01,3.42,0
			c0.51,0,0.75,0.25,0.76,0.77C24.24,41.84,24.23,42.46,24.23,43.08z M22.85,43.08c0-0.27-0.01-0.55,0-0.82
			c0.01-0.25-0.08-0.39-0.35-0.38c-0.49,0.01-0.99,0.01-1.48,0c-0.27,0-0.36,0.12-0.36,0.38c0.01,0.55,0.01,1.1,0,1.64
			c-0.01,0.29,0.12,0.39,0.4,0.38c0.47-0.01,0.93-0.01,1.4,0c0.31,0.01,0.41-0.13,0.39-0.42C22.84,43.6,22.85,43.34,22.85,43.08z"/>
	</g>
</g>
<g id="hotel">
	<g>
		<path class="st2" d="M49.41,87.39c-11.79,0-23.58,0-35.37,0c-1.39,0-1.62-0.23-1.62-1.62c0-0.91-0.01-1.82,0.01-2.73
			c0.02-0.88,0.35-1.2,1.22-1.21c1.37-0.01,2.75-0.03,4.12,0.01c0.66,0.02,0.82-0.22,0.82-0.85c-0.02-5.47-0.01-10.96-0.01-16.43
			c0-8.35,0.01-16.7-0.01-25.05c0-0.78,0.26-1.21,0.98-1.52c5.54-2.34,11.07-4.71,16.6-7.08c0.64-0.27,1.19-0.26,1.83,0.02
			c1.98,0.88,3.96,1.7,5.95,2.56c0.74,0.32,0.79,0.29,0.79-0.5c0-3.56,0.02-7.13-0.01-10.68c-0.01-1.07,0.33-1.68,1.38-2.11
			c5.26-2.18,10.49-4.46,15.72-6.71c0.48-0.21,0.94-0.23,1.42-0.02c5.42,2.32,10.83,4.64,16.26,6.95c0.56,0.24,0.85,0.63,0.82,1.26
			c-0.02,0.62,0,1.22,0,1.84c0,19.09,0,38.17,0,57.26c0,1.07,0,1.07,1.09,1.07c1.3,0,2.6-0.01,3.91,0c0.78,0.01,1.13,0.33,1.15,1.11
			c0.03,1.11,0.03,2.22,0,3.31c-0.02,0.82-0.39,1.12-1.3,1.12c-4.32,0-8.65,0-12.97,0C64.6,87.39,57.01,87.39,49.41,87.39z
			 M63.5,48.76c0,10.74,0,21.47-0.01,32.21c0,0.66,0.17,0.89,0.87,0.88c4.35-0.03,8.69-0.01,13.05-0.01c1.03,0,1.03,0,1.03-1.06
			c0-19.24,0-38.47,0.02-57.7c0-0.75-0.23-1.13-0.93-1.42c-4.38-1.83-8.72-3.71-13.08-5.58c-0.94-0.4-0.95-0.41-0.95,0.63
			C63.5,27.38,63.5,38.08,63.5,48.76z M61.55,48.79c0-10.7,0-21.42,0-32.13c0-0.94-0.02-0.96-0.88-0.58
			c-4.31,1.84-8.61,3.7-12.94,5.51c-0.77,0.32-1.05,0.7-1.05,1.55c0.03,12.94,0.02,25.89,0.02,38.83c0,6.34,0.01,12.67-0.01,19.01
			c0,0.63,0.16,0.91,0.82,0.85c0.54-0.05,1.09-0.03,1.62,0c0.53,0.03,0.75-0.14,0.74-0.71c-0.01-3.93-0.01-7.86,0-11.79
			c0-0.45-0.14-0.65-0.58-0.77s-0.65-0.49-0.62-0.97c0.03-0.45,0.29-0.72,0.72-0.82c0.24-0.06,0.48-0.09,0.72-0.11
			c1.42-0.14,2.83-0.29,4.25-0.41s2.83-0.24,4.25-0.34c0.54-0.03,0.9,0.24,1.01,0.77c0.09,0.47-0.13,0.89-0.56,0.99
			c-0.64,0.15-0.63,0.56-0.63,1.04c0.01,3.71,0,7.41,0,11.13c0,1.98,0,1.98,1.98,1.98c1.13,0,1.13,0,1.13-1.13
			C61.55,70.07,61.55,59.43,61.55,48.79z M36.04,57.48c0-7.73,0-15.47,0-23.21c0-0.22,0-0.45-0.01-0.66
			c-0.01-0.32-0.14-0.47-0.47-0.33c-0.18,0.08-0.37,0.14-0.55,0.22c-4.56,1.95-9.12,3.92-13.69,5.84c-0.69,0.29-0.88,0.65-0.88,1.37
			c0.02,13.37,0.01,26.72,0.01,40.09c0,0.15,0.01,0.3,0,0.45c-0.03,0.43,0.14,0.63,0.59,0.62c0.81-0.02,1.62-0.01,2.43,0
			c0.42,0.01,0.56-0.18,0.56-0.58c-0.01-3.07-0.01-6.13,0-9.21c0-0.4-0.16-0.55-0.54-0.63c-0.46-0.09-0.73-0.42-0.73-0.89
			c0.01-0.49,0.29-0.82,0.79-0.93c0.29-0.06,0.58-0.09,0.87-0.13c0.78-0.08,1.57-0.16,2.34-0.23c1.98-0.17,3.95-0.35,5.94-0.51
			c0.57-0.05,0.97,0.23,1.05,0.8c0.08,0.54-0.22,0.91-0.73,1.03c-0.4,0.09-0.5,0.31-0.5,0.67c0,3.34,0.01,6.68,0,10.02
			c0,0.46,0.19,0.61,0.62,0.59c0.62-0.02,1.22,0,1.84,0c1.04,0,1.04,0,1.04-1.07C36.04,73,36.04,65.23,36.04,57.48z M37.99,57.44
			c0,0.3,0,0.59,0,0.88c0,7.49,0,14.98,0,22.47c0,1.03,0,1.03,1.06,1.03c1.52,0,3.05,0,4.57,0c1.11,0,1.11,0,1.11-1.07
			c0-5.9,0-11.79,0-17.69c0-8.74-0.01-17.48,0.01-26.23c0-0.7-0.21-1.06-0.87-1.31c-1.62-0.64-3.21-1.35-4.82-2.03
			c-1.06-0.46-1.06-0.45-1.06,0.74C37.99,41.97,37.99,49.71,37.99,57.44z M49.52,83.71c-11.4,0-22.79,0.01-34.19-0.01
			c-0.75,0-0.95,0.22-0.96,0.96c-0.02,0.83,0.38,0.88,1.03,0.88c22.7-0.01,45.4-0.01,68.09-0.01c0.17,0,0.34-0.01,0.51,0
			c0.34,0.01,0.46-0.17,0.49-0.49c0.13-1.21,0.05-1.31-1.15-1.31C72.07,83.71,60.79,83.71,49.52,83.71z M56.47,75.02
			c0-2.07-0.02-4.12,0.01-6.19c0.01-0.63-0.19-0.83-0.81-0.77c-1.05,0.13-2.1,0.21-3.15,0.3c-0.47,0.05-0.7,0.23-0.7,0.74
			c0.01,4.03,0.01,8.05,0,12.09c0,0.48,0.19,0.64,0.66,0.64c1.09-0.02,2.16-0.03,3.24,0c0.59,0.02,0.75-0.21,0.75-0.78
			C56.46,79.06,56.47,77.05,56.47,75.02z M30.56,76.38c0-1.59-0.02-3.19,0.01-4.78c0.01-0.59-0.23-0.79-0.79-0.72
			c-1.02,0.11-2.04,0.21-3.07,0.3c-0.51,0.05-0.72,0.29-0.72,0.8c0.01,3.04,0.01,6.08,0,9.12c0,0.59,0.24,0.75,0.8,0.74
			c1.01-0.03,2.01-0.03,3.02,0c0.57,0.02,0.79-0.17,0.78-0.75C30.55,79.51,30.56,77.95,30.56,76.38z"/>
		<path class="st2" d="M65.77,50.12c0-9.16,0-18.32,0-27.49c0-1.12,0.29-1.61,0.94-1.63c0.67-0.02,1.03,0.54,1.03,1.65
			c0,18.3,0,36.6,0,54.91c0,1.11-0.31,1.59-0.99,1.58c-0.69,0-0.98-0.47-0.98-1.59C65.77,68.4,65.77,59.26,65.77,50.12z"/>
		<path class="st2" d="M76.15,51.88c0,8.52,0,17.05,0,25.56c0,0.34,0.03,0.69-0.08,1.02c-0.15,0.41-0.42,0.65-0.88,0.66
			c-0.48,0.01-0.8-0.24-0.93-0.69c-0.08-0.27-0.08-0.58-0.08-0.88c0-17.14,0-34.27,0-51.42c0-0.17-0.01-0.34,0.01-0.51
			c0.05-0.58,0.32-1.01,0.95-1.02c0.63-0.02,0.93,0.39,0.99,0.97c0.03,0.29,0.02,0.58,0.02,0.88C76.15,34.94,76.15,43.4,76.15,51.88
			z"/>
		<path class="st2" d="M70.02,51c0-8.89,0-17.78,0-26.66c0-1.07,0.29-1.54,0.94-1.54c0.64,0,0.95,0.48,0.95,1.54
			c0,17.75,0,35.51,0,53.27c0,0.07,0,0.15,0,0.22c-0.01,0.88-0.32,1.3-0.95,1.3c-0.63,0-0.94-0.41-0.94-1.3
			C70.02,68.88,70.02,59.94,70.02,51z"/>
		<path class="st2" d="M60.1,35.2c0,1.03-0.01,2.06,0,3.08c0.01,0.7-0.31,1.11-0.96,1.28c-1.04,0.29-2.07,0.59-3.12,0.86
			c-0.91,0.23-1.43-0.15-1.44-1.11c-0.02-2.01,0-4.02-0.01-6.03c0-0.62,0.27-1.03,0.86-1.22c1.09-0.37,2.17-0.75,3.27-1.11
			c0.8-0.25,1.36,0.15,1.38,0.99C60.12,33.05,60.1,34.12,60.1,35.2L60.1,35.2z M56.54,35.9c0,0.51-0.02,1.03,0.01,1.54
			c0.01,0.29-0.15,0.7,0.35,0.74c0.53,0.06,1.21-0.37,1.22-0.78c0.02-1.2,0.01-2.4,0.01-3.6c0-0.37-0.11-0.54-0.54-0.42
			c-0.95,0.24-1.04,0.33-1.04,1.35C56.54,35.11,56.54,35.5,56.54,35.9z"/>
		<path class="st2" d="M60.1,45.8c0,1.03,0.01,2.06,0,3.08c-0.01,0.82-0.29,1.15-1.1,1.3c-1.03,0.21-2.07,0.4-3.11,0.57
			c-0.8,0.14-1.3-0.25-1.31-1.07c-0.02-2.08-0.01-4.17,0-6.25c0-0.59,0.32-0.96,0.89-1.1c1.1-0.26,2.18-0.55,3.28-0.8
			c0.8-0.18,1.3,0.19,1.33,1.02C60.12,43.64,60.1,44.73,60.1,45.8L60.1,45.8z M58.13,46.12c0-0.51,0.02-1.03-0.01-1.54
			c-0.02-0.3,0.18-0.83-0.37-0.75c-0.46,0.06-1.19-0.07-1.2,0.75c-0.02,1.2-0.01,2.4,0,3.6c0,0.17,0,0.34,0.19,0.43
			c0.51,0.23,1.36-0.3,1.38-0.87C58.14,47.19,58.13,46.66,58.13,46.12z"/>
		<path class="st2" d="M60.1,56.51c0,1.01-0.01,2.01,0,3.02c0.01,0.7-0.3,1.14-0.99,1.23c-1.14,0.14-2.28,0.26-3.44,0.34
			c-0.64,0.05-1.07-0.37-1.09-1.04c-0.02-2.11-0.02-4.23,0-6.33c0-0.59,0.32-0.97,0.91-1.06c1.13-0.19,2.27-0.39,3.42-0.55
			c0.7-0.09,1.15,0.33,1.18,1.09C60.12,54.3,60.1,55.41,60.1,56.51L60.1,56.51z M58.12,56.53C58.13,56.53,58.13,56.53,58.12,56.53
			c0-0.49,0.03-0.98,0-1.47c-0.02-0.31,0.19-0.87-0.45-0.78c-0.46,0.07-1.17-0.13-1.14,0.77c0.03,1.11,0.02,2.2,0,3.31
			c-0.01,0.48,0.18,0.67,0.66,0.64c0.43-0.03,0.94,0.06,0.93-0.63C58.12,57.76,58.12,57.14,58.12,56.53z"/>
		<path class="st2" d="M60.1,24.81c0,0.94-0.02,1.86,0.01,2.8c0.02,0.69-0.25,1.12-0.89,1.36c-1.06,0.39-2.11,0.81-3.18,1.18
			c-0.82,0.29-1.44-0.13-1.45-1.01c-0.02-1.94-0.01-3.88-0.01-5.82c0-0.49,0.23-0.85,0.67-1.05c1.14-0.5,2.28-1.02,3.45-1.47
			c0.75-0.3,1.36,0.13,1.38,0.99C60.12,22.79,60.1,23.8,60.1,24.81L60.1,24.81z M58.13,25.27c0-0.54,0.01-1.07,0-1.62
			c0-0.16,0.05-0.35-0.21-0.4c-0.49-0.08-1.36,0.64-1.37,1.14c-0.01,0.79-0.02,1.57,0,2.35c0.01,0.33-0.18,0.8,0.14,0.95
			c0.38,0.17,0.79-0.16,1.15-0.33c0.26-0.11,0.27-0.39,0.27-0.63C58.13,26.25,58.13,25.76,58.13,25.27z"/>
		<path class="st2" d="M53.31,37.29c0,0.96-0.01,1.92,0,2.88c0.01,0.72-0.31,1.15-1.01,1.34c-0.88,0.23-1.75,0.5-2.63,0.73
			c-0.98,0.25-1.45-0.11-1.46-1.14c-0.01-1.86,0.01-3.74-0.01-5.6c-0.01-0.66,0.24-1.06,0.88-1.27c0.87-0.27,1.71-0.59,2.58-0.88
			c1.11-0.35,1.63,0.03,1.65,1.22C53.32,35.47,53.31,36.39,53.31,37.29z M51.33,37.68c0-0.45,0.03-0.89-0.01-1.33
			c-0.02-0.25,0.25-0.75-0.31-0.71c-0.4,0.03-0.93,0.09-0.93,0.73c0,1.09,0,2.16,0,3.24c0,0.21,0,0.42,0.31,0.38
			c0.48-0.08,1.01-0.11,0.95-0.85C51.31,38.66,51.33,38.17,51.33,37.68z"/>
		<path class="st2" d="M48.21,47.98c0-0.96,0.01-1.92,0-2.88c-0.01-0.64,0.26-1.03,0.88-1.18c0.95-0.23,1.9-0.49,2.86-0.7
			c0.85-0.17,1.34,0.22,1.35,1.1c0.02,1.99,0.01,3.98,0,5.96c0,0.62-0.31,1.02-0.95,1.13c-0.94,0.17-1.87,0.38-2.82,0.54
			c-0.88,0.15-1.3-0.23-1.33-1.12C48.2,49.89,48.21,48.93,48.21,47.98z M51.33,47.61c0-0.49,0.02-0.98-0.01-1.46
			c-0.01-0.25,0.17-0.69-0.3-0.66c-0.4,0.02-0.94,0.01-0.94,0.67c0,1.07,0,2.15,0,3.22c0,0.4,0.18,0.5,0.56,0.45
			c0.48-0.08,0.74-0.27,0.7-0.81C51.3,48.53,51.33,48.06,51.33,47.61z"/>
		<path class="st2" d="M53.31,57.34c0,0.96,0.01,1.92,0,2.87c-0.02,0.82-0.34,1.14-1.15,1.22c-0.83,0.08-1.66,0.17-2.49,0.26
			c-1.02,0.11-1.44-0.25-1.44-1.25c-0.01-1.84-0.01-3.68,0-5.52c0-0.89,0.19-1.15,1.05-1.31c0.94-0.17,1.89-0.32,2.83-0.43
			c0.72-0.09,1.19,0.34,1.2,1.14C53.32,55.33,53.31,56.33,53.31,57.34z M50.09,57.56c0,0.47-0.01,0.93,0,1.39
			c0.01,0.32-0.13,0.72,0.47,0.67c0.46-0.05,0.81-0.08,0.79-0.69c-0.03-1.01-0.02-2.01,0-3c0.01-0.53-0.14-0.7-0.69-0.58
			c-0.42,0.09-0.59,0.24-0.57,0.67C50.11,56.53,50.09,57.04,50.09,57.56z"/>
		<path class="st2" d="M48.21,28.77c0-0.88,0.01-1.77,0-2.65c-0.01-0.57,0.24-0.93,0.74-1.14c0.95-0.4,1.89-0.83,2.84-1.21
			c0.87-0.34,1.49,0.06,1.5,0.99c0.03,1.86,0.01,3.74,0.01,5.6c0,0.53-0.25,0.9-0.73,1.09c-1.01,0.39-2.01,0.78-3.04,1.12
			c-0.77,0.25-1.29-0.16-1.31-0.99C48.2,30.63,48.21,29.69,48.21,28.77z M50.09,28.3c0,0.49,0,0.98,0,1.47c0,0.19,0,0.46,0.3,0.38
			c0.47-0.11,0.98-0.17,0.96-0.88c-0.03-0.78,0-1.57-0.01-2.35c0-0.83-0.14-0.9-0.87-0.51c-0.27,0.15-0.4,0.34-0.39,0.64
			C50.1,27.46,50.09,27.89,50.09,28.3z"/>
		<path class="st2" d="M27.57,50.77c0-0.81,0.01-1.62,0-2.43c-0.01-0.63,0.25-1.03,0.85-1.21c0.89-0.27,1.77-0.57,2.67-0.83
			c0.73-0.21,1.27,0.09,1.33,0.83c0.15,1.86,0.1,3.72,0.02,5.59c-0.02,0.49-0.31,0.81-0.8,0.94c-0.9,0.23-1.81,0.48-2.72,0.67
			c-0.91,0.19-1.34-0.17-1.35-1.13C27.56,52.39,27.57,51.58,27.57,50.77z M30.53,50.26c0-0.45-0.01-0.88,0-1.33
			c0-0.31-0.13-0.39-0.41-0.32c-0.41,0.1-0.71,0.27-0.67,0.79c0.03,0.69-0.01,1.37,0.02,2.06c0.01,0.24-0.18,0.67,0.32,0.65
			c0.4-0.01,0.79-0.13,0.75-0.69C30.51,51.04,30.53,50.64,30.53,50.26z"/>
		<path class="st2" d="M32.47,58.68c0,0.83,0.03,1.67-0.01,2.5c-0.03,0.87-0.35,1.18-1.21,1.28c-0.85,0.11-1.7,0.25-2.56,0.32
			c-0.75,0.06-1.11-0.26-1.12-1.02c-0.02-1.71-0.01-3.44-0.01-5.15c0-0.54,0.25-0.89,0.78-1.02c0.94-0.21,1.86-0.43,2.81-0.58
			c0.81-0.14,1.23,0.18,1.28,1.02c0.06,0.88,0.01,1.77,0.01,2.65C32.46,58.68,32.47,58.68,32.47,58.68z M30.53,58.92
			c0-0.37,0.01-0.73,0-1.1c-0.01-0.27,0.08-0.65-0.39-0.62c-0.39,0.02-0.71,0.15-0.7,0.66c0.02,0.75,0,1.52,0.01,2.27
			c0,0.24-0.09,0.61,0.35,0.57c0.35-0.03,0.77-0.06,0.73-0.61C30.51,59.69,30.53,59.3,30.53,58.92z"/>
		<path class="st2" d="M27.57,42.56c0-0.77,0.01-1.52,0-2.28c-0.01-0.59,0.23-0.98,0.78-1.21c0.88-0.37,1.76-0.77,2.65-1.11
			c0.8-0.31,1.39,0.02,1.45,0.89c0.1,1.69,0.09,3.38,0,5.08c-0.03,0.53-0.33,0.86-0.82,1.03c-0.86,0.3-1.7,0.63-2.57,0.9
			c-0.95,0.3-1.46-0.09-1.47-1.1C27.56,44.03,27.57,43.3,27.57,42.56z M30.53,41.74L30.53,41.74c0-0.24,0.02-0.49,0-0.73
			c-0.02-0.22,0.15-0.57-0.16-0.64c-0.27-0.06-0.56,0.15-0.79,0.33c-0.15,0.13-0.13,0.31-0.13,0.48c0,0.56-0.02,1.13,0.01,1.69
			c0.01,0.24-0.22,0.69,0.29,0.66c0.38-0.02,0.79-0.15,0.79-0.7C30.52,42.49,30.53,42.12,30.53,41.74z"/>
		<path class="st2" d="M26.79,51.55c0,0.79-0.01,1.58,0.01,2.35c0.01,0.64-0.26,1.03-0.88,1.18c-0.79,0.19-1.57,0.41-2.36,0.57
			c-0.72,0.15-1.23-0.23-1.25-0.97c-0.03-1.62-0.02-3.24,0-4.87c0.01-0.48,0.27-0.83,0.74-0.99c0.82-0.26,1.63-0.54,2.46-0.77
			c0.74-0.21,1.25,0.18,1.27,0.98C26.8,49.88,26.79,50.71,26.79,51.55z M24.91,51.86C24.92,51.86,24.92,51.86,24.91,51.86
			c0.01-0.3,0.03-0.59,0-0.88c-0.02-0.21,0.17-0.56-0.22-0.59c-0.35-0.03-0.42,0.26-0.43,0.56c0,0.69-0.01,1.37,0,2.06
			c0,0.19-0.02,0.42,0.27,0.41c0.23-0.01,0.37-0.14,0.37-0.38C24.92,52.63,24.91,52.24,24.91,51.86z"/>
		<path class="st2" d="M26.79,59.62c0,0.81-0.01,1.61,0,2.42c0.01,0.69-0.33,1.05-0.98,1.14c-0.8,0.11-1.6,0.23-2.4,0.3
			c-0.7,0.06-1.09-0.33-1.1-0.99c-0.03-1.61-0.02-3.23,0-4.84c0.01-0.53,0.3-0.88,0.82-0.99c0.81-0.18,1.62-0.37,2.44-0.5
			c0.78-0.14,1.2,0.24,1.22,1.05C26.8,58.01,26.79,58.81,26.79,59.62z M24.27,59.88L24.27,59.88c0,0.37-0.01,0.73,0,1.1
			c0,0.19-0.01,0.42,0.29,0.41c0.23-0.01,0.37-0.15,0.37-0.38c0-0.75,0.01-1.51,0-2.26c0-0.22-0.08-0.39-0.33-0.38
			c-0.25,0.02-0.31,0.22-0.31,0.42C24.27,59.16,24.27,59.51,24.27,59.88z"/>
		<path class="st2" d="M26.79,43.62c0,0.73-0.01,1.47,0,2.2c0.01,0.57-0.24,0.94-0.77,1.12c-0.79,0.27-1.57,0.57-2.35,0.82
			c-0.77,0.24-1.35-0.15-1.36-0.95c-0.03-1.5-0.02-2.98,0-4.48c0-0.46,0.24-0.8,0.65-0.98c0.81-0.35,1.61-0.72,2.43-1.03
			c0.8-0.3,1.36,0.09,1.39,0.95C26.82,42.05,26.79,42.84,26.79,43.62z M24.91,43.97h0.01c0-0.24,0.02-0.49-0.01-0.73
			c-0.02-0.18,0.14-0.5-0.23-0.5c-0.27,0.01-0.42,0.23-0.42,0.51c0,0.58-0.01,1.18,0,1.76c0,0.17,0.03,0.37,0.26,0.37
			c0.23,0,0.37-0.16,0.37-0.38C24.92,44.66,24.91,44.32,24.91,43.97z"/>
	</g>
</g>
</svg>
